<?xml version="1.0" encoding="utf-8"?>
<!-- Generator: Adobe Illustrator 23.0.3, SVG Export Plug-In . SVG Version: 6.00 Build 0)  -->
<svg version="1.1" id="Слой_1" xmlns="http://www.w3.org/2000/svg" xmlns:xlink="http://www.w3.org/1999/xlink" x="0px" y="0px"
	 viewBox="0 0 300 193.1" style="enable-background:new 0 0 300 193.1;" xml:space="preserve">
<style type="text/css">
	.st0{fill:url(#SVGID_1_);}
	.st1{fill:#AFBEC0;}
	.st2{opacity:0.32;}
	.st3{fill:#FFFFFF;}
	.st4{opacity:6.000000e-02;}
	.st5{fill:#FFA9D4;}
	.st6{opacity:0.1;}
	.st7{fill:#90CD76;}
	.st8{fill:#F2F2F2;}
	.st9{fill:#FFC300;}
	.st10{fill:#535353;}
	.st11{fill:#009BD5;}
	.st12{fill:#D4E3E5;}
	.st13{fill:#E6F2F3;}
	.st14{opacity:0.44;}
	.st15{opacity:4.000000e-02;}
	.st16{fill:#B9CCCE;}
	.st17{fill:#009AD4;}
	.st18{fill:#E6D4CB;}
	.st19{fill:#FFAAD5;}
	.st20{fill:#D15E47;}
	.st21{opacity:0.19;}
	.st22{opacity:9.000000e-02;}
	.st23{fill:#B55443;}
	.st24{fill:#EFE5E4;}
	.st25{fill:#DDD3D3;}
	.st26{fill:#544E4B;}
	.st27{opacity:0.24;enable-background:new    ;}
	.st28{opacity:0.11;fill:#FFFFFF;enable-background:new    ;}
	.st29{opacity:0.13;enable-background:new    ;}
	.st30{fill:#97A4A5;}
	.st31{fill:#D8E3E5;}
	.st32{opacity:0.32;fill:#FFFFFF;enable-background:new    ;}
	.st33{opacity:0.21;fill:#FFFFFF;enable-background:new    ;}
	.st34{fill:none;stroke:#BBC9D7;stroke-width:2;stroke-miterlimit:10;}
	.st35{opacity:0.53;}
	.st36{fill:none;stroke:#BBC9D7;stroke-width:0.75;stroke-miterlimit:10;}
	.st37{fill:#8C9FAF;}
	.st38{fill:#BBC9D7;}
	.st39{fill:none;stroke:#8C9FAF;stroke-width:3;stroke-miterlimit:10;}
	.st40{fill:#AFD2F2;}
	.st41{opacity:5.000000e-02;enable-background:new    ;}
	.st42{fill:#7D919E;}
	.st43{fill:#DFB98A;}
	.st44{fill:#BF9C75;}
	.st45{fill:#AF8964;}
	.st46{clip-path:url(#SVGID_3_);}
	.st47{fill:#FFFFFF;stroke:#BBC9D7;stroke-width:2;stroke-miterlimit:10;}
	.st48{opacity:8.000000e-02;fill:#201600;enable-background:new    ;}
	.st49{opacity:8.000000e-02;fill:#FFFFFF;enable-background:new    ;}
	.st50{fill:#F7CDA1;}
	.st51{fill:#93725A;}
	.st52{fill:#A07A60;}
	.st53{fill:#D6AC7F;}
	.st54{opacity:8.000000e-02;}
	.st55{opacity:6.000000e-02;enable-background:new    ;}
	.st56{opacity:0.22;fill:#FFFFFF;enable-background:new    ;}
	.st57{opacity:8.000000e-02;enable-background:new    ;}
	.st58{opacity:3.000000e-02;enable-background:new    ;}
	.st59{opacity:6.000000e-02;fill:#FFFFFF;enable-background:new    ;}
</style>
<linearGradient id="SVGID_1_" gradientUnits="userSpaceOnUse" x1="2579.6377" y1="-1135.1265" x2="2579.6377" y2="-1351.0264" gradientTransform="matrix(0.8867 0.4623 -0.4623 0.8867 -2685.0627 -12.2318)">
	<stop  offset="4.166280e-03" style="stop-color:#FFFFFF"/>
	<stop  offset="0.6028" style="stop-color:#E9EFF7"/>
</linearGradient>
<path class="st0" d="M181.8,20.9c40.2-5.2,60.9-36.1,100.4-9.3c31.8,21.6,22.3,99.4-32.8,150.2c-31.3,28.8-77.4,35-115.2,15.4
	C81.1,149.9,35.2,93.1,64.3,51.2C97.6,3,141.6,26.2,181.8,20.9z"/>
<g>
	<g>
		<g>
			<path class="st1" d="M196.7,193.1H74.5c-1.1,0-2.1-0.8-2.1-1.8v-19.2c0-1,0.9-1.8,2.1-1.8h122.2c1.1,0,2.1,0.8,2.1,1.8v19.2
				C198.7,192.4,197.8,193.1,196.7,193.1z"/>
		</g>
		<g class="st2">
			<path class="st3" d="M198.7,176.8v-4.6c0-1-0.9-1.8-2.1-1.8H74.5c-1.2,0-2.1,0.8-2.1,1.8v4.6H198.7z"/>
		</g>
		<g class="st4">
			<g>
				<path d="M72.4,186.7v4.6c0,1,0.9,1.8,2.1,1.8h122.1c1.2,0,2.1-0.8,2.1-1.8v-4.6H72.4z"/>
			</g>
		</g>
	</g>
</g>
<g>
	<g>
		<g>
			<path class="st5" d="M56.1,177.1L56.1,177.1c-1-0.4-1.4-1.5-1.1-2.4l1.6-3.7c0.4-0.9,1.5-1.4,2.4-1h0.1c0.9,0.4,1.4,1.5,1,2.4
				l-1.6,3.7C58.1,177.1,57,177.5,56.1,177.1z"/>
		</g>
		<g class="st6">
			<g>
				<path d="M58,169.8c0-0.1,0.1-0.1,0.1-0.1l-0.1-0.1c-0.3-0.1-0.7,0-0.9,0.4l-2.5,5.8c-0.1,0.3,0,0.7,0.4,0.9h0.1L58,169.8z"/>
			</g>
		</g>
		<g class="st2">
			<path class="st3" d="M59.9,170.6c0-0.1,0-0.1,0-0.2V170.6c0.4,0,0.6,0.4,0.5,0.8l-2.4,5.8c-0.1,0.3-0.5,0.5-0.9,0.4H57
				L59.9,170.6z"/>
		</g>
		<g>
			<polygon class="st7" points="77,134 72.4,132.1 55.8,171.5 60.3,173.4 			"/>
		</g>
		<g>
			<polygon class="st8" points="59.6,175 55,173 56.9,168.7 61.5,170.7 			"/>
		</g>
		<g class="st6">
			<g>
				<path d="M73.2,132.8c-0.2,0.1-0.5,0.1-0.7,0c-0.1-0.1-0.2-0.2-0.3-0.3L55,173l1.1,0.5L73.2,132.8z"/>
			</g>
		</g>
		<g class="st2">
			<path class="st3" d="M76.9,134.1c-0.2,0.1-0.5,0.1-0.7,0c-0.1-0.1-0.2-0.2-0.3-0.3l-17.5,40.9l1.1,0.4L76.9,134.1z"/>
		</g>
		<g>
			<polygon class="st9" points="72.4,132.1 77,134 78.2,124.8 			"/>
		</g>
		<g>
			<path class="st9" d="M77,134l0.1-0.7c0,0,0-0.1-0.1-0.1c-0.3-0.2-0.7-0.1-0.9,0.2c0.1-0.3-0.1-0.6-0.3-0.7
				c-0.3-0.2-0.8-0.1-1,0.2l0,0c0.1-0.3,0-0.6-0.3-0.8s-0.7-0.1-0.9,0.2c0-0.3-0.1-0.6-0.3-0.7c-0.1-0.1-0.3-0.1-0.4-0.1l-0.4,0.5
				l-0.2,0.4c0,0.1,0.1,0.3,0.3,0.3c0.3,0.2,0.7,0.1,0.9-0.2c0,0.3,0.1,0.6,0.3,0.7c0.3,0.2,0.8,0.1,1-0.2l0,0
				c-0.1,0.3,0,0.6,0.3,0.8s0.7,0.1,0.9-0.2c-0.1,0.3,0.1,0.6,0.3,0.7c0.1,0.1,0.3,0.1,0.5,0.1L77,134z"/>
		</g>
		<g class="st2">
			<path class="st3" d="M77,134L77,134l1.2-9.2l-0.4,0.5l-1.9,8.4c0,0.3,0.1,0.6,0.3,0.7c0.1,0.1,0.3,0.1,0.5,0.1L77,134z"/>
		</g>
		<g class="st6">
			<g>
				<path d="M73.2,132.8l4.9-7.1l0.1-1l-5.8,7.2l-0.2,0.4c0,0.1,0.1,0.3,0.3,0.3C72.7,132.9,73,132.9,73.2,132.8z"/>
			</g>
		</g>
		<g>
			<path class="st10" d="M78.8,123.3c-0.1,0.3-0.1,0.6-0.2,1c-0.1,0.3-0.2,0.6-0.3,1s-0.1,0.7-0.3,0.9c-0.2,0.3-0.4,0.6-0.7,0.8
				h-0.1c-0.1-0.4,0-0.7,0.1-1s0.3-0.6,0.4-0.9s0.3-0.6,0.5-0.9C78.4,123.8,78.5,123.5,78.8,123.3L78.8,123.3z"/>
		</g>
	</g>
	<g>
		<g>
			<g>
				
					<ellipse transform="matrix(0.6967 -0.7173 0.7173 0.6967 -133.2292 62.4017)" class="st11" cx="7.2" cy="188.8" rx="4.1" ry="0.5"/>
			</g>
			<g>
				<g>
					<path class="st12" d="M10.5,189.5L41,158c1.1-1.1,1-2.9-0.1-3.9l0,0c-1.1-1.1-2.9-1-3.9,0.1L6.5,185.6c-1.1,1.1-1,2.9,0.1,3.9
						l0,0C7.7,190.6,9.4,190.6,10.5,189.5z"/>
				</g>
				<g>
					<path class="st13" d="M8,183.9l-1.5,1.6c-1.1,1.1-1.1,2.9-0.1,4c1.1,1.1,2.9,1.1,4,0l1.6-1.7c1.1-1.1,1-2.9-0.1-3.9l0,0
						C10.9,182.8,9.1,182.8,8,183.9z"/>
				</g>
				<g>
					<g class="st14">
						<path class="st3" d="M6,188.7c-0.4-1-0.3-2.2,0.5-3.1l30.4-31.5c0.8-0.8,2-1.1,3-0.6L6,188.7z"/>
					</g>
					<g class="st15">
						<g>
							<path d="M41.5,154.9c0.4,1,0.3,2.2-0.5,3.1l-30.4,31.5c-0.8,0.8-2,1.1-3,0.6L41.5,154.9z"/>
						</g>
					</g>
				</g>
			</g>
		</g>
		<g>
			<g>
				<path class="st16" d="M44.7,155.6l-10.4,10.7c-0.7,0.7-1.7,0.7-2.4,0l-3-2.9c-0.7-0.7-0.7-1.7,0-2.4l10.4-10.7
					c1.4-1.5,3.8-1.5,5.3-0.1v0.1C46.1,151.7,46.2,154.1,44.7,155.6z"/>
			</g>
			<g class="st15">
				<g>
					<path d="M31.7,166.1l0.1,0.1c0.7,0.7,1.8,0.6,2.4,0l10.4-10.7c1-1,1.3-2.4,0.9-3.7L31.7,166.1z"/>
				</g>
			</g>
			<g class="st14">
				<path class="st3" d="M43.1,149.3c-1.3-0.4-2.8-0.1-3.8,1L28.9,161c-0.7,0.7-0.6,1.8,0,2.4l0.3,0.3L43.1,149.3z"/>
			</g>
			<g>
				<path class="st16" d="M37,151.1L24.4,164c-0.3,0.3-0.8,0.3-1.1,0l0,0c-0.3-0.3-0.3-0.8,0-1.1L35.9,150c0.3-0.3,0.8-0.3,1.1,0
					l0,0C37.3,150.3,37.3,150.8,37,151.1z"/>
			</g>
			<g>
				<path class="st16" d="M38.3,151.3l-1,1l-1.9-1.9l0,0c0.5-0.6,1.5-0.6,2,0L38.3,151.3z"/>
			</g>
			<g class="st14">
				<path class="st3" d="M37,150c-0.3-0.3-0.8-0.3-1.1,0l0,0l-0.4,0.4l-12.1,12.4c-0.2,0.2-0.3,0.5-0.2,0.8c0-0.2,0.1-0.3,0.2-0.4
					l12.1-12.4l0.4-0.4l0,0c0.3-0.3,0.8-0.3,1.1,0l0,0l0,0l1.1,1.1l0.2-0.2L37,150L37,150L37,150z"/>
			</g>
			<g class="st15">
				<g>
					<path d="M37.6,152.1l-1-1l-12.7,13l-0.1,0.1c0.3,0.1,0.5,0,0.8-0.2l12.1-12.4l0.8,0.8L37.6,152.1z"/>
				</g>
			</g>
		</g>
	</g>
	<g>
		<g>
			<path class="st5" d="M62.4,176.9L62.4,176.9c-1.1,0.2-2-0.4-2.2-1.4l-0.8-3.9c-0.2-1,0.5-1.9,1.4-2.1h0.1c1-0.2,1.9,0.4,2.1,1.4
				l0.8,3.9C64,175.8,63.4,176.8,62.4,176.9z"/>
		</g>
		<g class="st6">
			<g>
				<path d="M59.9,169.9c0-0.1,0-0.1,0-0.2h-0.1c-0.4,0.1-0.6,0.4-0.5,0.8l1.2,6.2c0.1,0.4,0.4,0.6,0.8,0.5h0.1L59.9,169.9z"/>
			</g>
		</g>
		<g class="st2">
			<path class="st3" d="M61.9,169.4c0-0.1,0-0.1-0.1-0.2h0.1c0.4-0.1,0.7,0.2,0.8,0.5l1.3,6.2c0.1,0.4-0.2,0.7-0.5,0.8h-0.1
				L61.9,169.4z"/>
		</g>
		<g>
			<polygon class="st17" points="55.6,129.5 50.7,130.5 59,172.5 63.8,171.5 			"/>
		</g>
		<g>
			<polygon class="st8" points="64.1,173.3 59.2,174.1 58.4,169.5 63.3,168.7 			"/>
		</g>
		<g class="st6">
			<g>
				<path d="M51.8,130.7c-0.1,0.2-0.3,0.4-0.6,0.4c-0.1,0-0.3,0-0.4-0.1l8.4,43.2l1.2-0.2L51.8,130.7z"/>
			</g>
		</g>
		<g class="st2">
			<path class="st3" d="M55.6,129.6c-0.1,0.2-0.3,0.4-0.6,0.4c-0.1,0-0.3,0-0.4-0.1l8.4,43.6l1.1-0.2L55.6,129.6z"/>
		</g>
		<g>
			<polygon class="st9" points="50.7,130.5 55.6,129.5 51.4,121.2 			"/>
		</g>
		<g>
			<path class="st9" d="M55.6,129.5l-0.3-0.6h-0.1c-0.4,0-0.7,0.3-0.7,0.7c-0.1-0.3-0.4-0.4-0.7-0.4c-0.4,0-0.7,0.3-0.7,0.7l0,0
				c-0.1-0.3-0.4-0.5-0.7-0.5c-0.4,0-0.6,0.3-0.6,0.6c-0.1-0.3-0.4-0.4-0.7-0.4c-0.2,0-0.3,0.1-0.4,0.2v0.6l0.1,0.5
				c0.1,0.1,0.3,0.1,0.4,0.1c0.4,0,0.6-0.3,0.6-0.6c0.1,0.3,0.4,0.4,0.7,0.4c0.4,0,0.7-0.3,0.7-0.7l0,0c0.1,0.3,0.4,0.5,0.7,0.5
				c0.4,0,0.7-0.3,0.7-0.7c0.1,0.3,0.4,0.4,0.7,0.4c0.2,0,0.3-0.1,0.5-0.2L55.6,129.5z"/>
		</g>
		<g class="st2">
			<path class="st3" d="M55.6,129.5L55.6,129.5l-4.1-8.3v0.6l3.2,8c0.1,0.3,0.4,0.4,0.7,0.4c0.2,0,0.3-0.1,0.5-0.2L55.6,129.5z"/>
		</g>
		<g class="st6">
			<g>
				<path d="M51.8,130.7l0.1-8.6l-0.4-0.9l-0.7,9.2l0.1,0.5c0.1,0.1,0.3,0.1,0.4,0.1C51.5,131,51.7,130.9,51.8,130.7z"/>
			</g>
		</g>
		<g>
			<path class="st10" d="M51.1,119.7c0.1,0.3,0.2,0.6,0.4,0.9c0.1,0.3,0.2,0.6,0.3,0.9s0.3,0.6,0.3,0.9s0,0.7-0.1,1h-0.1
				c-0.3-0.3-0.4-0.6-0.5-0.9s-0.1-0.6-0.1-1s-0.1-0.7-0.1-1C51.1,120.3,51,120,51.1,119.7L51.1,119.7z"/>
		</g>
	</g>
	<g>
		<g>
			<path class="st18" d="M50.7,193.2h18.7c2.7,0,4.9-2.6,5-5.9l1.5-41.3H45.3l0.4,41.1C45.7,190.5,47.9,193.2,50.7,193.2z"/>
		</g>
		<g class="st14">
			<path class="st3" d="M47.7,146.1l0.4,46.3c-1.4-1.1-2.4-3-2.4-5.2l-0.4-41.1H47.7L47.7,146.1z"/>
		</g>
		<g class="st15">
			<g>
				<path d="M48.7,191.5h18.7c2.7,0,4.9-2.6,5-5.9l1.4-39.6h2l-1.5,41.3c-0.1,3.3-2.3,5.9-5,5.9H50.7c-1.5,0-2.8-0.8-3.7-2.1
					C47.5,191.4,48.1,191.5,48.7,191.5z"/>
			</g>
		</g>
	</g>
	<g>
		<g>
			<path class="st19" d="M97.9,193.2H83.4c-1,0-1.8-0.8-1.8-1.8V186c0-1,0.8-1.8,1.8-1.8h14.5c1,0,1.8,0.8,1.8,1.8v5.4
				C99.7,192.4,98.9,193.2,97.9,193.2z"/>
		</g>
		<g>
			<g class="st14">
				<path class="st3" d="M99.7,186.6v-0.4c0-1.1-0.7-2-1.6-2H83.2c-0.9,0-1.6,0.9-1.6,2v0.4H99.7z"/>
			</g>
			<g class="st15">
				<g>
					<path d="M81.6,190.9v0.4c0,1.1,0.7,2,1.6,2h14.9c0.9,0,1.6-0.9,1.6-2v-0.4H81.6z"/>
				</g>
			</g>
		</g>
	</g>
</g>
<g>
	<path class="st9" d="M79.5,164.8L79.5,164.8c-0.5,0-0.9-0.4-0.9-0.9v-0.2c0-0.5,0.4-0.9,0.9-0.9l0,0c0.5,0,0.9,0.4,0.9,0.9v0.2
		C80.3,164.4,80,164.8,79.5,164.8z"/>
	<path class="st20" d="M120.7,145.7H86c-2.6,0-4.6,2.1-4.6,4.6V161h-0.3c-1,0-1.8,0.8-1.8,1.8v3.4c0,1,0.8,1.8,1.8,1.8h0.3h14.7
		h27.4c1,0,1.9-0.8,1.9-1.9v-15.7C125.3,147.7,123.2,145.7,120.7,145.7z"/>
	<g class="st21">
		<path class="st3" d="M81.1,161.5h0.3V161h-0.3c-0.8,0-1.4,0.5-1.7,1.2C80,161.8,80.6,161.5,81.1,161.5z"/>
	</g>
	<g class="st22">
		<path class="st3" d="M84.5,147.3h37c1.4,0,2.6,0.5,3.5,1.3c-0.7-1.7-2.4-3-4.3-3H86c-1.7,0-3.1,0.9-3.9,2.2
			C82.8,147.5,83.6,147.3,84.5,147.3z"/>
	</g>
	<path class="st23" d="M96.4,165.7H79.9h-0.3c-0.1,0-0.2,0-0.3,0v0.4c0,1,0.8,1.8,1.8,1.8h0.3h14.7h27.4c1,0,1.9-0.8,1.9-1.9v-0.3
		H96.4z"/>
	<g>
		<g>
			<path class="st24" d="M91.6,149.1h4.3c0.4,0,0.7,0.3,0.7,0.7v3c0,0.4-0.3,0.7-0.7,0.7h-4.3c-0.4,0-0.7-0.3-0.7-0.7v-3
				C90.9,149.3,91.2,149.1,91.6,149.1z"/>
			<path class="st25" d="M95.9,149.1v0.1v3.1c0,0.3-0.4,0.6-0.8,0.6H91h-0.1c0.1,0.3,0.4,0.5,0.8,0.5h4.1c0.4,0,0.8-0.3,0.8-0.6
				v-3.1C96.5,149.4,96.3,149.1,95.9,149.1z"/>
		</g>
		<g>
			<path class="st24" d="M98.2,149.1h4.3c0.4,0,0.7,0.3,0.7,0.7v3c0,0.4-0.3,0.7-0.7,0.7h-4.3c-0.4,0-0.7-0.3-0.7-0.7v-3
				C97.5,149.3,97.8,149.1,98.2,149.1z"/>
			<path class="st25" d="M102.5,149.1v0.1v3.1c0,0.3-0.4,0.6-0.8,0.6h-4.1h-0.1c0.1,0.3,0.4,0.5,0.8,0.5h4.1c0.4,0,0.8-0.3,0.8-0.6
				v-3.1C103.1,149.4,102.9,149.1,102.5,149.1z"/>
		</g>
		<g>
			<path class="st24" d="M104.6,149.1h4.6c0.3,0,0.5,0.2,0.5,0.5v3.2c0,0.3-0.2,0.5-0.5,0.5h-4.6c-0.3,0-0.5-0.2-0.5-0.5v-3.2
				C104,149.3,104.3,149.1,104.6,149.1z"/>
			<path class="st25" d="M109,149.1v0.1v3.1c0,0.3-0.4,0.6-0.8,0.6h-4.1H104c0.1,0.3,0.4,0.5,0.8,0.5h4.1c0.4,0,0.8-0.3,0.8-0.6
				v-3.1C109.7,149.4,109.4,149.1,109,149.1z"/>
		</g>
		<g>
			<path class="st24" d="M112.6,149.1h1.4c1.2,0,2.1,1,2.1,2.1l0,0c0,1.2-1,2.1-2.1,2.1h-1.4c-1.2,0-2.1-1-2.1-2.1l0,0
				C110.4,150,111.4,149.1,112.6,149.1z"/>
			<path class="st25" d="M115.4,149.1v0.1v3.1c0,0.3-0.4,0.6-0.8,0.6h-4.1h-0.1c0.1,0.3,0.4,0.5,0.8,0.5h4.1c0.4,0,0.8-0.3,0.8-0.6
				v-3.1C116.1,149.4,115.8,149.1,115.4,149.1z"/>
		</g>
		<g>
			<path class="st24" d="M117.6,149.1h1.4c2,0,3.7,1.7,3.7,3.7l0,0c0,0.3-0.3,0.6-0.6,0.6h-4.5c-0.3,0-0.6-0.3-0.6-0.6v-3.1
				C117,149.3,117.3,149.1,117.6,149.1z"/>
			<path class="st25" d="M121.5,150.1c0.4,0.6,0.6,1.3,0.6,2.1c0,0.3-0.3,0.6-0.6,0.6H117h-0.1l0,0c0,0.3,0.3,0.6,0.6,0.6h4.5
				c0.3,0,0.6-0.3,0.6-0.6C122.7,151.7,122.2,150.8,121.5,150.1z"/>
		</g>
		<g>
			<path class="st24" d="M89.4,149.1H88c-2,0-3.7,1.7-3.7,3.7l0,0c0,0.3,0.3,0.6,0.6,0.6h4.5c0.3,0,0.6-0.3,0.6-0.6v-3.1
				C90,149.3,89.7,149.1,89.4,149.1z"/>
			<path class="st25" d="M85.5,150.1c-0.4,0.6-0.6,1.3-0.6,2.1c0,0.3,0.3,0.6,0.6,0.6H90h0.1l0,0c0,0.3-0.3,0.6-0.6,0.6H85
				c-0.3,0-0.6-0.3-0.6-0.6C84.3,151.7,84.8,150.8,85.5,150.1z"/>
		</g>
	</g>
	<g>
		<path class="st24" d="M85.7,158.4h4c0.3,0,0.6,0.3,0.6,0.6v2.8c0,0.3-0.3,0.6-0.6,0.6h-4c-0.3,0-0.6-0.3-0.6-0.6V159
			C85.1,158.7,85.3,158.4,85.7,158.4z"/>
		<path class="st25" d="M89.7,158.4v0.1v2.9c0,0.3-0.3,0.6-0.7,0.6h-3.8h-0.1c0.1,0.2,0.4,0.4,0.7,0.4h3.8c0.4,0,0.7-0.3,0.7-0.6
			V159C90.3,158.7,90,158.5,89.7,158.4z"/>
	</g>
	<g>
		<path class="st24" d="M92.1,158.4h4.1c0.3,0,0.6,0.3,0.6,0.6v2.9c0,0.3-0.3,0.6-0.6,0.6h-4.1c-0.3,0-0.6-0.3-0.6-0.6V159
			C91.6,158.7,91.8,158.4,92.1,158.4z"/>
		<path class="st25" d="M96.2,158.4v0.1v2.9c0,0.3-0.3,0.6-0.7,0.6h-3.8h-0.1c0.1,0.2,0.4,0.4,0.7,0.4h3.8c0.4,0,0.7-0.3,0.7-0.6
			V159C96.8,158.7,96.5,158.5,96.2,158.4z"/>
	</g>
	<g>
		<path class="st24" d="M98.7,158.4h3.8c0.4,0,0.7,0.3,0.7,0.7v2.6c0,0.4-0.3,0.7-0.7,0.7h-3.8c-0.4,0-0.7-0.3-0.7-0.7v-2.6
			C98,158.7,98.3,158.4,98.7,158.4z"/>
		<path class="st25" d="M102.6,158.4v0.1v2.9c0,0.3-0.3,0.6-0.7,0.6h-3.8H98c0.1,0.2,0.4,0.4,0.7,0.4h3.8c0.4,0,0.7-0.3,0.7-0.6V159
			C103.2,158.7,102.9,158.5,102.6,158.4z"/>
	</g>
	<path class="st24" d="M105,158.4h7.6c0.3,0,0.6,0.3,0.6,0.6v2.8c0,0.3-0.3,0.6-0.6,0.6H105c-0.3,0-0.6-0.3-0.6-0.6V159
		C104.4,158.7,104.7,158.4,105,158.4z"/>
	<path class="st25" d="M112.7,158.4c0,0.1,0,0.1,0,0.2v2.7c0,0.4-0.3,0.6-0.6,0.6h-7.5h-0.1c0.1,0.2,0.3,0.4,0.6,0.4h7.5
		c0.4,0,0.6-0.3,0.6-0.6V159C113.2,158.7,113,158.5,112.7,158.4z"/>
	<path class="st24" d="M124.2,156.5H82.5c-0.3,0-0.6-0.3-0.6-0.6l0,0c0-0.3,0.3-0.6,0.6-0.6h41.7c0.3,0,0.6,0.3,0.6,0.6l0,0
		C124.8,156.2,124.6,156.5,124.2,156.5z"/>
	<path class="st3" d="M124.8,155.6c-0.1-0.2-0.3-0.3-0.5-0.3H82.5c-0.2,0-0.4,0.1-0.5,0.3H124.8z"/>
	<path class="st25" d="M82,156.2c0.1,0.2,0.3,0.3,0.5,0.3h41.7c0.2,0,0.4-0.1,0.5-0.3H82z"/>
	<path class="st26" d="M120.6,166h-3.2c-1,0-1.7-0.8-1.7-1.7v-4.1c0-1,0.8-1.7,1.7-1.7h3.2c1,0,1.7,0.8,1.7,1.7v4.1
		C122.3,165.2,121.5,166,120.6,166z"/>
	<path class="st27" d="M122,158.4h-6c-0.2,0-0.4,0.2-0.4,0.4v6.9c0,0.2,0.2,0.4,0.4,0.4h6c0.2,0,0.4-0.2,0.4-0.4v-6.9
		C122.3,158.6,122.2,158.4,122,158.4z M122,165.3c0,0.2-0.2,0.4-0.4,0.4h-5.4c-0.2,0-0.4-0.2-0.4-0.4v-6.2c0-0.2,0.2-0.4,0.4-0.4
		h5.4c0.2,0,0.4,0.2,0.4,0.4V165.3z"/>
	<g>
		<path class="st20" d="M121.5,165.7h-1.7c-0.3,0-0.5-0.2-0.5-0.5l0,0c0-0.3,0.2-0.5,0.5-0.5h1.7c0.3,0,0.5,0.2,0.5,0.5l0,0
			C122,165.5,121.8,165.7,121.5,165.7z"/>
		<path class="st28" d="M122,164.9L122,164.9c0-0.1,0-0.2-0.1-0.2h-2.4c-0.1,0-0.1,0-0.1,0.1l0,0L122,164.9L122,164.9z"/>
		<path class="st29" d="M119.4,165.5L119.4,165.5c0,0.1,0,0.2,0.1,0.2h2.4c0.1,0,0.1,0,0.1-0.1l0,0L119.4,165.5L119.4,165.5z"/>
	</g>
	<g>
		<path class="st20" d="M121.5,164.7h-1.7c-0.3,0-0.5-0.2-0.5-0.5l0,0c0-0.3,0.2-0.5,0.5-0.5h1.7c0.3,0,0.5,0.2,0.5,0.5l0,0
			C122,164.5,121.8,164.7,121.5,164.7z"/>
		<path class="st28" d="M122,163.9L122,163.9c0-0.1,0-0.2-0.1-0.2h-2.4c-0.1,0-0.1,0-0.1,0.1l0,0L122,163.9L122,163.9z"/>
		<path class="st29" d="M119.4,164.6L119.4,164.6c0,0.1,0,0.2,0.1,0.2h2.4c0.1,0,0.1,0,0.1-0.1l0,0L119.4,164.6L119.4,164.6z"/>
	</g>
	<g>
		<path class="st20" d="M121.5,163.7h-1.7c-0.3,0-0.5-0.2-0.5-0.5l0,0c0-0.3,0.2-0.5,0.5-0.5h1.7c0.3,0,0.5,0.2,0.5,0.5l0,0
			C122,163.5,121.8,163.7,121.5,163.7z"/>
		<path class="st28" d="M122,162.9L122,162.9c0-0.1,0-0.2-0.1-0.2h-2.4c-0.1,0-0.1,0-0.1,0.1l0,0L122,162.9L122,162.9z"/>
		<path class="st29" d="M119.4,163.6L119.4,163.6c0,0.1,0,0.2,0.1,0.2h2.4c0.1,0,0.1,0,0.1-0.1l0,0L119.4,163.6L119.4,163.6z"/>
	</g>
	<g>
		<path class="st20" d="M121.5,162.8h-1.7c-0.3,0-0.5-0.2-0.5-0.5l0,0c0-0.3,0.2-0.5,0.5-0.5h1.7c0.3,0,0.5,0.2,0.5,0.5l0,0
			C122,162.6,121.8,162.8,121.5,162.8z"/>
		<path class="st28" d="M122,162L122,162c0-0.1,0-0.2-0.1-0.2h-2.4c-0.1,0-0.1,0-0.1,0.1l0,0L122,162L122,162z"/>
		<path class="st29" d="M119.4,162.6L119.4,162.6c0,0.1,0,0.2,0.1,0.2h2.4c0.1,0,0.1,0,0.1-0.1l0,0L119.4,162.6L119.4,162.6z"/>
	</g>
	<path class="st24" d="M119,166L119,166c-0.2,0-0.4-0.2-0.4-0.4v-9.7h0.8v9.7C119.4,165.8,119.2,166,119,166z"/>
	<path class="st25" d="M119,166L119,166v-9.5c0-0.2,0.2-0.4,0.4-0.4l0,0v9.5C119.4,165.9,119.2,166,119,166z"/>
	<path class="st23" d="M91.3,167.8c0-0.2,0.1-0.5,0-0.7c-0.1-2-1.8-3.5-3.7-3.4c-2,0.1-3.5,1.8-3.4,3.7c0,0.1,0,0.3,0,0.4H91.3z"/>
	<path class="st23" d="M114.8,167.9c0-0.2,0.1-0.5,0-0.7c-0.1-2-1.8-3.5-3.7-3.4c-2,0.1-3.5,1.8-3.4,3.7c0,0.1,0,0.3,0,0.4H114.8z"
		/>
	<g>
		<g>
			<circle class="st30" cx="87.8" cy="167.3" r="3"/>
			<circle class="st31" cx="87.8" cy="167.3" r="1.5"/>
		</g>
		<path class="st32" d="M84.9,167.8c-0.1-1.7,1.2-3.1,2.9-3.2c1.1-0.1,2.1,0.5,2.7,1.4c-0.5-1.1-1.6-1.8-2.9-1.8
			c-1.7,0.1-3,1.5-2.9,3.2c0,0.5,0.2,1.1,0.5,1.5C85,168.6,84.9,168.2,84.9,167.8z"/>
		<path class="st33" d="M86.4,167.6c0-0.8,0.6-1.5,1.4-1.6c0.6,0,1.2,0.3,1.4,0.8c-0.2-0.7-0.8-1.2-1.5-1.1c-0.8,0-1.5,0.7-1.4,1.6
			c0,0.2,0.1,0.4,0.2,0.6C86.4,167.8,86.4,167.7,86.4,167.6z"/>
		<g class="st6">
			<path d="M89.3,167.3c-0.1,0.7-0.7,1.2-1.4,1.2c-0.8,0-1.5-0.6-1.6-1.4V167c0,0.1,0,0.2,0,0.4c0,0.8,0.7,1.5,1.6,1.4
				C88.6,168.8,89.3,168.1,89.3,167.3z"/>
		</g>
		<g class="st6">
			<path d="M90.8,167.2c-0.2,1.4-1.4,2.6-2.9,2.6c-1.7,0.1-3.1-1.2-3.2-2.9c0,0,0,0,0-0.1c0,0.2,0,0.4,0,0.5c0.1,1.7,1.5,3,3.2,2.9
				C89.5,170.3,90.8,168.9,90.8,167.2z"/>
		</g>
	</g>
	<g>
		<g>
			<circle class="st30" cx="111.3" cy="167.2" r="3"/>
			<circle class="st31" cx="111.3" cy="167.2" r="1.5"/>
		</g>
		<path class="st32" d="M108.4,167.7c-0.1-1.7,1.2-3.1,2.9-3.2c1.1-0.1,2.1,0.5,2.7,1.4c-0.5-1.1-1.6-1.8-2.9-1.8
			c-1.7,0.1-3,1.5-2.9,3.2c0,0.5,0.2,1.1,0.5,1.5C108.5,168.5,108.4,168.1,108.4,167.7z"/>
		<path class="st33" d="M109.9,167.6c0-0.8,0.6-1.5,1.4-1.6c0.6,0,1.2,0.3,1.4,0.8c-0.2-0.7-0.8-1.2-1.5-1.1c-0.8,0-1.5,0.7-1.4,1.6
			c0,0.2,0.1,0.4,0.2,0.6C109.9,167.8,109.9,167.7,109.9,167.6z"/>
		<g class="st6">
			<path d="M112.8,167.3c-0.1,0.7-0.7,1.2-1.4,1.2c-0.8,0-1.5-0.6-1.6-1.4V167c0,0.1,0,0.2,0,0.4c0,0.8,0.7,1.5,1.6,1.4
				C112.1,168.7,112.8,168.1,112.8,167.3z"/>
		</g>
		<g class="st6">
			<path d="M114.3,167.2c-0.2,1.4-1.4,2.6-2.9,2.6c-1.7,0.1-3.1-1.2-3.2-2.9c0,0,0,0,0-0.1c0,0.2,0,0.4,0,0.5c0.1,1.7,1.5,3,3.2,2.9
				C113,170.2,114.3,168.8,114.3,167.2z"/>
		</g>
	</g>
</g>
<circle class="st34" cx="227.9" cy="85.1" r="52.9"/>
<g class="st35">
	<line class="st36" x1="227.5" y1="25.3" x2="227.5" y2="145.4"/>
	<line class="st36" x1="197.5" y1="33.3" x2="257.6" y2="137.3"/>
	<line class="st36" x1="197.5" y1="137.3" x2="257.6" y2="33.3"/>
	<line class="st36" x1="175.5" y1="55.3" x2="279.6" y2="115.4"/>
	<line class="st36" x1="175.5" y1="115.4" x2="279.6" y2="55.3"/>
	<line class="st36" x1="167.5" y1="85.3" x2="287.6" y2="85.3"/>
</g>
<g class="st35">
	<line class="st36" x1="169.5" y1="69.8" x2="285.5" y2="100.9"/>
	<line class="st36" x1="169.5" y1="100.9" x2="285.5" y2="69.8"/>
	<line class="st36" x1="270" y1="127.8" x2="185.1" y2="42.9"/>
	<line class="st36" x1="185.1" y1="127.8" x2="270" y2="42.9"/>
	<line class="st36" x1="243.1" y1="143.3" x2="212" y2="27.3"/>
	<line class="st36" x1="212" y1="143.3" x2="243.1" y2="27.3"/>
</g>
<rect x="232.5" y="85.7" transform="matrix(0.9848 -0.1736 0.1736 0.9848 -16.6889 42.5219)" class="st37" width="4.5" height="61.9"/>
<rect x="189.9" y="114.5" transform="matrix(0.1736 -0.9848 0.9848 0.1736 67.5086 313.9803)" class="st37" width="61.9" height="4.5"/>
<circle class="st38" cx="227.9" cy="85.1" r="12.3"/>
<circle class="st37" cx="227.9" cy="85.1" r="6.1"/>
<path class="st37" d="M168.7,85.1"/>
<path class="st36" d="M167.3,85.7l9.3-14.1l-0.5-16.2l13.7-7.9l7.8-14.5l16.1,0.1l13-8l14.6,8.6l16.5-0.6l7.1,14.2l14.9,8.4
	L279,71.5l8,13.6L279,98l2.5,18l-16.9,4c0,0-83.3,7.7-83.3,7.1s-5.2-15.5-5.2-15.5l0.6-13L167.3,85.7z"/>
<circle class="st39" cx="227.9" cy="85.1" r="59.2"/>
<g>
	<circle class="st40" cx="228.1" cy="21.6" r="5.8"/>
	<path class="st41" d="M222.3,21.8c0.1,3.1,2.7,5.6,5.8,5.6c3.2,0,5.7-2.5,5.8-5.6H222.3z"/>
</g>
<g>
	<circle class="st40" cx="196.4" cy="29.9" r="5.8"/>
	<path class="st41" d="M190.6,30c0.1,3.1,2.7,5.6,5.8,5.6c3.2,0,5.7-2.5,5.8-5.6C202.2,30,190.6,30,190.6,30z"/>
</g>
<g>
	<circle class="st40" cx="172.9" cy="53.3" r="5.8"/>
	<path class="st41" d="M167.1,53.5c0.1,3.1,2.7,5.6,5.8,5.6c3.2,0,5.7-2.5,5.8-5.6H167.1z"/>
</g>
<g>
	<circle class="st40" cx="164.4" cy="85" r="5.8"/>
	<path class="st41" d="M158.6,85.2c0.1,3.1,2.7,5.6,5.8,5.6c3.2,0,5.7-2.5,5.8-5.6H158.6z"/>
</g>
<g>
	
		<ellipse transform="matrix(0.2298 -0.9732 0.9732 0.2298 170.718 276.1115)" class="st40" cx="259.8" cy="30.2" rx="5.8" ry="5.8"/>
	<path class="st41" d="M265.7,30.4c-0.1,3.1-2.7,5.6-5.8,5.6c-3.2,0-5.7-2.5-5.8-5.6H265.7z"/>
</g>
<g>
	<circle class="st40" cx="283.3" cy="54.1" r="5.8"/>
	<path class="st41" d="M289.1,54.3c-0.1,3.1-2.7,5.6-5.8,5.6c-3.2,0-5.7-2.5-5.8-5.6H289.1z"/>
</g>
<g>
	<circle class="st40" cx="291.1" cy="84.8" r="5.8"/>
	<path class="st41" d="M296.9,85c-0.1,3.1-2.7,5.6-5.8,5.6c-3.2,0-5.7-2.5-5.8-5.6H296.9z"/>
</g>
<g>
	<circle class="st40" cx="283.4" cy="115.5" r="5.8"/>
	<path class="st41" d="M289.2,115.7c-0.1,3.1-2.7,5.6-5.8,5.6c-3.2,0-5.7-2.5-5.8-5.6H289.2z"/>
</g>
<g>
	<rect x="238.1" y="80.4" class="st42" width="44.1" height="13"/>
	<rect x="238.1" y="84.7" class="st37" width="44.4" height="12.3"/>
	<g>
		<g>
			<polygon class="st43" points="282.6,97.7 282.6,80.6 278.8,74.1 275.1,80.6 275.1,97.7 			"/>
			<polygon class="st44" points="280.5,96.6 277.2,96.6 277.2,85.3 278.8,81.3 280.5,85.3 			"/>
		</g>
		<path class="st43" d="M281.8,73c0,1.3-1.3,2.3-2.9,2.3s-2.9-1-2.9-2.3s1.2-3.8,2.9-3.8S281.8,71.7,281.8,73z"/>
		<rect x="278.6" y="61.7" class="st43" width="0.5" height="11.6"/>
	</g>
	<rect x="141.6" y="102.8" class="st42" width="98.1" height="16.4"/>
	<rect x="141.6" y="107.6" class="st37" width="98.1" height="16.4"/>
	<rect x="141.5" y="118.4" class="st45" width="98.2" height="6.2"/>
	<rect x="149.2" y="124.6" class="st45" width="90.5" height="45.6"/>
	<rect x="108.8" y="124.9" class="st43" width="8.6" height="38.3"/>
	<g>
		<g>
			
				<rect x="127.2" y="45.7" transform="matrix(3.766961e-03 -1 1 3.766961e-03 70.9626 187.5312)" class="st43" width="4.9" height="25"/>
			<path class="st44" d="M121.4,60.9L121.4,60.9c-0.5,0-1-0.4-1-1v-1.6c0-0.5,0.4-1,1-1l0,0c0.5,0,1,0.4,1,1v1.6
				C122.3,60.4,121.9,60.9,121.4,60.9z"/>
			<path class="st44" d="M124.2,60.8L124.2,60.8c-0.5,0-1-0.4-1-1v-1.6c0-0.5,0.4-1,1-1l0,0c0.5,0,1,0.4,1,1v1.6
				C125.2,60.4,124.7,60.8,124.2,60.8z"/>
			<path class="st44" d="M126.9,60.8L126.9,60.8c-0.5,0-1-0.4-1-1v-1.6c0-0.5,0.4-1,1-1l0,0c0.5,0,1,0.4,1,1v1.6
				C127.9,60.4,127.4,60.8,126.9,60.8z"/>
			<path class="st44" d="M129.7,60.8L129.7,60.8c-0.5,0-1-0.4-1-1v-1.6c0-0.5,0.4-1,1-1l0,0c0.5,0,1,0.4,1,1v1.6
				C130.7,60.3,130.3,60.8,129.7,60.8z"/>
			<path class="st44" d="M132.6,60.9L132.6,60.9c-0.5,0-1-0.4-1-1v-1.6c0-0.5,0.4-1,1-1l0,0c0.5,0,1,0.4,1,1v1.6
				C133.6,60.4,133.2,60.9,132.6,60.9z"/>
			<path class="st44" d="M135.4,60.8L135.4,60.8c-0.5,0-1-0.4-1-1v-1.6c0-0.5,0.4-1,1-1l0,0c0.5,0,1,0.4,1,1v1.6
				C136.4,60.4,136,60.8,135.4,60.8z"/>
			<path class="st44" d="M137.9,60.9L137.9,60.9c-0.5,0-1-0.4-1-1v-1.6c0-0.5,0.4-1,1-1l0,0c0.5,0,1,0.4,1,1v1.6
				C138.8,60.4,138.4,60.9,137.9,60.9z"/>
			
				<rect x="129.1" y="48" transform="matrix(3.766961e-03 -1 1 3.766961e-03 68.6627 189.8227)" class="st45" width="1.1" height="25"/>
			
				<rect x="129" y="43.5" transform="matrix(3.766961e-03 -1 1 3.766961e-03 73.1127 185.3893)" class="st45" width="1.2" height="25"/>
			<g>
				
					<rect x="121.4" y="104.7" transform="matrix(3.766961e-03 -1 1 3.766961e-03 11.614 245.9594)" class="st43" width="15.7" height="24.9"/>
				
					<rect x="112.8" y="116.4" transform="matrix(3.766961e-03 -1 1 3.766961e-03 3.3953 237.6097)" class="st44" width="16.4" height="1.5"/>
				
					<rect x="116.9" y="116.4" transform="matrix(3.766961e-03 -1 1 3.766961e-03 7.4798 241.7097)" class="st44" width="16.4" height="1.5"/>
				
					<rect x="121.1" y="116.4" transform="matrix(3.766961e-03 -1 1 3.766961e-03 11.6641 245.9097)" class="st44" width="16.4" height="1.5"/>
				
					<rect x="125.4" y="116.3" transform="matrix(3.766961e-03 -1 1 3.766961e-03 16.0478 250.1102)" class="st44" width="16.4" height="1.5"/>
				
					<rect x="129.5" y="116.3" transform="matrix(3.766961e-03 -1 1 3.766961e-03 20.1324 254.2103)" class="st44" width="16.4" height="1.5"/>
				
					<rect x="128.3" y="112.5" transform="matrix(3.766961e-03 -1 1 3.766961e-03 3.814 253.7302)" class="st44" width="1.9" height="24.9"/>
				
					<rect x="128.4" y="96.2" transform="matrix(3.766961e-03 -1 1 3.766961e-03 20.2136 237.5918)" class="st44" width="1.9" height="24.9"/>
			</g>
			<g>
				
					<rect x="121.4" y="121.1" transform="matrix(3.766961e-03 -1 1 3.766961e-03 -4.7862 262.2979)" class="st43" width="15.7" height="24.9"/>
				
					<rect x="112.8" y="132.8" transform="matrix(3.766961e-03 -1 1 3.766961e-03 -13.0049 253.9483)" class="st44" width="16.4" height="1.5"/>
				
					<rect x="116.8" y="132.8" transform="matrix(3.766961e-03 -1 1 3.766961e-03 -9.0195 257.948)" class="st44" width="16.4" height="1.5"/>
				
					<rect x="121.1" y="132.9" transform="matrix(3.766961e-03 -1 1 3.766961e-03 -4.8364 262.3475)" class="st44" width="16.4" height="1.5"/>
				
					<rect x="125.3" y="132.7" transform="matrix(3.766961e-03 -1 1 3.766961e-03 -0.4517 266.3484)" class="st44" width="16.4" height="1.5"/>
				
					<rect x="129.4" y="132.7" transform="matrix(3.766961e-03 -1 1 3.766961e-03 3.6329 270.4485)" class="st44" width="16.4" height="1.5"/>
				
					<rect x="128.2" y="128.9" transform="matrix(3.766961e-03 -1 1 3.766961e-03 -12.6855 269.9684)" class="st44" width="1.9" height="24.9"/>
				
					<rect x="128.3" y="112.6" transform="matrix(3.766961e-03 -1 1 3.766961e-03 3.7142 253.8299)" class="st44" width="1.9" height="24.9"/>
			</g>
			<g>
				
					<rect x="121.3" y="137.3" transform="matrix(3.766961e-03 -1 1 3.766961e-03 -21.0858 278.3369)" class="st43" width="15.7" height="24.9"/>
				
					<rect x="112.7" y="149" transform="matrix(3.766961e-03 -1 1 3.766961e-03 -29.3045 269.9872)" class="st44" width="16.4" height="1.5"/>
				
					<rect x="116.8" y="149" transform="matrix(3.766961e-03 -1 1 3.766961e-03 -25.2199 274.0872)" class="st44" width="16.4" height="1.5"/>
				
					<rect x="121" y="149" transform="matrix(3.766961e-03 -1 1 3.766961e-03 -21.0356 278.2872)" class="st44" width="16.4" height="1.5"/>
				
					<rect x="125.3" y="148.9" transform="matrix(3.766961e-03 -1 1 3.766961e-03 -16.652 282.4875)" class="st44" width="16.4" height="1.5"/>
				
					<rect x="129.4" y="148.9" transform="matrix(3.766961e-03 -1 1 3.766961e-03 -12.5674 286.5877)" class="st44" width="16.4" height="1.5"/>
				
					<rect x="128.2" y="145.1" transform="matrix(3.766961e-03 -1 1 3.766961e-03 -28.8857 286.1077)" class="st44" width="1.9" height="24.9"/>
				
					<rect x="128.2" y="128.8" transform="matrix(3.766961e-03 -1 1 3.766961e-03 -12.5855 269.8688)" class="st44" width="1.9" height="24.9"/>
			</g>
			<polygon class="st43" points="141.8,108.7 116.9,108.6 116.9,96.5 116.1,92.8 142.7,93 141.8,96.7 			"/>
			
				<rect x="112.9" y="100.1" transform="matrix(3.766961e-03 -1 1 3.766961e-03 19.7948 221.4709)" class="st44" width="16.4" height="1.5"/>
			
				<rect x="117" y="100.1" transform="matrix(3.766961e-03 -1 1 3.766961e-03 23.8794 225.571)" class="st44" width="16.4" height="1.5"/>
			
				<rect x="121.2" y="100.1" transform="matrix(3.766961e-03 -1 1 3.766961e-03 28.0638 229.771)" class="st44" width="16.4" height="1.5"/>
			
				<rect x="125.4" y="100" transform="matrix(3.766961e-03 -1 1 3.766961e-03 32.3479 233.8712)" class="st44" width="16.4" height="1.5"/>
			
				<rect x="129.5" y="100" transform="matrix(3.766961e-03 -1 1 3.766961e-03 36.4324 237.9712)" class="st44" width="16.4" height="1.5"/>
			
				<rect x="127.4" y="86.1" transform="matrix(3.766961e-03 -1 1 3.766961e-03 34.4626 223.8941)" class="st44" width="4.5" height="17.2"/>
			
				<rect x="125.8" y="36.5" transform="matrix(3.766961e-03 -1 1 3.766961e-03 86.4628 172.1895)" class="st43" width="7.8" height="12.5"/>
			
				<rect x="129.4" y="33.9" transform="matrix(3.766961e-03 -1 1 3.766961e-03 89.0625 169.5991)" class="st45" width="0.6" height="12.5"/>
			<path class="st44" d="M125.6,47L125.6,47c-0.5,0-1-0.4-1-1v-3.6c0-0.5,0.4-1,1-1l0,0c0.5,0,1,0.4,1,1V46
				C126.6,46.6,126.1,47,125.6,47z"/>
			<path class="st44" d="M128.4,46.9L128.4,46.9c-0.5,0-1-0.4-1-1v-3.6c0-0.5,0.4-1,1-1l0,0c0.5,0,1,0.4,1,1v3.6
				C129.4,46.5,129,46.9,128.4,46.9z"/>
			<path class="st44" d="M131.1,46.9L131.1,46.9c-0.5,0-1-0.4-1-1v-3.6c0-0.5,0.4-1,1-1l0,0c0.5,0,1,0.4,1,1v3.6
				C132.1,46.5,131.7,46.9,131.1,46.9z"/>
			<path class="st44" d="M133.9,46.9L133.9,46.9c-0.5,0-1-0.4-1-1v-3.6c0-0.5,0.4-1,1-1l0,0c0.5,0,1,0.4,1,1v3.6
				C134.9,46.4,134.5,46.9,133.9,46.9z"/>
			
				<rect x="129.2" y="20" transform="matrix(3.766961e-03 -1 1 3.766961e-03 108.6113 150.7217)" class="st37" width="1.5" height="1.7"/>
			<polygon class="st37" points="130,16.4 129.7,20.5 130.2,20.5 			"/>
			<polygon class="st37" points="123.9,33.4 123.5,38.3 124.2,38.3 			"/>
			<polygon class="st37" points="135.6,33.4 135.3,38.3 135.9,38.3 			"/>
			<polygon class="st37" points="118.3,42.6 117.5,53.7 119,53.7 			"/>
			<polygon class="st37" points="140.8,42.7 140,53.7 141.5,53.7 			"/>
			
				<rect x="128.6" y="41.8" transform="matrix(3.766961e-03 -1 1 3.766961e-03 74.6127 183.7954)" class="st37" width="1.9" height="25.3"/>
			<path class="st37" d="M131.4,29.5c-0.9-3.4-1.2-6.5-0.8-8.7h-1.3c0.3,2.2,0.1,5.3-0.9,8.7c-1.2,4.1-3.1,7.5-4.8,8.8v1.5H136V38
				C134.2,36.5,132.5,33.4,131.4,29.5z"/>
			<path class="st37" d="M137.5,50.6c-0.8-1.4-1.4-2.8-1.6-4h-12.7c-0.2,1.1-0.7,2.5-1.6,3.8c-1,1.7-2.3,2.9-3.4,3.6v1.4l22.5,0.1
				v-1.2C139.8,53.5,138.6,52.2,137.5,50.6z"/>
			
				<rect x="128.4" y="96.2" transform="matrix(3.766961e-03 -1 1 3.766961e-03 20.2136 237.5916)" class="st44" width="1.9" height="24.9"/>
			<path class="st43" d="M124.4,107.7h-2.7V96.1c0-0.7,0.6-1.3,1.3-1.3l0,0c0.7,0,1.3,0.6,1.3,1.3L124.4,107.7z"/>
			<path class="st43" d="M128.6,107.7h-2.7V96.1c0-0.7,0.6-1.3,1.3-1.3l0,0c0.7,0,1.3,0.6,1.3,1.3L128.6,107.7z"/>
			<path class="st43" d="M132.8,107.7h-2.7V96.1c0-0.7,0.6-1.3,1.3-1.3l0,0c0.7,0,1.3,0.6,1.3,1.3L132.8,107.7z"/>
			<path class="st43" d="M137,107.7h-2.7V96.1c0-0.7,0.6-1.3,1.3-1.3l0,0c0.7,0,1.3,0.6,1.3,1.3L137,107.7z"/>
			
				<rect x="128.4" y="78.7" transform="matrix(3.766961e-03 -1 1 3.766961e-03 36.5139 221.3526)" class="st44" width="1.9" height="27.3"/>
			
				<rect x="113.7" y="60.9" transform="matrix(3.766961e-03 -1 1 3.766961e-03 52.3138 205.5122)" class="st43" width="31.2" height="31.2"/>
			
				<rect x="116.5" y="63.3" transform="matrix(3.766961e-03 -1 1 3.766961e-03 52.7129 205.4133)" class="st44" width="25.9" height="25.9"/>
			
				<rect x="119.7" y="66.9" transform="matrix(3.766961e-03 -1 1 3.766961e-03 52.3137 205.7122)" class="st45" width="19.4" height="19.4"/>
			
				<rect x="129.1" y="40" transform="matrix(3.766961e-03 -1 1 3.766961e-03 82.6126 176.0252)" class="st45" width="1.1" height="13.1"/>
			
				<rect x="129.1" y="33" transform="matrix(3.766961e-03 -1 1 3.766961e-03 89.9127 168.7525)" class="st44" width="1.1" height="12.5"/>
			<g>
				<circle class="st37" cx="129.3" cy="76.5" r="9.4"/>
				<circle class="st3" cx="129.3" cy="76.5" r="8.3"/>
				<g>
					<g>
						<defs>
							<circle id="SVGID_2_" cx="129.3" cy="76.5" r="8.3"/>
						</defs>
						<clipPath id="SVGID_3_">
							<use xlink:href="#SVGID_2_"  style="overflow:visible;"/>
						</clipPath>
						<g class="st46">
							
								<rect x="121" y="76.2" transform="matrix(3.766961e-03 -1 1 3.766961e-03 52.3134 205.6123)" class="st38" width="16.7" height="0.7"/>
							
								<rect x="129" y="68.2" transform="matrix(0.8679 -0.4967 0.4967 0.8679 -20.9278 74.3574)" class="st38" width="0.7" height="16.7"/>
							
								<rect x="129" y="68.2" transform="matrix(0.5033 -0.8641 0.8641 0.5033 -1.8677 149.7699)" class="st38" width="0.7" height="16.7"/>
							
								<rect x="120.9" y="76.1" transform="matrix(0.5033 -0.8641 0.8641 0.5033 -1.8842 149.7061)" class="st38" width="16.7" height="0.7"/>
							
								<rect x="121" y="76.1" transform="matrix(0.8679 -0.4967 0.4967 0.8679 -20.9135 74.3276)" class="st38" width="16.7" height="0.7"/>
							
								<rect x="129" y="68.1" transform="matrix(3.766961e-03 -1 1 3.766961e-03 52.3497 205.5192)" class="st38" width="0.7" height="16.7"/>
						</g>
					</g>
				</g>
				<circle class="st47" cx="129.3" cy="76.5" r="6.4"/>
				<circle class="st37" cx="129.3" cy="76.5" r="0.9"/>
				<path class="st37" d="M125.5,79.2L125.5,79.2c-0.1-0.2-0.1-0.4,0.1-0.5l3.4-2.4c0.2-0.1,0.4-0.1,0.5,0.1l0,0
					c0.1,0.2,0.1,0.4-0.1,0.5l-3.4,2.4C125.8,79.4,125.6,79.4,125.5,79.2z"/>
				<path class="st37" d="M126.8,72.5L126.8,72.5c0.1,0,0.1,0,0.2,0l2.4,3.9c0,0.1,0,0.1,0,0.2l0,0c-0.1,0-0.1,0-0.2,0l-2.4-3.9
					C126.8,72.6,126.8,72.5,126.8,72.5z"/>
			</g>
		</g>
		<polygon class="st48" points="140.5,93 139.6,96.7 139.5,108.7 139.5,108.7 139.5,109.4 139.5,109.7 139.5,124.1 139.5,124.2 
			139.5,125 139.5,125.8 139.5,126 139.5,126.1 139.4,140.4 139.4,140.5 139.4,141.4 139.4,141.9 139.4,142.3 139.4,142.4 
			139.3,156.7 139.3,157.6 139.3,158.6 141.6,158.6 141.6,157.6 141.6,156.7 141.6,142.4 141.6,142.3 141.6,142 141.6,141.5 
			141.6,140.5 141.6,140.4 141.7,126.1 141.7,126 141.7,125.8 141.7,125 141.7,124.2 141.7,124.1 141.7,109.7 141.7,109.4 
			141.7,108.7 141.8,108.7 141.8,96.7 142.7,93 		"/>
		<polygon class="st49" points="118.2,93.2 119.1,96.9 119.1,108.9 119.1,108.9 119.1,109.6 119.1,109.9 119,124.3 119,124.4 
			119,125.2 119,126 119,126.2 119,126.3 119,140.6 119,140.7 119,141.7 119,142.2 119,142.5 119,142.6 118.9,156.9 118.9,157.8 
			118.9,158.8 116.7,158.8 116.7,157.8 116.7,156.9 116.7,142.6 116.7,142.5 116.7,142.1 116.7,141.6 116.7,140.7 116.7,140.6 
			116.8,126.3 116.8,126.2 116.8,126 116.8,125.2 116.8,124.4 116.8,124.3 116.9,109.9 116.9,109.6 116.9,108.9 116.8,108.9 
			116.9,96.9 116,93.2 		"/>
	</g>
	<rect x="108.8" y="158.5" class="st43" width="40.7" height="11.8"/>
	<path class="st43" d="M109.4,127.8L109.4,127.8c-0.4,0-0.7-0.3-0.7-0.7v-7c0-0.4,0.3-0.7,0.7-0.7l0,0c0.4,0,0.7,0.3,0.7,0.7v7
		C110.1,127.5,109.8,127.8,109.4,127.8z"/>
	<rect x="141.6" y="124.8" class="st43" width="7.9" height="38.3"/>
	<rect x="239.7" y="94.6" class="st43" width="40.7" height="75.7"/>
	<path class="st43" d="M148.8,127.8L148.8,127.8c0.4,0,0.7-0.3,0.7-0.7v-7c0-0.4-0.3-0.7-0.7-0.7l0,0c-0.4,0-0.7,0.3-0.7,0.7v7
		C148.2,127.5,148.5,127.8,148.8,127.8z"/>
	<g>
		<path class="st50" d="M141.8,116.1h-25.5c-0.3,0-0.5-0.2-0.5-0.5l0,0c0-0.3,0.2-0.5,0.5-0.5h25.5c0.3,0,0.5,0.2,0.5,0.5l0,0
			C142.4,115.8,142.1,116.1,141.8,116.1z"/>
		<path class="st50" d="M141.8,113.4h-25.5c-0.3,0-0.5-0.2-0.5-0.5l0,0c0-0.3,0.2-0.5,0.5-0.5h25.5c0.3,0,0.5,0.2,0.5,0.5l0,0
			C142.4,113.2,142.1,113.4,141.8,113.4z"/>
	</g>
	<g>
		<path class="st50" d="M142,132.6h-25.5c-0.3,0-0.5-0.2-0.5-0.5l0,0c0-0.3,0.2-0.5,0.5-0.5H142c0.3,0,0.5,0.2,0.5,0.5l0,0
			C142.6,132.3,142.3,132.6,142,132.6z"/>
		<path class="st50" d="M142,129.9h-25.5c-0.3,0-0.5-0.2-0.5-0.5l0,0c0-0.3,0.2-0.5,0.5-0.5H142c0.3,0,0.5,0.2,0.5,0.5l0,0
			C142.6,129.6,142.3,129.9,142,129.9z"/>
	</g>
	<path class="st50" d="M142.1,101.4h-25.5c-0.3,0-0.5-0.2-0.5-0.5l0,0c0-0.3,0.2-0.5,0.5-0.5h25.5c0.3,0,0.5,0.2,0.5,0.5l0,0
		C142.6,101.1,142.4,101.4,142.1,101.4z"/>
	<path class="st50" d="M142.1,98.7h-25.5c-0.3,0-0.5-0.2-0.5-0.5l0,0c0-0.3,0.2-0.5,0.5-0.5h25.5c0.3,0,0.5,0.2,0.5,0.5l0,0
		C142.6,98.4,142.4,98.7,142.1,98.7z"/>
	<rect x="108.8" y="160.3" class="st50" width="40.7" height="10"/>
	<g>
		<g>
			<polygon class="st43" points="158.4,124.9 158.4,112.4 155.6,107.6 152.9,112.4 152.9,124.9 			"/>
			<polygon class="st44" points="156.8,124.1 154.4,124.1 154.4,115.8 155.6,112.9 156.8,115.8 			"/>
		</g>
		<polygon class="st43" points="164.8,124.6 164.8,118.7 162.8,115.4 160.9,118.7 160.9,124.6 		"/>
	</g>
	<g>
		<g>
			<polygon class="st43" points="172.9,124.9 172.9,112.4 170.1,107.6 167.4,112.4 167.4,124.9 			"/>
			<polygon class="st44" points="171.4,124.1 168.9,124.1 168.9,115.8 170.1,112.9 171.4,115.8 			"/>
		</g>
		<polygon class="st43" points="179.3,124.6 179.3,118.7 177.3,115.4 175.4,118.7 175.4,124.6 		"/>
	</g>
	<g>
		<g>
			<polygon class="st43" points="187.8,124.9 187.8,112.4 185,107.6 182.3,112.4 182.3,124.9 			"/>
			<polygon class="st44" points="186.2,124.1 183.8,124.1 183.8,115.8 185,112.9 186.2,115.8 			"/>
		</g>
		<polygon class="st43" points="194.2,124.6 194.2,118.7 192.2,115.4 190.3,118.7 190.3,124.6 		"/>
	</g>
	<g>
		<g>
			<polygon class="st43" points="202.3,124.9 202.3,112.4 199.5,107.6 196.8,112.4 196.8,124.9 			"/>
			<polygon class="st44" points="200.8,124.1 198.3,124.1 198.3,115.8 199.5,112.9 200.8,115.8 			"/>
		</g>
		<polygon class="st43" points="208.7,124.6 208.7,118.7 206.7,115.4 204.8,118.7 204.8,124.6 		"/>
	</g>
	<g>
		<g>
			<polygon class="st43" points="217.2,124.9 217.2,112.4 214.4,107.6 211.7,112.4 211.7,124.9 			"/>
			<polygon class="st44" points="215.7,124.1 213.2,124.1 213.2,115.8 214.4,112.9 215.7,115.8 			"/>
		</g>
		<polygon class="st43" points="223.6,124.6 223.6,118.7 221.6,115.4 219.7,118.7 219.7,124.6 		"/>
	</g>
	<g>
		<polygon class="st43" points="254,96.3 254,90.4 252,87 250.1,90.4 250.1,96.3 		"/>
	</g>
	<g>
		<polygon class="st43" points="262.5,96.3 262.5,83.8 259.7,79 257,83.8 257,96.3 		"/>
		<polygon class="st44" points="261,95.5 258.5,95.5 258.5,87.1 259.7,84.3 261,87.1 		"/>
	</g>
	<polygon class="st43" points="269.3,96.3 269.3,90.4 267.3,87 265.4,90.4 265.4,96.3 	"/>
	<g>
		<g>
			<polygon class="st43" points="231.7,124.9 231.7,112.4 228.9,107.6 226.2,112.4 226.2,124.9 			"/>
			<polygon class="st44" points="230.2,124.1 227.8,124.1 227.8,115.8 229,112.9 230.2,115.8 			"/>
		</g>
		<polygon class="st43" points="238.1,124.6 238.1,118.7 236.1,115.4 234.2,118.7 234.2,124.6 		"/>
	</g>
	<g>
		<rect x="154" y="124.9" class="st51" width="7.7" height="19.9"/>
		<rect x="157.4" y="124.2" class="st45" width="0.8" height="21.3"/>
		<rect x="149.9" y="130.8" class="st45" width="15.8" height="0.8"/>
	</g>
	<g>
		<rect x="168.8" y="124.9" class="st51" width="7.7" height="19.9"/>
		<rect x="172.2" y="124.2" class="st45" width="0.8" height="21.3"/>
		<rect x="164.8" y="130.8" class="st45" width="15.8" height="0.8"/>
	</g>
	<g>
		<rect x="183.3" y="124.9" class="st51" width="7.7" height="19.9"/>
		<rect x="186.7" y="124.2" class="st45" width="0.8" height="21.3"/>
		<rect x="179.2" y="130.8" class="st45" width="15.8" height="0.8"/>
	</g>
	<g>
		<rect x="198.1" y="124.9" class="st51" width="7.7" height="19.9"/>
		<rect x="201.5" y="124.2" class="st45" width="0.8" height="21.3"/>
		<rect x="194.1" y="130.8" class="st45" width="15.8" height="0.8"/>
	</g>
	<g>
		<rect x="212.7" y="124.9" class="st51" width="7.7" height="19.9"/>
		<rect x="216.2" y="124.2" class="st45" width="0.8" height="21.3"/>
		<rect x="208.7" y="130.8" class="st45" width="15.8" height="0.8"/>
	</g>
	<g>
		<rect x="227.6" y="124.9" class="st51" width="7.7" height="19.9"/>
		<rect x="231" y="124.2" class="st45" width="0.8" height="21.3"/>
		<rect x="223.5" y="130.8" class="st45" width="14.1" height="0.8"/>
	</g>
	<g>
		<rect x="154" y="148.3" class="st51" width="7.7" height="21.9"/>
		<rect x="157.4" y="147.6" class="st45" width="0.8" height="22.6"/>
		<rect x="149.9" y="154.2" class="st45" width="15.8" height="0.8"/>
	</g>
	<rect x="168.8" y="148.3" class="st51" width="7.7" height="21.9"/>
	<rect x="173.7" y="147.6" class="st45" width="0.8" height="22.6"/>
	<rect x="166.2" y="154.2" class="st45" width="15.8" height="0.8"/>
	<g>
		<rect x="183.3" y="148.3" class="st51" width="7.7" height="21.9"/>
		<rect x="186.7" y="147.6" class="st45" width="0.8" height="22.6"/>
		<rect x="179.2" y="154.2" class="st45" width="15.8" height="0.8"/>
	</g>
	<g>
		<rect x="198.1" y="148.3" class="st51" width="7.7" height="21.9"/>
		<rect x="201.5" y="147.6" class="st45" width="0.8" height="22.6"/>
		<rect x="194.1" y="154.2" class="st45" width="15.8" height="0.8"/>
	</g>
	<g>
		<rect x="212.7" y="148.2" class="st51" width="7.7" height="22.1"/>
		<rect x="216.2" y="147.5" class="st45" width="0.8" height="22.8"/>
		<rect x="208.7" y="154.1" class="st45" width="15.8" height="0.8"/>
	</g>
	<g>
		<rect x="227.6" y="148.2" class="st51" width="7.7" height="22.1"/>
		<rect x="231" y="147.5" class="st45" width="0.8" height="22.8"/>
		<rect x="223.5" y="154" class="st45" width="14.1" height="0.8"/>
	</g>
	<rect x="154.4" y="161.1" class="st45" width="83.8" height="0.8"/>
	<rect x="154" y="145.3" class="st52" width="7.7" height="2.4"/>
	<rect x="168.7" y="145.5" class="st52" width="7.7" height="2.4"/>
	<rect x="183.2" y="145.7" class="st52" width="7.7" height="2.4"/>
	<rect x="198" y="145.9" class="st52" width="7.7" height="2.4"/>
	<rect x="212.7" y="145.4" class="st52" width="7.7" height="2.4"/>
	<rect x="227.4" y="145.6" class="st52" width="7.7" height="2.4"/>
	<g>
		<rect x="248.6" y="124.9" class="st44" width="7.7" height="19.9"/>
		<rect x="252.1" y="124.2" class="st43" width="0.8" height="21.3"/>
		<rect x="244.6" y="130.7" class="st43" width="15.8" height="0.8"/>
	</g>
	<g>
		<rect x="263.4" y="124.9" class="st44" width="7.7" height="19.9"/>
		<rect x="266.9" y="124.2" class="st43" width="0.8" height="21.3"/>
		<rect x="259.4" y="130.8" class="st43" width="14.1" height="0.8"/>
	</g>
	<g>
		<path class="st44" d="M256.3,122.5h-7.7v-16c0-2.1,1.7-3.9,3.9-3.9l0,0c2.1,0,3.9,1.7,3.9,3.9v16H256.3z"/>
		<rect x="252.1" y="102" class="st43" width="0.8" height="21.3"/>
		<rect x="244.6" y="108.5" class="st43" width="15.8" height="0.8"/>
	</g>
	<g>
		<path class="st44" d="M271.2,122.5h-7.7v-16c0-2.1,1.7-3.9,3.9-3.9l0,0c2.1,0,3.9,1.7,3.9,3.9L271.2,122.5L271.2,122.5z"/>
		<rect x="266.9" y="102" class="st43" width="0.8" height="21.3"/>
		<rect x="259.5" y="108.6" class="st43" width="14.1" height="0.8"/>
	</g>
	<g>
		<rect x="248.6" y="148.2" class="st44" width="7.7" height="22.1"/>
		<rect x="252.1" y="147.5" class="st43" width="0.8" height="22.8"/>
		<rect x="244.5" y="154" class="st43" width="15.8" height="0.8"/>
	</g>
	<g>
		<rect x="263.4" y="148.2" class="st44" width="7.7" height="22.1"/>
		<rect x="266.9" y="147.5" class="st43" width="0.8" height="22.8"/>
		<rect x="259.4" y="154.1" class="st43" width="14.1" height="0.8"/>
	</g>
	<rect x="248.6" y="145.4" class="st53" width="7.7" height="2.4"/>
	<rect x="263.4" y="145.6" class="st53" width="7.7" height="2.4"/>
	<rect x="248.6" y="119.4" class="st53" width="7.8" height="4.6"/>
	<rect x="263.4" y="119.4" class="st53" width="7.9" height="5"/>
	<g>
		<g>
			<polygon class="st43" points="245.4,97.7 245.4,80.6 241.6,74.1 237.9,80.6 237.9,97.7 			"/>
			<polygon class="st44" points="243.3,96.6 240,96.6 240,85.3 241.6,81.3 243.3,85.3 			"/>
		</g>
		<path class="st43" d="M244.5,73c0,1.3-1.3,2.3-2.9,2.3s-2.9-1-2.9-2.3s1.2-3.8,2.9-3.8S244.5,71.7,244.5,73z"/>
		<rect x="241.4" y="61.7" class="st43" width="0.5" height="11.6"/>
	</g>
	<rect x="237.8" y="94.6" class="st45" width="44.8" height="3.8"/>
	<g class="st54">
		<rect x="149.5" y="168.2" width="90.2" height="2"/>
	</g>
	<g class="st54">
		<rect x="149.5" y="124.9" width="88" height="2"/>
	</g>
	<g class="st54">
		<rect x="237.6" y="124.9" width="2.1" height="43.3"/>
	</g>
	<g class="st54">
		<rect x="278.2" y="98.4" width="2.2" height="68.4"/>
	</g>
	<g class="st54">
		<rect x="239.7" y="166.8" width="40.7" height="3.5"/>
	</g>
	<g class="st54">
		<rect x="239.5" y="98.4" width="38.6" height="1.8"/>
	</g>
	<path class="st50" d="M281.8,124.9h-173c-0.3,0-0.5-0.2-0.5-0.5l0,0c0-0.3,0.2-0.5,0.5-0.5h173.1c0.3,0,0.5,0.2,0.5,0.5l0,0
		C282.4,124.7,282.1,124.9,281.8,124.9z"/>
	<path class="st50" d="M280.8,119.4h-41.6c-0.3,0-0.5-0.2-0.5-0.5l0,0c0-0.3,0.2-0.5,0.5-0.5h41.6c0.3,0,0.5,0.2,0.5,0.5l0,0
		C281.4,119.1,281.1,119.4,280.8,119.4z"/>
	<path class="st50" d="M281.8,148.6H117.2c-0.3,0-0.5-0.2-0.5-0.5l0,0c0-0.3,0.2-0.5,0.5-0.5h164.6c0.3,0,0.5,0.2,0.5,0.5l0,0
		C282.4,148.4,282.1,148.6,281.8,148.6z"/>
	<path class="st50" d="M281.8,146H117.2c-0.3,0-0.5-0.2-0.5-0.5l0,0c0-0.3,0.2-0.5,0.5-0.5h164.6c0.3,0,0.5,0.2,0.5,0.5l0,0
		C282.4,145.7,282.1,146,281.8,146z"/>
</g>
<path class="st12" d="M296.9,193.1H177.2c-6.3,0-11.4-5.1-11.4-11.4l0,0c0-6.3,5.1-11.4,11.4-11.4h119.6c0.7,0,1,0.8,0.7,1.3
	l-1.8,2.5v15.3l1.8,2.4C298,192.3,297.6,193.1,296.9,193.1z"/>
<path class="st55" d="M297.3,191.4c-0.1,0-0.2,0.1-0.3,0.1H177.2c-6,0-10.9-4.7-11.3-10.6c0,0.3,0,0.5,0,0.8l0,0
	c0,6.3,5.1,11.4,11.4,11.4H297c0.7,0,1-0.8,0.6-1.3L297.3,191.4z"/>
<path class="st56" d="M177.2,171.7h119.6c0.2,0,0.3,0,0.4,0.1l0.2-0.3c0.4-0.5,0-1.3-0.7-1.3H177.2c-6.3,0-11.4,5.1-11.4,11.4l0,0
	c0,0.2,0,0.5,0,0.7C166.3,176.4,171.2,171.7,177.2,171.7z"/>
<path class="st3" d="M295.7,189.1H183.4c-3.9,0-7-3.1-7-7v-0.7c0-3.9,3.1-7,7-7h112.3V189.1z"/>
<path class="st41" d="M185.7,187.3c-3.1,0-5.6-2.5-5.6-5.6s2.5-5.6,5.6-5.6h109.9v-1.8h-112c-4.1,0-7.4,3.3-7.4,7.4s3.3,7.4,7.4,7.4
	h112v-1.8L185.7,187.3L185.7,187.3z"/>
<path class="st57" d="M204.3,183.3c26.7,0,53.3,0,80,0c3.8,0,7.6,0,11.4,0v1.2c-26.6,0-53.3,0-79.9,0c-3.8,0-7.7,0-11.5,0
	C203.2,184.4,203.2,183.3,204.3,183.3z"/>
<path class="st41" d="M191.7,180.9c11.7,0,23.4,0,35.2,0c18.7,0,37.4,0,56.1,0c4.3,0,8.5,0,12.8,0v1.2c-11.7,0-23.4,0-35.1,0
	c-18.7,0-37.4,0-56.1,0c-4.3,0-8.6,0-12.9,0C190.6,182.1,190.6,180.9,191.7,180.9z"/>
<path class="st58" d="M187.1,178.4c12.2,0,24.5,0.1,36.7,0.1c19.5,0.1,39,0.1,58.5,0.2c4.5,0,8.9,0,13.4,0v1.2
	c-12.2,0-24.4-0.1-36.6-0.1c-19.5-0.1-39-0.1-58.5-0.2c-4.5,0-9,0-13.5,0C186,179.6,186,178.4,187.1,178.4z"/>
<g>
	<path class="st20" d="M232.7,187.6l-2.8-0.8c-0.2-0.1-0.4-0.1-0.6,0l-2.9,0.8c-0.7,0.2-1.5-0.3-1.5-1.1v-7.9c0-0.6,0.5-1.2,1.2-1.2
		h7c0.6,0,1.2,0.5,1.2,1.2v7.9C234.2,187.2,233.4,187.8,232.7,187.6z"/>
	<g>
		<path class="st59" d="M226.2,177.4H226c-0.6,0-1.2,0.5-1.2,1.2v7.9c0,0.7,0.6,1.3,1.3,1.1L226.2,177.4L226.2,177.4z"/>
		<path class="st55" d="M233,177.4h-0.2v10.2c0.7,0.1,1.3-0.4,1.3-1.1v-7.9C234.2,177.9,233.6,177.4,233,177.4z"/>
	</g>
</g>
</svg>
