<?xml version="1.0" encoding="utf-8"?>
<!-- Generator: Adobe Illustrator 23.0.3, SVG Export Plug-In . SVG Version: 6.00 Build 0)  -->
<svg version="1.1" id="Слой_1" xmlns="http://www.w3.org/2000/svg" xmlns:xlink="http://www.w3.org/1999/xlink" x="0px" y="0px"
	 viewBox="0 0 300 193.1" style="enable-background:new 0 0 300 193.1;" xml:space="preserve">
<style type="text/css">
	.st0{fill:url(#SVGID_1_);}
	.st1{fill:#CFEEC4;}
	.st2{fill:#E8A600;}
	.st3{opacity:0.13;}
	.st4{opacity:0.36;}
	.st5{fill:#FFFFFF;}
	.st6{fill:#FFE9C4;}
	.st7{fill:#FFE4E4;}
	.st8{fill:#D0F7FF;}
	.st9{opacity:6.000000e-02;}
	.st10{opacity:0.51;}
	.st11{opacity:0.3;}
	.st12{fill:#CFEEF8;}
	.st13{fill:#AFBEC0;}
	.st14{fill:#E9A3A4;}
	.st15{opacity:0.1;}
	.st16{fill:#009AD4;}
	.st17{fill:#00B9E9;}
	.st18{opacity:0.32;}
	.st19{clip-path:url(#SVGID_3_);}
	.st20{opacity:0.21;}
	.st21{fill:#FFA9D4;}
	.st22{fill:#F2F2F2;}
	.st23{fill:#FFC300;}
	.st24{fill:#535353;}
	.st25{fill:#90CD76;}
	.st26{fill:#E6D4CB;}
	.st27{opacity:0.44;}
	.st28{opacity:4.000000e-02;}
	.st29{fill:#009BD5;}
	.st30{fill:#D4E3E5;}
	.st31{fill:#E6F2F3;}
	.st32{fill:#B9CCCE;}
	.st33{fill:#FFAAD5;}
	.st34{fill:#AEEAD3;}
	.st35{opacity:0.76;}
	.st36{fill:#C8FFEB;}
	.st37{fill:#9DADAE;}
	.st38{fill:#E3EDED;}
	.st39{fill:#B9CFD1;}
	.st40{fill:#F6F6F6;}
	.st41{fill:#EAEAEA;}
	.st42{fill:#B6D1D3;}
	.st43{fill:#B2C8C9;}
	.st44{fill:#E4FBD9;}
</style>
<linearGradient id="SVGID_1_" gradientUnits="userSpaceOnUse" x1="2578.9321" y1="-1135.714" x2="2578.9321" y2="-1351.614" gradientTransform="matrix(0.8867 0.4623 -0.4623 0.8867 -2685.0627 -12.2318)">
	<stop  offset="4.166280e-03" style="stop-color:#FFFFFF"/>
	<stop  offset="0.6028" style="stop-color:#E9EFF7"/>
</linearGradient>
<path class="st0" d="M181.4,20.1c40.2-5.2,60.9-36.1,100.4-9.3c31.8,21.6,22.3,99.4-32.8,150.2c-31.3,28.8-77.4,35-115.2,15.4
	C80.7,149.1,34.9,92.3,63.9,50.3C97.3,2.2,141.2,25.3,181.4,20.1z"/>
<g>
	<g>
		<g>
			<rect x="164.5" y="17.9" class="st1" width="65.9" height="79"/>
		</g>
		<g>
			<g>
				<ellipse class="st2" cx="198" cy="21.5" rx="2.1" ry="2.1"/>
			</g>
			<g class="st3">
				<g>
					<path d="M199.4,20c0.1,0.2,0.2,0.5,0.2,0.8c0,1.1-0.9,2.1-2.1,2.1c-0.5,0-1-0.2-1.4-0.5c0.3,0.8,1.1,1.3,2,1.3
						c1.2,0,2.1-0.9,2.1-2.1C200.1,20.9,199.8,20.3,199.4,20z"/>
				</g>
			</g>
			<g class="st4">
				
					<ellipse transform="matrix(0.6404 -0.7681 0.7681 0.6404 55.1098 158.9094)" class="st5" cx="197.2" cy="20.6" rx="1" ry="0.5"/>
			</g>
		</g>
	</g>
	<g>
		<path class="st5" d="M199,74.4l-27.3-16.3l52.5-23.3L199,74.4z M172.6,58.2l26.3,15.7l24.4-38.2L172.6,58.2z"/>
	</g>
	<g>
		<path class="st5" d="M177.6,61.4l-0.3-0.2c0.5-1,0.7-2,0.7-3c0-0.8-0.2-1.6-0.4-2.4l0.3-0.1c0.3,0.8,0.5,1.7,0.5,2.5
			C178.3,59.3,178.1,60.4,177.6,61.4z"/>
	</g>
	<g>
		<path class="st5" d="M218.7,43c-1-0.4-2-1-2.7-1.8c-0.6-0.6-1.1-1.4-1.4-2.1l0.3-0.1c0.3,0.8,0.8,1.4,1.3,2
			c0.7,0.8,1.6,1.4,2.6,1.7L218.7,43z"/>
	</g>
	<g>
		<path class="st5" d="M195.7,70.4c-5.9,0-10.7-4.8-10.7-10.7S189.8,49,195.7,49s10.7,4.8,10.7,10.7S201.5,70.4,195.7,70.4z
			 M195.7,49.4c-5.7,0-10.3,4.6-10.3,10.3c0,5.7,4.6,10.3,10.3,10.3S206,65.4,206,59.7S201.3,49.4,195.7,49.4z"/>
	</g>
	<g>
		<g>
			
				<rect x="189.7" y="68.3" transform="matrix(0.5405 -0.8413 0.8413 0.5405 29.6955 191.3329)" class="st5" width="0.6" height="0.3"/>
		</g>
		<g>
			<path class="st5" d="M190.8,67.4l-0.2-0.1l0.6-0.9l0.2,0.1L190.8,67.4z M191.9,65.7l-0.2-0.1l0.6-0.9l0.2,0.1L191.9,65.7z
				 M193,64l-0.2-0.1l0.6-0.9l0.2,0.1L193,64z M194.1,62.3l-0.2-0.1l0.6-0.9l0.2,0.1L194.1,62.3z"/>
		</g>
		<g>
			<polygon class="st5" points="195.2,60.5 195,60.4 195.3,59.8 195.9,60.2 195.8,60.4 195.4,60.2 			"/>
		</g>
		<g>
			<path class="st5" d="M203,64.8l-0.9-0.5l0.2-0.2l0.9,0.5L203,64.8z M201.2,63.7l-0.9-0.5l0.2-0.2l0.9,0.5L201.2,63.7z
				 M199.4,62.6l-0.9-0.5l0.2-0.2l0.9,0.5L199.4,62.6z M197.6,61.5l-0.9-0.5l0.2-0.2l0.9,0.5L197.6,61.5z"/>
		</g>
		<g>
			<rect x="204" y="65.1" transform="matrix(0.525 -0.8511 0.8511 0.525 41.2822 204.8197)" class="st5" width="0.3" height="0.6"/>
		</g>
	</g>
	<g>
		<path class="st5" d="M185.8,73.1l-0.2-0.5l0,0c-0.2,0.2-0.3,0.4-0.5,0.4c-0.2,0.1-0.4,0.1-0.7,0.1s-0.6-0.1-0.8-0.3
			c-0.2-0.2-0.3-0.4-0.3-0.8s0.1-0.6,0.4-0.8s0.7-0.3,1.2-0.3h0.6v-0.2c0-0.2-0.1-0.4-0.2-0.5c-0.1-0.1-0.3-0.2-0.5-0.2
			s-0.3,0-0.5,0.1s-0.3,0.1-0.5,0.2l-0.2-0.5c0.2-0.1,0.4-0.2,0.6-0.2c0.2,0,0.4-0.1,0.6-0.1c0.4,0,0.8,0.1,1,0.3
			c0.2,0.2,0.3,0.5,0.3,0.9V73L185.8,73.1L185.8,73.1z M184.7,72.6c0.3,0,0.5-0.1,0.6-0.2s0.2-0.4,0.2-0.6v-0.3h-0.4
			c-0.3,0-0.6,0.1-0.8,0.2s-0.2,0.3-0.2,0.5c0,0.1,0.1,0.3,0.1,0.4C184.4,72.6,184.6,72.6,184.7,72.6z"/>
	</g>
	<g>
		<path class="st5" d="M184,83.6l-0.2-0.5l0,0c-0.2,0.2-0.3,0.4-0.5,0.4c-0.2,0.1-0.4,0.1-0.7,0.1s-0.6-0.1-0.8-0.3
			c-0.2-0.2-0.3-0.4-0.3-0.8s0.1-0.6,0.4-0.8s0.7-0.3,1.2-0.3h0.6v-0.2c0-0.2-0.1-0.4-0.2-0.5c-0.1-0.1-0.3-0.2-0.5-0.2
			s-0.3,0-0.5,0.1s-0.3,0.1-0.5,0.2l-0.2-0.5c0.2-0.1,0.4-0.2,0.6-0.2c0.2,0,0.4-0.1,0.6-0.1c0.4,0,0.8,0.1,1,0.3
			c0.2,0.2,0.3,0.5,0.3,0.9v2.3L184,83.6L184,83.6z M182.9,83.1c0.3,0,0.5-0.1,0.6-0.2s0.2-0.4,0.2-0.6V82h-0.4
			c-0.3,0-0.6,0.1-0.8,0.2s-0.2,0.3-0.2,0.5c0,0.1,0.1,0.3,0.1,0.4C182.5,83.1,182.7,83.1,182.9,83.1z"/>
		<path class="st5" d="M186.5,81.6h-1.3V81h1.3v-1.3h0.6V81h1.3v0.6h-1.3v1.3h-0.6V81.6z"/>
		<path class="st5" d="M190.9,80.1c0.4,0,0.8,0.2,1,0.5s0.4,0.8,0.4,1.3s-0.1,1-0.4,1.3c-0.2,0.3-0.6,0.5-1,0.5s-0.8-0.2-1-0.5h-0.1
			l-0.1,0.4h-0.6v-4.9h0.7v1.2c0,0.1,0,0.2,0,0.4s0,0.3,0,0.3l0,0C190.1,80.3,190.5,80.1,190.9,80.1z M190.7,80.7
			c-0.3,0-0.5,0.1-0.6,0.3s-0.2,0.5-0.2,0.9l0,0c0,0.4,0.1,0.7,0.2,0.9s0.3,0.3,0.7,0.3c0.3,0,0.5-0.1,0.6-0.3s0.2-0.5,0.2-0.9
			C191.6,81.1,191.3,80.7,190.7,80.7z"/>
		<path class="st5" d="M193,81v-0.6h3V81H193z M193,82.3v-0.6h3v0.6H193z"/>
		<path class="st5" d="M198.2,83.7c-0.5,0-0.9-0.1-1.2-0.5c-0.3-0.3-0.4-0.7-0.4-1.3c0-0.6,0.1-1,0.4-1.3s0.7-0.5,1.2-0.5
			c0.4,0,0.7,0.1,1,0.2l-0.2,0.6c-0.3-0.1-0.6-0.2-0.8-0.2c-0.6,0-0.9,0.4-0.9,1.2c0,0.4,0.1,0.7,0.2,0.9s0.4,0.3,0.7,0.3
			s0.6-0.1,0.9-0.2v0.6c-0.1,0.1-0.3,0.1-0.4,0.2C198.6,83.7,198.4,83.7,198.2,83.7z"/>
	</g>
	<g>
		<path class="st5" d="M214.3,56.5c0.4,0,0.8,0.2,1,0.5s0.4,0.8,0.4,1.3s-0.1,1-0.4,1.3c-0.2,0.3-0.6,0.5-1,0.5
			c-0.4,0-0.8-0.2-1-0.5h-0.1l-0.1,0.4h-0.6v-4.9h0.7v1.2c0,0.1,0,0.2,0,0.4s0,0.3,0,0.3l0,0C213.5,56.6,213.9,56.5,214.3,56.5z
			 M214.1,57.1c-0.3,0-0.5,0.1-0.6,0.3c-0.1,0.2-0.2,0.5-0.2,0.9l0,0c0,0.4,0.1,0.7,0.2,0.9c0.1,0.2,0.3,0.3,0.7,0.3
			c0.3,0,0.5-0.1,0.6-0.3c0.1-0.2,0.2-0.5,0.2-0.9C215,57.5,214.7,57.1,214.1,57.1z"/>
	</g>
	<g>
		<path class="st5" d="M193.7,45.5c-0.5,0-0.9-0.1-1.2-0.5c-0.3-0.3-0.4-0.7-0.4-1.3c0-0.6,0.1-1,0.4-1.3s0.7-0.5,1.2-0.5
			c0.4,0,0.7,0.1,1,0.2l-0.2,0.6c-0.3-0.1-0.6-0.2-0.8-0.2c-0.6,0-0.9,0.4-0.9,1.2c0,0.4,0.1,0.7,0.2,0.9s0.4,0.3,0.7,0.3
			s0.6-0.1,0.9-0.2v0.6c-0.1,0.1-0.3,0.1-0.4,0.2C194.1,45.5,193.9,45.5,193.7,45.5z"/>
	</g>
	<g>
		<path class="st5" d="M185.4,80.2h-0.8V80l0.3-0.3c0.1-0.1,0.2-0.2,0.2-0.2l0.1-0.1v-0.1c0,0,0-0.1-0.1-0.1s-0.1,0-0.1,0
			c-0.1,0-0.1,0-0.1,0s-0.1,0-0.2,0.1l-0.1-0.1c0.1-0.1,0.1-0.1,0.2-0.1c0.1,0,0.1,0,0.2,0c0.1,0,0.2,0,0.3,0.1s0.1,0.1,0.1,0.2
			c0,0,0,0.1,0,0.2l-0.1,0.1c0,0-0.1,0.1-0.2,0.2l-0.2,0.2l0,0L185.4,80.2L185.4,80.2L185.4,80.2z"/>
	</g>
	<g>
		<path class="st5" d="M192.9,80.2h-0.8V80l0.3-0.3c0.1-0.1,0.2-0.2,0.2-0.2l0.1-0.1v-0.1c0,0,0-0.1-0.1-0.1s-0.1,0-0.1,0
			c-0.1,0-0.1,0-0.1,0s-0.1,0-0.2,0.1l-0.1-0.1c0.1-0.1,0.1-0.1,0.2-0.1s0.1,0,0.2,0c0.1,0,0.2,0,0.3,0.1s0.1,0.1,0.1,0.2
			c0,0,0,0.1,0,0.2l-0.1,0.1c0,0-0.1,0.1-0.2,0.2l-0.2,0.2l0,0L192.9,80.2L192.9,80.2L192.9,80.2z"/>
	</g>
	<g>
		<path class="st5" d="M200.2,80.2h-0.8V80l0.3-0.3c0.1-0.1,0.2-0.2,0.2-0.2l0.1-0.1v-0.1c0,0,0-0.1-0.1-0.1s-0.1,0-0.1,0
			c-0.1,0-0.1,0-0.1,0s-0.1,0-0.2,0.1l-0.1-0.1c0.1-0.1,0.1-0.1,0.2-0.1c0.1,0,0.1,0,0.2,0c0.1,0,0.2,0,0.3,0.1s0.1,0.1,0.1,0.2
			c0,0,0,0.1,0,0.2l-0.1,0.1c0,0-0.1,0.1-0.2,0.2l-0.2,0.2l0,0L200.2,80.2L200.2,80.2L200.2,80.2z"/>
	</g>
</g>
<g>
	<g>
		<path class="st6" d="M134.4,68.6c33.3,0,60.3,27,60.3,60.3s-27,60.3-60.3,60.3V68.6L134.4,68.6z"/>
	</g>
	<g>
		<path class="st7" d="M134.4,131.6L87.3,91.3c-8.2,10.3-13.1,23.3-13.1,37.5c0,10.1,2.5,19.6,6.9,28L134.4,131.6z"/>
	</g>
	<g>
		<path class="st8" d="M134.4,189.1v-57.4l-0.1-0.1L81,156.8C91.1,176,111.2,189.1,134.4,189.1z"/>
	</g>
</g>
<g class="st9">
	<g>
		<path d="M134.3,68.6v4.1c29.3,0.9,52.8,24.9,52.8,54.4s-23.5,53.6-52.9,54.4v-49.9l-5,49.8c-18.6-1.2-34.6-11.7-43.5-26.9l48.5-23
			L83,149.2c-3-6.8-4.7-14.3-4.7-22.3c0-12.6,4.3-24.3,11.6-33.5l-2.7-2.3c-8.2,10.3-13.1,23.3-13.1,37.5c0,10.1,2.5,19.6,6.9,28
			h-0.1c10.1,19.2,30.2,32.3,53.3,32.3l0,0l0,0l0,0l0,0c33.3,0,60.2-27,60.2-60.3C194.6,95.6,167.6,68.6,134.3,68.6z"/>
	</g>
</g>
<g class="st10">
	<g>
		<polygon class="st5" points="134.3,131.6 86.3,98.6 89.9,93.6 		"/>
	</g>
</g>
<g class="st10">
	<g>
		<polygon class="st5" points="134.3,131.6 89.2,160 85.7,154.6 		"/>
	</g>
</g>
<g class="st11">
	<g>
		<polygon class="st5" points="134.3,131.6 134.3,72.7 142.6,73.6 		"/>
	</g>
</g>
<g>
	<g>
		<rect x="223.6" y="49.2" class="st12" width="72.5" height="86.8"/>
	</g>
	<g>
		<g>
			<ellipse class="st2" cx="260.3" cy="53.2" rx="2.3" ry="2.3"/>
		</g>
		<g class="st3">
			<g>
				<path d="M261.9,51.5c0.1,0.3,0.2,0.5,0.2,0.8c0,1.3-1,2.3-2.3,2.3c-0.6,0-1.1-0.2-1.5-0.6c0.3,0.9,1.2,1.5,2.2,1.5
					c1.3,0,2.3-1,2.3-2.3C262.7,52.6,262.3,51.9,261.9,51.5z"/>
			</g>
		</g>
		<g class="st4">
			<ellipse transform="matrix(0.6404 -0.7681 0.7681 0.6404 53.196 218.184)" class="st5" cx="259.6" cy="52.3" rx="1.1" ry="0.6"/>
		</g>
	</g>
	<g>
		<g>
			<g>
				<rect x="258" y="70.4" class="st13" width="0.4" height="52.9"/>
			</g>
			<g>
				<path class="st13" d="M259.3,71.4h-2.1c-0.1,0-0.2-0.1-0.1-0.2l1.1-1.4c0.1-0.1,0.2-0.1,0.2,0l1.1,1.4
					C259.4,71.3,259.4,71.4,259.3,71.4z"/>
			</g>
			<g>
				<path class="st13" d="M258.6,123.5h-0.8c-0.2,0-0.4-0.2-0.4-0.4l0,0c0-0.2,0.2-0.4,0.4-0.4h0.8c0.2,0,0.4,0.2,0.4,0.4l0,0
					C259,123.3,258.9,123.5,258.6,123.5z"/>
			</g>
			<g>
				<path class="st13" d="M258.6,116.7h-0.8c-0.2,0-0.4-0.2-0.4-0.4l0,0c0-0.2,0.2-0.4,0.4-0.4h0.8c0.2,0,0.4,0.2,0.4,0.4l0,0
					C259,116.5,258.9,116.7,258.6,116.7z"/>
			</g>
			<g>
				<path class="st13" d="M258.6,110.2h-0.8c-0.2,0-0.4-0.2-0.4-0.4l0,0c0-0.2,0.2-0.4,0.4-0.4h0.8c0.2,0,0.4,0.2,0.4,0.4l0,0
					C259,110,258.9,110.2,258.6,110.2z"/>
			</g>
			<g>
				<path class="st13" d="M258.6,103.4h-0.8c-0.2,0-0.4-0.2-0.4-0.4l0,0c0-0.2,0.2-0.4,0.4-0.4h0.8c0.2,0,0.4,0.2,0.4,0.4l0,0
					C259,103.2,258.9,103.4,258.6,103.4z"/>
			</g>
			<g>
				<path class="st13" d="M258.6,89.9h-0.8c-0.2,0-0.4-0.2-0.4-0.4l0,0c0-0.2,0.2-0.4,0.4-0.4h0.8c0.2,0,0.4,0.2,0.4,0.4l0,0
					C259,89.7,258.9,89.9,258.6,89.9z"/>
			</g>
			<g>
				<path class="st13" d="M258.6,83.5h-0.8c-0.2,0-0.4-0.2-0.4-0.4l0,0c0-0.2,0.2-0.4,0.4-0.4h0.8c0.2,0,0.4,0.2,0.4,0.4l0,0
					C259,83.3,258.9,83.5,258.6,83.5z"/>
			</g>
			<g>
				<path class="st13" d="M258.6,76.7h-0.8c-0.2,0-0.4-0.2-0.4-0.4l0,0c0-0.2,0.2-0.4,0.4-0.4h0.8c0.2,0,0.4,0.2,0.4,0.4l0,0
					C259,76.5,258.9,76.7,258.6,76.7z"/>
			</g>
		</g>
		<g>
			<g>
				<rect x="231.5" y="96.4" class="st13" width="52.9" height="0.4"/>
			</g>
			<g>
				<path class="st13" d="M283.4,95.6v2.1c0,0.1,0.1,0.2,0.2,0.1l1.4-1.1c0.1,0,0.1-0.2,0-0.2l-1.4-1.1
					C283.5,95.4,283.4,95.5,283.4,95.6z"/>
			</g>
			<g>
				<path class="st13" d="M231.4,96.2v0.9c0,0.2,0.2,0.4,0.4,0.4l0,0c0.2,0,0.4-0.2,0.4-0.4v-0.9c0-0.2-0.2-0.4-0.4-0.4l0,0
					C231.5,95.8,231.4,96,231.4,96.2z"/>
			</g>
			<g>
				<path class="st13" d="M238.1,96.2v0.9c0,0.2,0.2,0.4,0.4,0.4l0,0c0.2,0,0.4-0.2,0.4-0.4v-0.9c0-0.2-0.2-0.4-0.4-0.4l0,0
					C238.3,95.8,238.1,96,238.1,96.2z"/>
			</g>
			<g>
				<path class="st13" d="M244.7,96.2v0.9c0,0.2,0.2,0.4,0.4,0.4l0,0c0.2,0,0.4-0.2,0.4-0.4v-0.9c0-0.2-0.2-0.4-0.4-0.4l0,0
					C244.9,95.8,244.7,96,244.7,96.2z"/>
			</g>
			<g>
				<path class="st13" d="M251.4,96.2v0.9c0,0.2,0.2,0.4,0.4,0.4l0,0c0.2,0,0.4-0.2,0.4-0.4v-0.9c0-0.2-0.2-0.4-0.4-0.4l0,0
					C251.6,95.8,251.4,96,251.4,96.2z"/>
			</g>
			<g>
				<path class="st13" d="M264.9,96.2v0.9c0,0.2,0.2,0.4,0.4,0.4l0,0c0.2,0,0.4-0.2,0.4-0.4v-0.9c0-0.2-0.2-0.4-0.4-0.4l0,0
					C265.1,95.8,264.9,96,264.9,96.2z"/>
			</g>
			<g>
				<path class="st13" d="M271.4,96.2v0.9c0,0.2,0.2,0.4,0.4,0.4l0,0c0.2,0,0.4-0.2,0.4-0.4v-0.9c0-0.2-0.2-0.4-0.4-0.4l0,0
					C271.6,95.8,271.4,96,271.4,96.2z"/>
			</g>
			<g>
				<path class="st13" d="M278.1,96.2v0.9c0,0.2,0.2,0.4,0.4,0.4l0,0c0.2,0,0.4-0.2,0.4-0.4v-0.9c0-0.2-0.2-0.4-0.4-0.4l0,0
					C278.3,95.8,278.1,96,278.1,96.2z"/>
			</g>
		</g>
		<g>
			<path class="st13" d="M283.8,83.7h-0.5v-0.1l0.2-0.2c0.1-0.1,0.1-0.1,0.1-0.1s0,0,0-0.1c0,0,0,0,0-0.1s0-0.1,0-0.1h-0.1h-0.1
				c0,0-0.1,0-0.1,0.1l-0.1-0.1l0.1-0.1h0.1c0.1,0,0.1,0,0.2,0l0.1,0.1v0.1c0,0,0,0.1-0.1,0.1c-0.1,0-0.1,0.1-0.1,0.1l-0.1,0.1l0,0
				L283.8,83.7L283.8,83.7z"/>
		</g>
		<g>
			<g>
				<path class="st14" d="M270.5,70.6c-0.2,2.8-0.7,5.5-1.3,8.2c-1,4.6-2.3,9.6-5.1,13.5c-2.8,3.8-7.3,4.9-10.8,1.3
					c-3.3-3.4-4.9-8.5-6-13c-0.8-3.3-1.5-6.6-1.8-10c0-0.4-0.6-0.4-0.6,0c0.3,3.1,0.9,6.1,1.6,9.1c1.2,4.8,2.7,10.1,6,13.9
					c2.7,3,6.8,3.9,10,1.2c3.7-3.1,5.4-8.5,6.5-13c0.9-3.6,1.6-7.4,1.9-11.2C271.1,70.2,270.5,70.2,270.5,70.6L270.5,70.6z"/>
			</g>
		</g>
		<g>
			<circle class="st14" cx="258.2" cy="96.2" r="1.2"/>
		</g>
		<g>
			<circle class="st14" cx="266.4" cy="89.5" r="1.2"/>
		</g>
		<g>
			<circle class="st14" cx="250.2" cy="89.5" r="1.2"/>
		</g>
		<g>
			<circle class="st14" cx="270" cy="76.3" r="1.2"/>
		</g>
		<g>
			<circle class="st14" cx="246.1" cy="76.3" r="1.2"/>
		</g>
		<g>
			<path class="st13" d="M273.7,84.2h-0.5V86h-0.5v-1.8h-0.3V84l0.3-0.1v-0.1c0-0.3,0.1-0.4,0.2-0.6s0.3-0.2,0.5-0.2s0.3,0,0.5,0.1
				l-0.1,0.3c-0.1,0-0.2,0-0.3,0s-0.2,0-0.2,0.1c-0.1,0.1-0.1,0.2-0.1,0.3v0.1h0.5V84.2L273.7,84.2z"/>
			<path class="st13" d="M273.9,84.9c0-0.3,0.1-0.7,0.2-1c0.1-0.3,0.2-0.6,0.4-0.8h0.4c-0.2,0.2-0.3,0.5-0.4,0.8s-0.1,0.6-0.1,0.9
				s0.1,0.6,0.1,0.9c0.1,0.3,0.2,0.6,0.4,0.8h-0.4c-0.2-0.2-0.3-0.5-0.4-0.8C274,85.6,273.9,85.2,273.9,84.9z"/>
			<path class="st13" d="M275.8,84.9l-0.7-1h0.5l0.5,0.8l0.5-0.8h0.5l-0.7,1l0.8,1.1h-0.5l-0.5-0.8l-0.6,0.8h-0.5L275.8,84.9z"/>
			<path class="st13" d="M278.3,84.9c0,0.3-0.1,0.7-0.2,1c-0.1,0.3-0.2,0.5-0.4,0.8h-0.4c0.2-0.2,0.3-0.5,0.4-0.8s0.1-0.6,0.1-0.9
				s-0.1-0.6-0.1-0.9c-0.1-0.3-0.2-0.6-0.4-0.8h0.4c0.2,0.2,0.3,0.5,0.4,0.8C278.3,84.2,278.3,84.6,278.3,84.9z"/>
			<path class="st13" d="M278.7,84.4V84h1.9v0.4H278.7z M278.7,85.2v-0.3h1.9v0.3H278.7z"/>
			<path class="st13" d="M281.5,84.9l-0.7-1h0.5l0.5,0.8l0.5-0.8h0.5l-0.7,1l0.8,1.1h-0.5l-0.5-0.8l-0.5,0.8h-0.5L281.5,84.9z"/>
		</g>
	</g>
</g>
<g class="st15">
	<rect x="223.4" y="49.2" class="st13" width="14.7" height="51.8"/>
</g>
<g>
	<g>
		<g>
			<g>
				<polygon class="st16" points="45,148 50.4,148.1 51.1,101.1 45.8,101 				"/>
			</g>
			<g class="st15">
				<g>
					<path d="M49.3,147.6c0.2-0.2,0.4-0.3,0.7-0.3c0.2,0,0.3,0.1,0.4,0.2l0.8-48.4h-1.4L49.3,147.6z"/>
				</g>
			</g>
			<g>
				<polygon class="st17" points="50.4,148.1 45,148 47.6,157.9 				"/>
			</g>
			<g class="st18">
				<path class="st5" d="M47.6,157.9l0.2-0.6l-1.6-9.3v-0.1l0.9-48.7h-1.3L45,147.6l0,0v0.6l0,0L47.6,157.9z"/>
			</g>
			<g class="st15">
				<g>
					<path d="M49.3,147.6l-2,9.2l0.3,1l2.9-9.7v-0.5c-0.1-0.1-0.3-0.2-0.4-0.2C49.7,147.3,49.5,147.4,49.3,147.6z"/>
				</g>
			</g>
		</g>
		<g>
			<g>
				<polygon class="st16" points="12,128.1 15.2,132.4 53,104.4 49.8,100.1 				"/>
			</g>
			<g class="st15">
				<g>
					<path d="M14.9,131.3c0.3,0,0.5,0.1,0.6,0.4c0.1,0.1,0.1,0.3,0.1,0.5l38.8-28.8l-0.8-1.1L14.9,131.3z"/>
				</g>
			</g>
			<g>
				<polygon class="st17" points="15.2,132.4 12,128.1 5.8,136.1 				"/>
			</g>
			<g class="st18">
				<path class="st5" d="M5.8,136.1l0.6-0.2l6.5-6.9c0,0,0-0.1,0.1-0.1L52.2,100l-0.8-1l-38.8,28.8l0,0l-0.5,0.4l0,0L5.8,136.1z"/>
			</g>
			<g class="st15">
				<g>
					<path d="M14.9,131.3l-8.5,4l-0.7,0.9l9.5-3.6l0.4-0.3c0-0.2,0-0.3-0.1-0.5C15.4,131.4,15.2,131.3,14.9,131.3z"/>
				</g>
			</g>
		</g>
	</g>
	<g>
		<g>
			<g>
				<defs>
					
						<rect id="SVGID_2_" x="40.4" y="83.4" transform="matrix(0.5778 -0.8162 0.8162 0.5778 -54.5365 84.4477)" width="27.9" height="23"/>
				</defs>
				<clipPath id="SVGID_3_">
					<use xlink:href="#SVGID_2_"  style="overflow:visible;"/>
				</clipPath>
				<g class="st19">
					<g>
						<polygon class="st16" points="37.9,114.1 43.2,117.9 70.4,79.5 65.1,75.8 						"/>
					</g>
					<g class="st15">
						<g>
							<path d="M42.4,116.7c0.3,0,0.6,0,0.8,0.3c0.2,0.1,0.3,0.3,0.3,0.5l28-39.4l-1.3-1L42.4,116.7z"/>
						</g>
					</g>
					<g>
						<polygon class="st17" points="43.2,117.9 37.9,114.1 34.9,124 						"/>
					</g>
					<g class="st18">
						<path class="st5" d="M34.9,124l0.5-0.4l3.7-8.8v-0.1l28.4-39.6l-1.3-0.9l-28,39.4l0,0l-0.4,0.5l0,0L34.9,124z"/>
					</g>
					<g class="st15">
						<g>
							<path d="M42.4,116.7l-7.2,6.2l-0.3,1l8.3-6.1l0.3-0.4c0-0.2-0.1-0.3-0.3-0.5C43,116.8,42.7,116.7,42.4,116.7z"/>
						</g>
					</g>
				</g>
			</g>
		</g>
	</g>
	<g>
		<g>
			<path class="st17" d="M64.4,92.9l-10.2-7.1c-0.3-0.2-0.4-0.7-0.2-1l4.4-6.3c0.3-0.4,0.9-0.5,1.3-0.2l9.8,6.8
				c0.4,0.3,0.5,0.9,0.2,1.3l-4.4,6.3C65.1,93,64.7,93.1,64.4,92.9z"/>
		</g>
		<g class="st15">
			<g>
				<path d="M55.3,84.1l10.3,7.2c0.3,0.2,0.4,0.6,0.2,0.9l-0.4,0.5c-0.2,0.3-0.6,0.4-0.9,0.2l-10.3-7.2c-0.3-0.2-0.4-0.6-0.2-0.9
					l0.4-0.5C54.6,83.9,55,83.9,55.3,84.1z"/>
			</g>
		</g>
		<g class="st18">
			<path class="st5" d="M59.7,78.3l9.7,6.8c0.5,0.3,0.6,0.9,0.3,1.4l0,0c-0.3,0.5-0.9,0.6-1.4,0.3L58.6,80c-0.5-0.3-0.6-0.9-0.3-1.4
				l0,0C58.7,78.1,59.3,78,59.7,78.3z"/>
		</g>
	</g>
	<g>
		<g>
			<circle class="st17" cx="50.5" cy="101.9" r="11.3"/>
		</g>
		<g>
			<circle class="st16" cx="50.5" cy="101.9" r="5.7"/>
		</g>
	</g>
	<g class="st18">
		<path class="st5" d="M40.6,97.8c3.1-5.4,10-7.3,15.5-4.1c3.6,2.1,5.7,5.9,5.7,9.9c0.6-4.4-1.4-9-5.5-11.3
			C50.9,89.2,44,91,40.8,96.4c-1,1.8-1.5,3.7-1.5,5.6C39.4,100.5,39.8,99.1,40.6,97.8z"/>
	</g>
	<g class="st20">
		<path class="st5" d="M45.4,100.2c1.6-2.7,5-3.6,7.7-2.1c2,1.1,3,3.4,2.8,5.5c0.8-2.5-0.2-5.3-2.5-6.6c-2.7-1.6-6.2-0.6-7.7,2.1
			c-0.4,0.7-0.6,1.5-0.7,2.2C45,100.9,45.2,100.6,45.4,100.2z"/>
	</g>
	<g class="st15">
		<g>
			<path d="M55.2,105.1c-1.8,1.8-4.6,2.3-6.9,1c-2.7-1.6-3.6-5-2.1-7.7c0.1-0.1,0.1-0.2,0.2-0.3c-0.3,0.3-0.6,0.7-0.8,1.1
				c-1.6,2.7-0.6,6.2,2.1,7.7C50.3,108.3,53.5,107.5,55.2,105.1z"/>
		</g>
	</g>
	<g>
		<g>
			<g>
				<path class="st16" d="M29.8,113.8c-1.3-4.3-0.8-9.1,1.6-13.3l2.1,1.2c-4,6.9-1.6,15.8,5.3,19.8s15.8,1.6,19.8-5.3l2.1,1.2
					c-4.7,8.1-15.1,10.9-23.2,6.2C33.7,121.4,31,117.8,29.8,113.8z"/>
			</g>
		</g>
		<g class="st18">
			<g>
				<path class="st5" d="M46,123.9c-2.6,0-5.2-0.7-7.5-2c-3.4-2-5.9-5.2-6.9-9c-1-3.8-0.5-7.8,1.5-11.3l0.3,0.2
					c-1.9,3.3-2.4,7.2-1.4,11c1,3.7,3.4,6.9,6.7,8.8c3.3,1.9,7.3,2.5,11.1,1.5c3.8-1,7-3.4,8.9-6.7l0.3,0.2c-2,3.4-5.2,5.9-9.2,6.9
					C48.5,123.7,47.2,123.9,46,123.9z"/>
			</g>
		</g>
		<g class="st15">
			<g>
				<path d="M46.1,126.1c-3,0-5.9-0.8-8.5-2.3c-3.8-2.2-6.5-5.8-7.8-10c-1.3-4.5-0.8-9.3,1.5-13.3l0.3,0.2c-2.3,4-2.8,8.6-1.5,13
					c1.2,4.1,3.9,7.6,7.6,9.8c3.8,2.2,8.3,2.9,12.5,1.7c4.3-1.1,7.8-3.9,10-7.7l0.3,0.2c-2.2,3.9-5.9,6.7-10.2,7.9
					C49,125.9,47.6,126.1,46.1,126.1z"/>
			</g>
		</g>
	</g>
	<g class="st15">
		<g>
			<path d="M60.1,107.8c-3.5,4.1-9.5,5.3-14.3,2.5c-5.4-3.1-7.3-10-4.1-15.5c0-0.1,0.1-0.1,0.1-0.2c-0.4,0.5-0.8,1.1-1.2,1.7
				c-3.1,5.4-1.3,12.3,4.1,15.5C50.1,114.8,56.9,113.1,60.1,107.8z"/>
		</g>
	</g>
</g>
<g>
	<g>
		<path class="st21" d="M59.3,155.8L59.3,155.8c-1-0.1-1.7-1-1.6-2l0.4-3.7c0.1-1,1-1.7,2-1.6l0,0c1,0.1,1.7,1,1.6,2l-0.4,3.7
			C61.1,155.2,60.2,155.9,59.3,155.8z"/>
	</g>
	<g class="st15">
		<g>
			<path d="M59,148.6c0-0.1,0-0.1,0-0.2h-0.1c-0.3,0-0.7,0.2-0.7,0.6l-0.7,6c0,0.4,0.2,0.7,0.6,0.7h0.1L59,148.6z"/>
		</g>
	</g>
	<g class="st18">
		<path class="st5" d="M61,148.8c0-0.1,0-0.1,0-0.2h0.1c0.3,0,0.6,0.4,0.6,0.7l-0.6,6c0,0.4-0.3,0.6-0.7,0.6h-0.1L61,148.8z"/>
	</g>
	<g>
		<polygon class="st2" points="66.6,110.4 61.9,109.9 57.4,150.7 62.1,151.2 		"/>
	</g>
	<g>
		<polygon class="st22" points="61.9,152.9 57.2,152.3 57.8,147.8 62.5,148.4 		"/>
	</g>
	<g class="st15">
		<g>
			<path d="M62.8,110.4c-0.2,0.1-0.4,0.2-0.6,0.2c-0.1,0-0.3-0.1-0.3-0.2l-4.6,41.9l1.2,0.2L62.8,110.4z"/>
		</g>
	</g>
	<g class="st18">
		<path class="st5" d="M66.6,110.5c-0.2,0.1-0.4,0.2-0.6,0.2c-0.1,0-0.3-0.1-0.3-0.2l-4.8,42.3l1.1,0.1L66.6,110.5z"/>
	</g>
	<g>
		<polygon class="st23" points="61.9,109.9 66.6,110.4 65.2,101.7 		"/>
	</g>
	<g>
		<path class="st23" d="M66.6,110.4l-0.1-0.6h-0.1c-0.3-0.1-0.7,0.1-0.8,0.5c0-0.3-0.2-0.5-0.5-0.6s-0.7,0.1-0.8,0.5l0,0
			c0-0.3-0.2-0.5-0.5-0.6c-0.3-0.1-0.7,0.1-0.8,0.4c0-0.3-0.2-0.5-0.5-0.6c-0.1,0-0.3,0-0.4,0l-0.2,0.6v0.4c0.1,0.1,0.2,0.2,0.3,0.2
			c0.3,0.1,0.7-0.1,0.8-0.4c0,0.3,0.2,0.5,0.5,0.6s0.7-0.1,0.8-0.5l0,0c0,0.3,0.2,0.5,0.5,0.6s0.7-0.1,0.8-0.5
			c0,0.3,0.2,0.5,0.5,0.6c0.2,0,0.3,0,0.5-0.1L66.6,110.4z"/>
	</g>
	<g class="st18">
		<path class="st5" d="M66.6,110.4L66.6,110.4l-1.4-8.8l-0.2,0.5l0.6,8.2c0,0.3,0.2,0.5,0.5,0.6c0.2,0,0.3,0,0.5-0.1V110.4z"/>
	</g>
	<g class="st15">
		<g>
			<path d="M62.8,110.4l2.5-7.8l-0.2-0.9l-3.3,8.2v0.4c0.1,0.1,0.2,0.2,0.3,0.2C62.4,110.7,62.6,110.6,62.8,110.4z"/>
		</g>
	</g>
	<g>
		<path class="st24" d="M65.3,100.2c0,0.3,0,0.6,0.1,1c0,0.3,0,0.6,0,1c0,0.3,0.1,0.6,0,1s-0.2,0.6-0.4,0.9h-0.1
			c-0.2-0.3-0.2-0.6-0.3-1c0-0.3,0.1-0.6,0.2-0.9s0.1-0.6,0.2-0.9C65.1,100.8,65.1,100.5,65.3,100.2L65.3,100.2z"/>
	</g>
</g>
<g>
	<g>
		<path class="st21" d="M138.2,187.2l-0.8,2.3c-0.1,0.4-0.5,0.5-0.8,0.4l-6-2c-0.3-0.1-0.5-0.5-0.4-0.9l0.8-2.3
			c0.1-0.4,0.5-0.5,0.8-0.4l6,2C138.1,186.5,138.3,186.8,138.2,187.2z"/>
	</g>
	<g class="st15">
		<g>
			<path d="M130.3,187c-0.1,0-0.1,0-0.2-0.1v0.1c-0.1,0.4,0.1,0.7,0.4,0.9l6,2c0.4,0.1,0.7-0.1,0.9-0.4v-0.1L130.3,187z"/>
		</g>
	</g>
	<g class="st18">
		<path class="st5" d="M131,185c-0.1,0-0.1,0-0.2,0v-0.1c0.1-0.4,0.5-0.5,0.8-0.4l6,1.9c0.4,0.1,0.5,0.5,0.4,0.9v0.1L131,185z"/>
	</g>
	<g>
		<polygon class="st16" points="92.7,170.7 91.2,175.4 132.1,189.1 133.7,184.4 		"/>
	</g>
	<g>
		<polygon class="st22" points="135.4,184.9 133.7,189.7 129.2,188.1 130.9,183.4 		"/>
	</g>
	<g class="st15">
		<g>
			<path d="M91.9,174.6c0.1,0.2,0.2,0.5,0,0.7c-0.1,0.1-0.2,0.2-0.3,0.3l42.1,14.1l0.4-1.2L91.9,174.6z"/>
		</g>
	</g>
	<g class="st18">
		<path class="st5" d="M92.8,170.7c0.1,0.2,0.2,0.5,0,0.7c-0.1,0.1-0.2,0.2-0.3,0.3l42.5,14.4l0.4-1.1L92.8,170.7z"/>
	</g>
	<g>
		<polygon class="st23" points="91.2,175.4 92.7,170.7 83.4,170.2 		"/>
	</g>
	<g>
		<path class="st23" d="M92.7,170.7H92c0,0,0,0.1-0.1,0.1c-0.2,0.3,0,0.8,0.3,0.9c-0.3,0-0.6,0.1-0.7,0.4c-0.2,0.3,0,0.8,0.3,0.9
			l0,0c-0.3-0.1-0.6,0.1-0.8,0.4s-0.1,0.7,0.2,0.9c-0.3,0-0.6,0.1-0.7,0.4c-0.1,0.1-0.1,0.3-0.1,0.4l0.5,0.4l0.5,0.1
			c0.1-0.1,0.3-0.2,0.3-0.3c0.2-0.3,0.1-0.7-0.2-0.9c0.3,0,0.6-0.1,0.7-0.4c0.2-0.3,0-0.8-0.3-0.9l0,0c0.3,0.1,0.6-0.1,0.8-0.4
			s0-0.8-0.3-0.9c0.3,0,0.6-0.1,0.7-0.4c0.1-0.2,0.1-0.3,0-0.5L92.7,170.7z"/>
	</g>
	<g class="st18">
		<path class="st5" d="M92.7,170.7L92.7,170.7l-9.3-0.5l0.5,0.3l8.6,1.2c0.3,0,0.6-0.1,0.7-0.4c0.1-0.2,0.1-0.3,0-0.5L92.7,170.7z"
			/>
	</g>
	<g class="st15">
		<g>
			<path d="M91.9,174.6l-7.5-4.3h-1l7.7,5.2l0.5,0.1c0.1-0.1,0.3-0.2,0.3-0.3C92,175,92,174.8,91.9,174.6z"/>
		</g>
	</g>
	<g>
		<path class="st24" d="M81.8,169.7c0.3,0,0.7,0.1,1,0.1c0.3,0.1,0.7,0.1,1,0.2s0.7,0.1,1,0.2s0.6,0.3,0.8,0.6v0.1
			c-0.4,0.1-0.7,0.1-1,0s-0.6-0.2-0.9-0.4s-0.6-0.3-0.9-0.4C82.4,170.1,82.1,169.9,81.8,169.7L81.8,169.7z"/>
	</g>
</g>
<g>
	<g>
		<path class="st21" d="M51.8,169.6h-0.1c-0.9-0.4-1.4-1.5-1-2.4l1.6-3.7c0.4-0.9,1.5-1.4,2.4-1h0.1c0.9,0.4,1.4,1.5,1,2.4l-1.6,3.7
			C53.8,169.5,52.8,169.9,51.8,169.6z"/>
	</g>
	<g class="st15">
		<g>
			<path d="M53.7,162.2c0-0.1,0.1-0.1,0.1-0.1h-0.1c-0.3-0.1-0.7,0-0.9,0.4l-2.5,5.8c-0.2,0.4,0,0.7,0.4,0.9h0.1L53.7,162.2z"/>
		</g>
	</g>
	<g class="st18">
		<path class="st5" d="M55.7,163c0-0.1,0-0.1,0-0.2h0.1c0.3,0.1,0.5,0.5,0.4,0.9l-2.4,5.9c-0.1,0.4-0.5,0.5-0.9,0.4h-0.1L55.7,163z"
			/>
	</g>
	<g>
		<polygon class="st25" points="72.9,126 68.3,124.1 51.5,163.9 56,165.8 		"/>
	</g>
	<g>
		<polygon class="st22" points="55.4,167.5 50.8,165.4 52.7,161 57.3,163.1 		"/>
	</g>
	<g class="st15">
		<g>
			<path d="M69.1,124.9c-0.2,0.1-0.5,0.1-0.7,0c-0.1-0.1-0.2-0.2-0.3-0.3l-17.3,40.9L52,166L69.1,124.9z"/>
		</g>
	</g>
	<g class="st18">
		<path class="st5" d="M72.8,126.1c-0.2,0.1-0.5,0.1-0.7,0c-0.1-0.1-0.2-0.2-0.3-0.3l-17.6,41.3l1.1,0.5L72.8,126.1z"/>
	</g>
	<g>
		<polygon class="st23" points="68.3,124.1 72.9,126 74.1,116.7 		"/>
	</g>
	<g>
		<path class="st23" d="M72.9,126l0.1-0.7c0,0-0.1,0-0.1-0.1c-0.3-0.2-0.8-0.1-1,0.2c0.1-0.3-0.1-0.6-0.3-0.7
			c-0.3-0.2-0.8-0.1-1,0.2l0,0c0.1-0.3,0-0.6-0.3-0.8c-0.3-0.2-0.7-0.1-0.9,0.2c0.1-0.3-0.1-0.6-0.3-0.7c-0.1-0.1-0.3-0.1-0.4-0.1
			l-0.4,0.5l-0.2,0.4c0,0.1,0.2,0.3,0.3,0.4c0.3,0.2,0.7,0.1,0.9-0.2c-0.1,0.3,0.1,0.6,0.3,0.7c0.3,0.2,0.8,0.1,1-0.2l0,0
			c-0.1,0.3,0,0.6,0.3,0.8c0.3,0.2,0.8,0.1,1-0.2c-0.1,0.3,0.1,0.6,0.3,0.7c0.2,0.1,0.3,0.1,0.5,0.1L72.9,126z"/>
	</g>
	<g class="st18">
		<path class="st5" d="M72.9,126L72.9,126l1.2-9.3l-0.4,0.5l-1.9,8.5c0,0.3,0.1,0.6,0.3,0.7c0.2,0.1,0.3,0.1,0.5,0.1L72.9,126z"/>
	</g>
	<g class="st15">
		<g>
			<path d="M69.1,124.9l4.9-7.1l0.1-1l-5.8,7.3l-0.2,0.4c0,0.1,0.2,0.3,0.3,0.4C68.6,125,68.9,125,69.1,124.9z"/>
		</g>
	</g>
	<g>
		<path class="st24" d="M74.7,115.2c-0.1,0.3-0.2,0.6-0.2,1c-0.1,0.3-0.2,0.6-0.3,1c-0.1,0.3-0.1,0.7-0.3,1s-0.4,0.6-0.7,0.8h-0.1
			c-0.1-0.4,0-0.7,0.1-1s0.3-0.6,0.4-0.9s0.3-0.6,0.5-0.9C74.3,115.8,74.5,115.5,74.7,115.2L74.7,115.2z"/>
	</g>
</g>
<g>
	<g>
		<path class="st26" d="M46.3,185.8h18.9c2.7,0,4.9-2.6,5-5.9l1.5-41.7H40.8l0.4,41.5C41.3,183.1,43.6,185.8,46.3,185.8z"/>
	</g>
	<g class="st27">
		<path class="st5" d="M43.4,138.2l0.3,46.7c-1.4-1.1-2.4-3-2.4-5.2l-0.4-41.5H43.4z"/>
	</g>
	<g class="st28">
		<g>
			<path d="M44.4,184.1h18.9c2.7,0,4.9-2.6,5-5.9l1.4-40h2l-1.5,41.7c-0.1,3.3-2.3,5.9-5,5.9H46.3c-1.5,0-2.9-0.8-3.8-2.1
				C43.1,183.9,43.7,184.1,44.4,184.1z"/>
		</g>
	</g>
</g>
<g>
	<g>
		<g>
			
				<ellipse transform="matrix(0.6967 -0.7173 0.7173 0.6967 -129.3396 56.6803)" class="st29" cx="2.4" cy="181.3" rx="4.1" ry="0.5"/>
		</g>
		<g>
			<g>
				<path class="st30" d="M5.8,182l30.7-31.8c1.1-1.1,1-2.9-0.1-4l0,0c-1.1-1.1-2.9-1-4,0.1L1.7,178.1c-1.1,1.1-1,2.9,0.1,4l0,0
					C3,183.2,4.7,183.2,5.8,182z"/>
			</g>
			<g>
				<path class="st31" d="M3.3,176.4L1.8,178c-1.1,1.1-1.2,2.9-0.1,4s3,1.1,4,0l1.6-1.7c1.1-1.1,1-2.9-0.1-4l0,0
					C6.2,175.3,4.4,175.3,3.3,176.4z"/>
			</g>
			<g>
				<g class="st27">
					<path class="st5" d="M1.2,181.2c-0.5-1-0.3-2.2,0.5-3.1l30.7-31.8c0.8-0.9,2-1.1,3.1-0.7L1.2,181.2z"/>
				</g>
				<g class="st28">
					<g>
						<path d="M37.1,147.1c0.5,1,0.3,2.2-0.5,3.1L5.9,182c-0.8,0.9-2,1.1-3.1,0.7L37.1,147.1z"/>
					</g>
				</g>
			</g>
		</g>
	</g>
	<g>
		<g>
			<path class="st32" d="M40.3,147.8l-10.5,10.8c-0.7,0.7-1.8,0.7-2.5,0l-3-2.9c-0.7-0.7-0.7-1.8,0-2.5l10.5-10.8
				c1.5-1.5,3.9-1.5,5.4-0.1l0,0C41.8,143.9,41.8,146.3,40.3,147.8z"/>
		</g>
		<g class="st28">
			<g>
				<path d="M27.2,158.5l0.1,0.1c0.7,0.7,1.8,0.7,2.5,0l10.5-10.8c1-1,1.3-2.4,0.9-3.7L27.2,158.5z"/>
			</g>
		</g>
		<g class="st27">
			<path class="st5" d="M38.8,141.5c-1.3-0.4-2.8-0.1-3.9,1l-10.5,10.8c-0.7,0.7-0.7,1.8,0,2.5l0.3,0.3L38.8,141.5z"/>
		</g>
		<g>
			<path class="st32" d="M32.6,143.3l-12.7,13c-0.3,0.3-0.8,0.3-1.1,0l0,0c-0.3-0.3-0.3-0.8,0-1.1l12.7-13c0.3-0.3,0.8-0.3,1.1,0
				l0,0C32.9,142.4,32.9,143,32.6,143.3z"/>
		</g>
		<g>
			<path class="st32" d="M33.9,143.5l-1,1l-1.9-1.9l0,0c0.6-0.6,1.5-0.6,2.1,0L33.9,143.5z"/>
		</g>
		<g class="st27">
			<path class="st5" d="M32.5,142.1c-0.3-0.3-0.8-0.3-1.1,0l0,0l-0.4,0.5l-12.2,12.5c-0.2,0.2-0.3,0.5-0.2,0.8
				c0-0.2,0.1-0.3,0.2-0.4L31,143l0.4-0.5l0,0c0.3-0.3,0.8-0.3,1.1,0l0,0l0,0l1.1,1.1l0.2-0.2L32.5,142.1
				C32.6,142.1,32.6,142.1,32.5,142.1C32.6,142.1,32.6,142.1,32.5,142.1z"/>
		</g>
		<g class="st28">
			<g>
				<path d="M33.1,144.3l-1-1l-12.8,13.1l-0.1,0.1c0.3,0.1,0.5,0,0.8-0.2l12.2-12.5l0.8,0.8L33.1,144.3z"/>
			</g>
		</g>
	</g>
</g>
<g>
	<g>
		<path class="st33" d="M94.7,185.8H80.3c-1.1,0-2-0.9-2-2v-5.1c0-1.1,0.9-2,2-2h14.4c1.1,0,2,0.9,2,2v5.1
			C96.6,184.9,95.7,185.8,94.7,185.8z"/>
	</g>
	<g>
		<g class="st27">
			<path class="st5" d="M96.6,179.1v-0.4c0-1.1-0.7-2-1.6-2H80c-0.9,0-1.6,0.9-1.6,2v0.4H96.6z"/>
		</g>
		<g class="st28">
			<g>
				<path d="M78.3,183.4v0.4c0,1.1,0.7,2,1.6,2h15c0.9,0,1.6-0.9,1.6-2v-0.4H78.3z"/>
			</g>
		</g>
	</g>
</g>
<g>
	<g>
		<ellipse class="st34" cx="173" cy="184.5" rx="24.6" ry="4.7"/>
	</g>
	<g class="st35">
		<path class="st36" d="M197.5,184L173,104.2L148.5,184c-0.1,0.2-0.2,0.4-0.2,0.5c0,2.6,11,4.7,24.6,4.7s24.6-2.1,24.6-4.7
			C197.7,184.3,197.6,184.2,197.5,184z"/>
	</g>
	<g>
		<g>
			<polygon class="st13" points="171.3,183.6 171.2,183.3 172.8,182.8 172.8,181.1 173.2,181.1 173.2,183.1 			"/>
		</g>
		<g>
			<path class="st13" d="M173.2,177.5h-0.4V174h0.4V177.5z M173.2,170.4h-0.4v-3.6h0.4V170.4z M173.2,163.2h-0.4v-3.6h0.4V163.2z
				 M173.2,156.1h-0.4v-3.6h0.4V156.1z M173.2,149h-0.4v-3.6h0.4V149z M173.2,141.8h-0.4v-3.6h0.4V141.8z M173.2,134.7h-0.4v-3.6
				h0.4V134.7z M173.2,127.5h-0.4v-3.6h0.4V127.5z M173.2,120.4h-0.4v-3.6h0.4V120.4z M173.2,113.2h-0.4v-3.6h0.4V113.2z"/>
		</g>
		<g>
			<polygon class="st13" points="173.2,106.1 172.8,106.1 172.8,106 172.8,106.1 172.4,106 173.2,102.4 			"/>
		</g>
		<g>
			<path class="st13" d="M156.8,182.2l-0.4-0.1l0.8-3.8l0.4,0.1L156.8,182.2z M158.4,174.6l-0.4-0.1l0.8-3.8l0.4,0.1L158.4,174.6z
				 M160,167l-0.4-0.1l0.8-3.8l0.4,0.1L160,167z M161.6,159.4l-0.4-0.1l0.8-3.8l0.4,0.1L161.6,159.4z M163.2,151.7l-0.4-0.1l0.8-3.8
				l0.4,0.1L163.2,151.7z M164.8,144.1l-0.4-0.1l0.8-3.8l0.4,0.1L164.8,144.1z M166.4,136.5l-0.4-0.1l0.8-3.8l0.4,0.1L166.4,136.5z
				 M168,128.9l-0.4-0.1l0.8-3.8l0.4,0.1L168,128.9z M169.6,121.3l-0.4-0.1l0.8-3.8l0.4,0.1L169.6,121.3z M171.2,113.7l-0.4-0.1
				l0.8-3.8l0.4,0.1L171.2,113.7z"/>
		</g>
		<g>
			<polygon class="st13" points="155.1,188 155.6,185.9 156,186 155.6,187.5 157.1,187.1 157.2,187.5 			"/>
		</g>
		<g>
			<path class="st13" d="M160,186.7l-0.1-0.4l2.8-0.8l0.1,0.4L160,186.7z M165.7,185.2l-0.1-0.4l2.8-0.8l0.1,0.4L165.7,185.2z"/>
		</g>
	</g>
</g>
<g>
	<g>
		
			<rect x="168.4" y="119.3" transform="matrix(0.792 -0.6105 0.6105 0.792 -33.5842 146.8584)" class="st13" width="60.7" height="6.8"/>
	</g>
	<g>
		<g>
			<path class="st13" d="M221.3,109.6l-40.8,31.5l-2.1-2.7c-8.7-11.3-6.6-27.5,4.7-36.2s27.5-6.6,36.2,4.7L221.3,109.6z
				 M181.9,131.3l29.5-22.7c-6.7-6-16.9-6.6-24.2-0.9S177.8,123.4,181.9,131.3z"/>
		</g>
	</g>
	<g>
		<path class="st37" d="M186.6,106.8c-7.9,6.1-10,16.8-5.7,25.3l1.3-1c-3.1-7.7-0.9-16.8,6-22.1c6.9-5.3,16.2-5.1,22.9-0.2l1.3-1
			C205.4,101.4,194.4,100.8,186.6,106.8z"/>
	</g>
	<g>
		
			<rect x="170" y="123.8" transform="matrix(0.792 -0.6105 0.6105 0.792 -34.451 148.2363)" class="st37" width="60.7" height="1.8"/>
	</g>
</g>
<g>
	<g>
		<path class="st13" d="M260.7,193.1c-0.2,0-0.4,0-0.6,0c-17.9-0.3-32.2-15.1-31.8-32.9c0.3-17.7,14.8-31.9,32.4-31.9
			c0.2,0,0.4,0,0.6,0c17.9,0.3,32.2,15.1,31.8,32.9c-0.1,8.6-3.7,16.7-9.9,22.8C277.1,189.9,269.1,193.1,260.7,193.1z M260.7,129.4
			c-17,0-31,13.7-31.3,30.8c-0.3,17.2,13.5,31.5,30.8,31.8c8.3,0.1,16.3-3,22.3-8.8s9.4-13.6,9.5-22c0.3-17.2-13.5-31.5-30.7-31.8
			C261,129.4,260.9,129.4,260.7,129.4z"/>
	</g>
	<g>
		<path class="st13" d="M260.1,193.1c-5-0.1-9.6-3.6-13-9.8c-3.3-6.1-5.1-14.3-4.9-22.9c0.3-17.8,8.7-32.1,18.8-32.1
			c0.1,0,0.1,0,0.2,0v1.1c-0.1,0-0.1,0-0.2,0c-9.5,0-17.4,13.8-17.7,31c-0.1,8.4,1.6,16.3,4.8,22.3c3.2,5.9,7.4,9.2,12,9.2V193.1z"
			/>
	</g>
	<g>
		<path class="st13" d="M261.7,175.2c-0.4,0-0.8,0-1.3,0c-8.6-0.1-16.6-1.7-22.7-4.5c-6.2-2.8-9.6-6.6-9.5-10.5h1.1
			c-0.1,7.4,13.8,13.6,31.1,13.9c8.4,0.1,16.4-1.2,22.3-3.7c5.8-2.4,9.1-5.7,9.1-9.2h1.1c-0.1,4-3.6,7.6-9.8,10.2
			C277.4,173.9,269.8,175.2,261.7,175.2z"/>
	</g>
	<g>
		<g>
			<path class="st13" d="M260.3,193.1c-0.1,0-0.1,0-0.2,0V192c0.6,0,1.2,0,1.8-0.1l0.2,1.1C261.5,193.1,260.9,193.1,260.3,193.1z"/>
		</g>
		<g>
			<path class="st13" d="M265.7,191.7l-0.5-1c1-0.5,1.9-1.2,2.8-2l0.7,0.8C267.8,190.5,266.7,191.2,265.7,191.7z M271.3,186.9
				l-0.9-0.7c0.7-0.9,1.4-1.9,2-2.9l1,0.6C272.7,184.9,272,186,271.3,186.9z M275,180.6l-1-0.5c0.5-1,0.9-2.2,1.3-3.3l1.1,0.4
				C276,178.3,275.5,179.5,275,180.6z M277.4,173.7l-1.1-0.3c0.3-1.1,0.6-2.3,0.8-3.5l1.1,0.2C278,171.3,277.7,172.5,277.4,173.7z
				 M278.8,166.5l-1.1-0.1c0.1-1.2,0.2-2.4,0.3-3.6h1.1C279,164.1,278.9,165.3,278.8,166.5z M278,159.2c0-1.2-0.1-2.4-0.2-3.6
				l1.1-0.1c0.1,1.2,0.2,2.4,0.2,3.6L278,159.2z M277.4,152.1c-0.2-1.2-0.4-2.4-0.7-3.5l1.1-0.2c0.3,1.2,0.5,2.4,0.7,3.6
				L277.4,152.1z M275.9,145.1c-0.4-1.2-0.8-2.3-1.2-3.4l1-0.4c0.4,1.1,0.9,2.3,1.2,3.5L275.9,145.1z M273.1,138.6
				c-0.6-1.1-1.2-2.1-1.9-3l0.9-0.7c0.7,1,1.4,2,2,3.1L273.1,138.6z M268.9,132.9c-0.9-0.8-1.8-1.5-2.8-2.1l0.6-1c1,0.6,2,1.3,3,2.3
				L268.9,132.9z"/>
		</g>
		<g>
			<path class="st13" d="M263,129.6c-0.6-0.1-1.2-0.2-1.8-0.2v-1.1c0.7,0,1.3,0.1,1.9,0.2L263,129.6z"/>
		</g>
	</g>
	<g>
		<g>
			
				<rect x="229.2" y="159.6" transform="matrix(1.170074e-02 -0.9999 0.9999 1.170074e-02 66.562 388.3808)" class="st13" width="1.1" height="1.9"/>
		</g>
		<g>
			<path class="st13" d="M287.1,161.7h-3.5v-1.1h3.5V161.7z M280.1,161.6h-3.5v-1.1h3.5V161.6z M273,161.6h-3.5v-1.1h3.5V161.6z
				 M266,161.5h-3.5v-1.1h3.5V161.5z M258.9,161.4h-3.5v-1.1h3.5V161.4z M251.9,161.3h-3.5v-1.1h3.5V161.3z M244.8,161.2h-3.5v-1.1
				h3.5V161.2z M237.8,161.1h-3.5V160h3.5V161.1z"/>
		</g>
		<g>
			<path class="st13" d="M293.1,161.8h-2.4v-1.1h1.3c0-0.4-0.1-0.8-0.2-1.1l1.1-0.3c0.2,0.7,0.3,1.3,0.3,2L293.1,161.8z"/>
		</g>
		<g>
			<path class="st13" d="M290,156.5c-0.7-0.8-1.6-1.6-2.7-2.4l0.7-0.9c1.1,0.8,2.1,1.7,2.9,2.6L290,156.5z M231.5,155.6l-0.8-0.8
				c0.8-0.9,1.8-1.7,3-2.5l0.6,0.9C233.2,154,232.2,154.8,231.5,155.6z M284.2,152.3c-1-0.5-2.2-1-3.4-1.5l0.4-1
				c1.2,0.5,2.4,1,3.5,1.5L284.2,152.3z M237.5,151.5l-0.5-1c1.1-0.5,2.3-1,3.5-1.4l0.4,1.1C239.7,150.6,238.5,151,237.5,151.5z
				 M277.4,149.7c-1.2-0.3-2.4-0.6-3.6-0.9l0.2-1.1c1.3,0.3,2.5,0.6,3.7,0.9L277.4,149.7z M244.4,149.1l-0.3-1.1
				c1.2-0.3,2.4-0.6,3.7-0.8l0.2,1.1C246.8,148.6,245.6,148.8,244.4,149.1z M270.1,148.1c-1.2-0.2-2.4-0.3-3.7-0.5l0.1-1.1
				c1.3,0.1,2.5,0.3,3.7,0.5L270.1,148.1z M251.7,147.8l-0.1-1.1c1.2-0.1,2.5-0.3,3.8-0.3l0.1,1.1
				C254.1,147.6,252.9,147.7,251.7,147.8z M262.8,147.4c-0.6,0-1.2,0-1.8,0s-1.2,0-1.8,0v-1.1c0.6,0,1.3,0,1.9,0
				c0.6,0,1.3,0,1.9,0.1L262.8,147.4z"/>
		</g>
		<g>
			<path class="st13" d="M229.4,160.2h-1.1c0-0.7,0.1-1.3,0.3-2l1.1,0.3C229.5,159.1,229.4,159.6,229.4,160.2z"/>
		</g>
	</g>
</g>
<g>
	<g>
		<g>
			<g>
				<path class="st30" d="M230.7,185.8h-32.8c-2.8,0-5.1-2.3-5.1-5.1v-59.8c0-2.8,2.3-5.1,5.1-5.1h32.8c2.8,0,5.1,2.3,5.1,5.1v59.8
					C235.8,183.5,233.5,185.8,230.7,185.8z"/>
			</g>
		</g>
		<g>
			<path class="st38" d="M195,119.4c0-0.9,0.7-1.6,1.7-1.6h39.1v-0.4c0-0.9-0.7-1.6-1.7-1.6h-39.8c-0.9,0-1.7,0.7-1.7,1.6v66.9
				c0,0.9,0.7,1.6,1.7,1.6h0.7V119.4z"/>
		</g>
		<g>
			<path class="st39" d="M233.5,182.5c0,0.9-0.7,1.6-1.7,1.6h-39.2v0.1c0,0.9,0.7,1.6,1.7,1.6h39.8c0.9,0,1.7-0.7,1.7-1.6v-66.9
				c0-0.9-0.7-1.6-1.7-1.6h-0.7L233.5,182.5L233.5,182.5z"/>
		</g>
	</g>
	<g>
		<g>
			<path class="st40" d="M228,135h-27.6c-1.7,0-3.1-1.4-3.1-3.1v-6.8c0-1.7,1.4-3.1,3.1-3.1H228c1.7,0,3.1,1.4,3.1,3.1v6.8
				C231.1,133.6,229.7,135,228,135z"/>
		</g>
		<g>
			<path class="st41" d="M197.4,133.4v0.4c0,0.6,0.5,1.1,1.1,1.1h31.4c0.6,0,1.1-0.5,1.1-1.1v-0.4H197.4z"/>
		</g>
	</g>
	<g>
		<g>
			<path class="st42" d="M198.4,138.1h5c0.6,0,1,0.5,1,1v5c0,0.6-0.5,1-1,1h-5c-0.6,0-1-0.5-1-1v-5
				C197.4,138.6,197.9,138.1,198.4,138.1z"/>
		</g>
		<g>
			<path class="st43" d="M203.6,138.1c0,0.1,0,0.1,0,0.2v5c0,0.5-0.4,1-1,1h-5.1c-0.1,0-0.1,0-0.2,0c0.1,0.4,0.5,0.8,0.9,0.8h5.1
				c0.5,0,1-0.4,1-1v-5C204.4,138.6,204,138.2,203.6,138.1z"/>
		</g>
	</g>
	<g>
		<g>
			<path class="st42" d="M207.3,138.1h5c0.6,0,1,0.5,1,1v5c0,0.6-0.5,1-1,1h-5c-0.6,0-1-0.5-1-1v-5
				C206.3,138.6,206.8,138.1,207.3,138.1z"/>
		</g>
		<g>
			<path class="st43" d="M212.5,138.1c0,0.1,0,0.1,0,0.2v5c0,0.5-0.4,1-1,1h-5.1c-0.1,0-0.1,0-0.2,0c0.1,0.4,0.5,0.8,0.9,0.8h5
				c0.5,0,1-0.4,1-1v-5C213.3,138.6,213,138.2,212.5,138.1z"/>
		</g>
	</g>
	<g>
		<g>
			<path class="st42" d="M216.2,138.1h4.8c0.6,0,1.1,0.5,1.1,1.1v4.9c0,0.6-0.5,1.1-1.1,1.1h-4.8c-0.6,0-1.1-0.5-1.1-1.1v-4.9
				C215.2,138.6,215.7,138.1,216.2,138.1z"/>
		</g>
		<g>
			<path class="st43" d="M221.3,138.1c0,0.1,0,0.1,0,0.2v5c0,0.5-0.4,1-1,1h-5.1c-0.1,0-0.1,0-0.2,0c0.1,0.4,0.5,0.8,0.9,0.8h5
				c0.5,0,1-0.4,1-1v-5C222.2,138.6,221.8,138.2,221.3,138.1z"/>
		</g>
	</g>
	<g>
		<g>
			<path class="st42" d="M225.1,138.1h5c0.6,0,1,0.5,1,1v5c0,0.6-0.5,1-1,1h-5c-0.6,0-1-0.5-1-1v-5
				C224.1,138.6,224.6,138.1,225.1,138.1z"/>
		</g>
		<g>
			<path class="st43" d="M230.3,138.1c0,0.1,0,0.1,0,0.2v5c0,0.5-0.4,1-1,1h-5.1c-0.1,0-0.1,0-0.2,0c0.1,0.4,0.5,0.8,0.9,0.8h5.1
				c0.5,0,1-0.4,1-1v-5C231.1,138.6,230.7,138.2,230.3,138.1z"/>
		</g>
	</g>
	<g>
		<g>
			<path class="st42" d="M198.4,147.3h5c0.6,0,1,0.5,1,1v5c0,0.6-0.5,1-1,1h-5c-0.6,0-1-0.5-1-1v-5
				C197.4,147.7,197.9,147.3,198.4,147.3z"/>
		</g>
		<g>
			<path class="st43" d="M203.6,147.3c0,0.1,0,0.1,0,0.2v5c0,0.5-0.4,1-1,1h-5.1c-0.1,0-0.1,0-0.2,0c0.1,0.4,0.5,0.8,0.9,0.8h5.1
				c0.5,0,1-0.4,1-1v-5C204.4,147.8,204,147.4,203.6,147.3z"/>
		</g>
	</g>
	<g>
		<g>
			<path class="st42" d="M207.3,147.3h5c0.6,0,1,0.5,1,1v5c0,0.6-0.5,1-1,1h-5c-0.6,0-1-0.5-1-1v-5
				C206.3,147.7,206.8,147.3,207.3,147.3z"/>
		</g>
		<g>
			<path class="st43" d="M212.5,147.3c0,0.1,0,0.1,0,0.2v5c0,0.5-0.4,1-1,1h-5.1c-0.1,0-0.1,0-0.2,0c0.1,0.4,0.5,0.8,0.9,0.8h5.1
				c0.5,0,1-0.4,1-1v-5C213.3,147.8,213,147.4,212.5,147.3z"/>
		</g>
	</g>
	<g>
		<g>
			<path class="st42" d="M216.2,147.3h5c0.6,0,1,0.5,1,1v5c0,0.6-0.5,1-1,1h-5c-0.6,0-1-0.5-1-1v-5
				C215.2,147.7,215.6,147.3,216.2,147.3z"/>
		</g>
		<g>
			<path class="st43" d="M221.3,147.3c0,0.1,0,0.1,0,0.2v5c0,0.5-0.4,1-1,1h-5.1c-0.1,0-0.1,0-0.2,0c0.1,0.4,0.5,0.8,0.9,0.8h5
				c0.5,0,1-0.4,1-1v-5C222.2,147.8,221.8,147.4,221.3,147.3z"/>
		</g>
	</g>
	<g>
		<g>
			<path class="st42" d="M225.1,147.3h5c0.6,0,1,0.5,1,1v5c0,0.6-0.5,1-1,1h-5c-0.6,0-1-0.5-1-1v-5
				C224.1,147.7,224.6,147.3,225.1,147.3z"/>
		</g>
		<g>
			<path class="st43" d="M230.3,147.3c0,0.1,0,0.1,0,0.2v5c0,0.5-0.4,1-1,1h-5.1c-0.1,0-0.1,0-0.2,0c0.1,0.4,0.5,0.8,0.9,0.8h5.1
				c0.5,0,1-0.4,1-1v-5C231.1,147.8,230.7,147.4,230.3,147.3z"/>
		</g>
	</g>
	<g>
		<g>
			<path class="st42" d="M198.4,156.4h5c0.6,0,1,0.5,1,1v5c0,0.6-0.5,1-1,1h-5c-0.6,0-1-0.5-1-1v-5
				C197.4,156.9,197.9,156.4,198.4,156.4z"/>
		</g>
		<g>
			<path class="st43" d="M203.6,156.4c0,0.1,0,0.1,0,0.2v5c0,0.5-0.4,1-1,1h-5.1c-0.1,0-0.1,0-0.2,0c0.1,0.4,0.5,0.8,0.9,0.8h5.1
				c0.5,0,1-0.4,1-1v-5C204.4,156.9,204,156.5,203.6,156.4z"/>
		</g>
	</g>
	<g>
		<g>
			<path class="st42" d="M207.3,156.4h5c0.6,0,1,0.5,1,1v5c0,0.6-0.5,1-1,1h-5c-0.6,0-1-0.5-1-1v-5
				C206.3,156.9,206.8,156.4,207.3,156.4z"/>
		</g>
		<g>
			<path class="st43" d="M212.5,156.4c0,0.1,0,0.1,0,0.2v5c0,0.5-0.4,1-1,1h-5.1c-0.1,0-0.1,0-0.2,0c0.1,0.4,0.5,0.8,0.9,0.8h5.1
				c0.5,0,1-0.4,1-1v-5C213.3,156.9,213,156.5,212.5,156.4z"/>
		</g>
	</g>
	<g>
		<g>
			<path class="st42" d="M216.2,156.4h5c0.6,0,1,0.5,1,1v5c0,0.6-0.5,1-1,1h-5c-0.6,0-1-0.5-1-1v-5
				C215.2,156.9,215.6,156.4,216.2,156.4z"/>
		</g>
		<g>
			<path class="st43" d="M221.3,156.4c0,0.1,0,0.1,0,0.2v5c0,0.5-0.4,1-1,1h-5.1c-0.1,0-0.1,0-0.2,0c0.1,0.4,0.5,0.8,0.9,0.8h5
				c0.5,0,1-0.4,1-1v-5C222.2,156.9,221.8,156.5,221.3,156.4z"/>
		</g>
	</g>
	<g>
		<g>
			<path class="st42" d="M216.1,165.6h5.2c0.5,0,0.9,0.4,0.9,0.9v14.4c0,0.5-0.4,0.9-0.9,0.9h-5.2c-0.5,0-0.9-0.4-0.9-0.9v-14.4
				C215.2,166,215.6,165.6,216.1,165.6z"/>
		</g>
	</g>
	<g>
		<g>
			<path class="st42" d="M198.3,165.6h14.5c0.5,0,0.9,0.4,0.9,0.9v14.4c0,0.5-0.4,0.9-0.9,0.9h-14.5c-0.5,0-0.9-0.4-0.9-0.9v-14.4
				C197.4,166,197.8,165.6,198.3,165.6z"/>
		</g>
	</g>
	<g>
		<path class="st43" d="M212.9,165.6h-0.3V180c0,0.5-0.4,0.9-0.9,0.9h-14.4l0,0c0,0.5,0.4,0.9,0.9,0.9h14.6c0.5,0,0.9-0.4,0.9-0.9
			v-14.5C213.8,166,213.4,165.6,212.9,165.6z"/>
	</g>
	<g>
		<path class="st43" d="M221.3,165.6L221.3,165.6c-0.1,0.1-0.1,0.2-0.1,0.3v14.5c0,0.5-0.4,0.9-0.9,0.9h-5.1
			c0.1,0.4,0.4,0.6,0.8,0.6h5.3c0.5,0,0.9-0.4,0.9-0.9v-14.5C222.2,166,221.8,165.6,221.3,165.6z"/>
	</g>
	<g>
		<g>
			<path class="st42" d="M225.1,156.4h5c0.6,0,1,0.5,1,1v5c0,0.6-0.5,1-1,1h-5c-0.6,0-1-0.5-1-1v-5
				C224.1,156.9,224.6,156.4,225.1,156.4z"/>
		</g>
		<g>
			<path class="st43" d="M230.3,156.4c0,0.1,0,0.1,0,0.2v5c0,0.5-0.4,1-1,1h-5.1c-0.1,0-0.1,0-0.2,0c0.1,0.4,0.5,0.8,0.9,0.8h5.1
				c0.5,0,1-0.4,1-1v-5C231.1,156.9,230.7,156.5,230.3,156.4z"/>
		</g>
	</g>
	<g>
		<g>
			<path class="st42" d="M225.1,165.6h5c0.6,0,1,0.5,1,1v5c0,0.6-0.5,1-1,1h-5c-0.6,0-1-0.5-1-1v-5
				C224.1,166,224.6,165.6,225.1,165.6z"/>
		</g>
		<g>
			<path class="st43" d="M230.3,165.6c0,0.1,0,0.1,0,0.2v5c0,0.5-0.4,1-1,1h-5.1c-0.1,0-0.1,0-0.2,0c0.1,0.4,0.5,0.8,0.9,0.8h5.1
				c0.5,0,1-0.4,1-1v-5C231.1,166.1,230.7,165.7,230.3,165.6z"/>
		</g>
	</g>
	<g>
		<g>
			<path class="st42" d="M225.1,174.7h5c0.6,0,1,0.5,1,1v5c0,0.6-0.5,1-1,1h-5c-0.6,0-1-0.5-1-1v-5
				C224.1,175.2,224.6,174.7,225.1,174.7z"/>
		</g>
		<g>
			<path class="st43" d="M230.3,174.8c0,0.1,0,0.1,0,0.2v5c0,0.5-0.4,1-1,1h-5.1c-0.1,0-0.1,0-0.2,0c0.1,0.4,0.5,0.8,0.9,0.8h5.1
				c0.5,0,1-0.4,1-1v-5C231.1,175.2,230.7,174.8,230.3,174.8z"/>
		</g>
	</g>
</g>
<g>
	<g>
		<path class="st44" d="M128.1,115.4V53.3c-18.8,0-35.6,8.7-46.6,22.2L128.1,115.4z"/>
	</g>
</g>
<g class="st9">
	<g>
		<path d="M122.6,58.3l5.5,54.4V53.2c-18.8,0-35.6,8.7-46.6,22.2l2.7,2.3C93.8,67.1,107.2,59.9,122.6,58.3z"/>
	</g>
</g>
<g class="st10">
	<g>
		<polygon class="st5" points="128.1,115.4 84.2,77.8 87.3,74.5 		"/>
	</g>
</g>
</svg>
