<?xml version="1.0" encoding="utf-8"?>
<!-- Generator: Adobe Illustrator 23.0.3, SVG Export Plug-In . SVG Version: 6.00 Build 0)  -->
<svg version="1.1" id="Слой_1" xmlns="http://www.w3.org/2000/svg" xmlns:xlink="http://www.w3.org/1999/xlink" x="0px" y="0px"
	 viewBox="0 0 300 193.1" style="enable-background:new 0 0 300 193.1;" xml:space="preserve">
<style type="text/css">
	.st0{fill:url(#SVGID_1_);}
	.st1{fill:#CFEEC4;}
	.st2{fill:#FCFDFC;}
	.st3{fill:#FFFFFF;}
	.st4{fill:#8C9FAF;}
	.st5{fill:#FFE9C4;}
	.st6{opacity:0.29;}
	.st7{opacity:5.000000e-02;}
	.st8{opacity:7.000000e-02;}
	.st9{fill:#FFAAD5;}
	.st10{opacity:0.22;}
	.st11{fill:#D0F7FF;}
	.st12{fill:#C4E8AF;}
	.st13{fill:#FFA000;}
	.st14{fill:#C0EFEE;}
	.st15{fill:#E9A3A4;}
	.st16{opacity:0.43;}
	.st17{opacity:0.72;clip-path:url(#SVGID_3_);}
	.st18{opacity:0.64;fill:url(#SVGID_4_);enable-background:new    ;}
	.st19{opacity:0.43;fill:#FFFFFF;enable-background:new    ;}
	.st20{fill:#E2FFFD;}
	.st21{opacity:0.43;fill:#C0EFEE;enable-background:new    ;}
	.st22{opacity:0.64;fill:url(#SVGID_5_);enable-background:new    ;}
	.st23{fill:url(#SVGID_6_);}
	.st24{fill:url(#SVGID_7_);}
	.st25{fill:url(#SVGID_8_);}
	.st26{fill:url(#SVGID_9_);}
	.st27{fill:url(#SVGID_10_);}
	.st28{fill:url(#SVGID_11_);}
	.st29{fill:url(#SVGID_12_);}
	.st30{fill:#DCEDEF;}
	.st31{opacity:6.000000e-02;}
	.st32{opacity:0.32;}
	.st33{opacity:4.000000e-02;}
	.st34{fill:#E6D4CB;}
	.st35{opacity:8.000000e-02;enable-background:new    ;}
	.st36{opacity:5.000000e-02;enable-background:new    ;}
	.st37{opacity:3.000000e-02;enable-background:new    ;}
	.st38{fill:#009AD4;}
	.st39{fill:#90CD76;}
	.st40{opacity:0.21;}
	.st41{opacity:0.1;}
	.st42{fill:#EBD4AD;}
	.st43{fill:#F8E1B4;}
	.st44{fill:#564D49;}
	.st45{opacity:0.24;}
	.st46{fill:#ED5E44;}
	.st47{fill:#EF624D;}
	.st48{fill:#FFA9D4;}
	.st49{fill:#F2F2F2;}
	.st50{fill:#FFC300;}
	.st51{fill:#535353;}
	.st52{fill:#009BD5;}
	.st53{fill:#D4E3E5;}
	.st54{fill:#E6F2F3;}
	.st55{opacity:0.44;}
	.st56{fill:#B9CCCE;}
	.st57{fill:#00B9E9;}
	.st58{opacity:0.32;fill:#FFFFFF;}
	.st59{clip-path:url(#SVGID_14_);}
	.st60{opacity:0.21;fill:#FFFFFF;}
	.st61{fill:none;stroke:#FFFFFF;stroke-miterlimit:10;}
	.st62{fill:none;stroke:#000000;stroke-miterlimit:10;}
	.st63{fill:#E8A600;}
	.st64{opacity:0.13;}
	.st65{opacity:0.36;fill:#FFFFFF;}
</style>
<linearGradient id="SVGID_1_" gradientUnits="userSpaceOnUse" x1="2614.4973" y1="-1097.7723" x2="2614.4973" y2="-1313.5934" gradientTransform="matrix(0.8867 0.4623 -0.4623 0.8867 -2698.7266 -61.481)">
	<stop  offset="4.166280e-03" style="stop-color:#FFFFFF"/>
	<stop  offset="0.6028" style="stop-color:#E9EFF7"/>
</linearGradient>
<path class="st0" d="M181.8,20.9c40.2-5.2,60.9-36.1,100.4-9.3c31.8,21.6,22.3,99.4-32.8,150.2c-31.3,28.8-77.4,35-115.2,15.4
	c-53.1-27.3-99-84.1-69.9-126C97.6,3,141.6,26.2,181.8,20.9z"/>
<g>
	<g>
		<rect x="55.4" y="27.1" class="st1" width="131.1" height="99.3"/>
	</g>
	<g>
		<path class="st2" d="M163.1,71.3c-0.5-0.6-0.5-1,0.2-1.3c1-0.6,1.4-1.3,0.3-2.2c-0.6-0.5-0.3-1.1,0.2-1.5c1.7-1.6,0.6-2.3-0.9-3
			c-2.3-1-5.2-0.7-7.2-2.8c-0.2-0.2-0.7-0.2-0.9,0c-1.8,1.5-2.9,0.1-3.9-1c-0.9-1-1.6-1.3-2.9-0.4c-1.1,0.8-2.7,1.3-4-0.2
			c-0.5-0.6-1-0.2-1.5,0c-1.8,0.7-2.8,0-3-2c-0.3-3.8-0.3-3.8-4.2-4.2c-1.8-0.2-3-2-2-3.6c0.7-1.1,0.3-1.6-0.2-2.3
			c-0.9-1.2-1.8-2.5-3.4-3c-2-0.6-3.8,1.3-5.8,0.7c-0.1,0-0.2,0-0.3,0.1c-1.1,2.3-3.2,1.2-5,1.4c-2.2,0.2-4.2,2.3-3.9,4.2
			c0.5,3.3,0.6,3.6-0.1,5.6c-0.1,0.2-0.4,0.2-0.5,0c-0.2-0.9-0.4-1.8-0.7-2.7c-0.9-2.6-1.9-3-4.5-2.4c-1.4,0.3-2.9,0.6-4.2-0.5
			c-0.4-0.4-1-0.6-1.6-0.4c-2.8,0.7-5-0.6-7.4-1.8c-4.1-2-8.4-3.9-12.7-0.4c-0.2,0.1-0.5,0.3-0.7,0.2c-2.1-0.3-1.8,1-1.5,2.2
			s0.5,2.4,0.9,3.5c0.7,1.9,0.1,3.4-1.4,4.5c-0.7,0.5-1.6,0.8-2.3,1.3c-1.5,1-3.6,2-3.5,4.1c0.2,2.7-0.9,4.5-2.7,5.9
			c-2.4,1.8-1,3.4-0.3,5c0.7,1.8,1.8,2.8,4,2c0.6-0.2,1.5,0,2.2,0.1c3.2,0.6,6.1,2.8,9.5,1.1c0.2-0.1,0.5,0,0.7,0
			c1.4,0.1,2.4-0.5,3.6-1.1c2.5-1.3,5.1-3.2,8.3-1.8c2,0.9,3.8,2.2,5.6,3.3c1.5,0.9,2.8,2,2,4.1c-0.2,0.4-0.1,1,0.3,1.1
			c2.8,0.8,1.3,3.8,2.9,5.5c0.6,0.6,2,1.8,2,3.4c0,0.2-0.2,0.3-0.3,0.2c-1.4-0.5-2.7-0.9-4-1.5c-1.6-0.7-2.4-0.5-2.4,1.5
			c0,2.5-2,3.9-3.6,5.5c-0.3,0.3-1.2,0.1-1.2,1c0,0.7,0.7,0.7,1.1,1c0.5,0.1,1.3,0.2,1.8,0.3c3.5-0.6,6.1-2.7,8.8-4.8
			c1.6-1.2,2.3-2.8,2.4-4.5c0-1,0.2-1.4,1.1-1.2c1.3,0.2,2.5,0,3.6-0.8c1-0.7,2.2-0.1,3,0.8c0.3,0.4,1,0.9,0.5,1.4
			c-0.6,0.6-1.7,1-0.9,1.9c0.7,0.8,1.9,1,3.1,0.9c2.3,0,4.6-0.7,6.8-0.7c0,0.1,0,0.2,0,0.3l0,0c-0.1,0.2-0.3,0.2-0.4,0.2l-0.5-0.1
			l-0.1,0.7l-0.8-0.1c-0.2,0-0.4,0.1-0.6,0.2l-0.5,0.6c-0.1,0.1-0.3,0.2-0.5,0.2h-0.5c-0.1,0-0.2,0-0.3,0.1l-1.9,0.9
			c-0.1,0-0.1,0.1-0.2,0.2l-0.2,0.2c0,0.1-0.1,0.1-0.1,0.2v0.3c0,0.2-0.2,0.3-0.3,0.4l-0.8,0.2c-0.1,0-0.2,0.1-0.3,0.2l-1,0.9
			c-0.2,0.2-0.3,0.4-0.2,0.6l0.1,0.3c0,0.2,0.2,0.4,0.4,0.5l0.6,0.2l0.4-0.2c0.1,0,0.1-0.1,0.2-0.1l0.3-0.3c0.1-0.1,0.3-0.2,0.5-0.2
			h0.9c0.2,0,0.3,0.1,0.5,0.2l1.8,1.6c0.1,0.1,0.3,0.2,0.4,0.2h0.6h0.1l0.3-0.1c0.1,0,0.2,0,0.3,0.1l1.3,0.9
			c0.1,0.1,0.2,0.2,0.3,0.4l0.4,1.3c0,0.1,0,0.2,0,0.3l-0.1,0.4c0,0.2-0.2,0.4-0.3,0.5l-0.5,0.3v0.5v0.1l0.1,0.6
			c0,0.2,0,0.4-0.2,0.5l-0.5,0.4l-0.1,0.1l-0.1,0.2c-0.1,0.3-0.1,0.5,0.1,0.8l0.1,0.1c0.1,0.1,0.2,0.1,0.3,0.1l0.8,0.1
			c0.2,0,0.3,0.1,0.5,0.3l0.3,0.4c0.1,0.1,0.2,0.2,0.3,0.3l0.5,0.2c0.3,0.1,0.7-0.1,0.8-0.4l0,0l0.2,0.2c0.2,0.2,0.4,0.3,0.7,0.2
			l0.5-0.2c0.1,0,0.2-0.1,0.2-0.1l1.1-0.9l0,0l0.7-0.7c0-0.1,0.1-0.1,0.1-0.2l0.8-1.6c0.1-0.1,0.2-0.2,0.3-0.3l1.8-0.9
			c0.1,0,0.2-0.1,0.3-0.1h0.7c0.1,0,0.3,0,0.3-0.2l0.1-0.2c0.2-0.2,0.4-0.2,0.6-0.1l0.7,0.5l0.2-0.3c0.1-0.1,0.2-0.2,0.2-0.4v-0.3
			c0-0.2,0.2-0.4,0.3-0.5l0.2-0.1c0.1,0,0.1-0.1,0.1-0.1l0.2-0.3c0.1-0.1,0.2-0.2,0.3-0.2h0.2c0.3,0,0.5-0.2,0.5-0.5l0.1-0.6
			c0-0.1,0.1-0.3,0.2-0.3l0.6-0.5c0.1-0.1,0.2-0.1,0.4-0.2h0.4c0.2,0,0.4,0,0.5,0.2l1.1,1.1c0.1,0.1,0.3,0.2,0.5,0.2h0.6
			c0.2,0,0.4-0.1,0.5-0.3l0.1-0.1c0.2-0.3,0.5-0.4,0.8-0.3l0.5,0.2c0.2,0.1,0.4,0.1,0.6-0.1l0.6-0.4h0.1l0,0c0.4-0.1,0.6-0.6,0.3-1
			l-0.2-0.3c-0.1-0.2-0.1-0.4-0.1-0.5l0.3-0.9c0-0.1,0.1-0.1,0.1-0.2l0.2-0.2c0.1-0.1,0.3-0.2,0.5-0.3h0.3c0.3,0,0.5-0.3,0.4-0.6
			c-0.1-0.2-0.2-0.3-0.4-0.3l-3.5-0.3c-0.3,0-0.5,0.1-0.7,0.4l-0.2,0.5c-0.2,0.4-0.6,0.5-1,0.3h-0.1l-0.1-0.1l-0.1-0.2
			c-0.2-0.2-0.5-0.2-0.7,0l-0.5,0.6c-0.1,0.1-0.1,0.1-0.2,0.2l-0.9,0.5c0,0-0.1,0-0.1,0.1l-0.8,0.6c-0.2,0.1-0.4,0.2-0.7,0.1
			l-1.2-0.5c0,0-0.1,0-0.2,0l-0.6-0.1c-0.1,0-0.3-0.1-0.4-0.2l-0.3-0.3c-0.2-0.2-0.2-0.6-0.1-0.8l0.2-0.2c0.1-0.2,0.2-0.5,0-0.7
			l-0.3-0.6c-0.1-0.2-0.2-0.3-0.4-0.3l-0.9-0.3c-0.1,0-0.2-0.1-0.2-0.2l-0.1-0.2c-0.1-0.1-0.2-0.2-0.4-0.2h-0.2
			c-0.2,0-0.4-0.2-0.4-0.4v-0.3c0-0.2-0.1-0.3-0.3-0.4l-0.5-0.2c-0.1,0-0.2-0.1-0.3-0.2l-0.3-0.4c-0.1-0.1-0.2-0.2-0.3-0.2h-0.2
			c-0.2,0-0.4-0.2-0.5-0.4l-0.1-0.3l-0.1-0.1c0.1,0,0.2-0.1,0.3-0.1c2.2,0.2,2.7-0.9,2.3-2.8c0-0.2,0.1-0.3,0.3-0.3
			c2.1,0.5,4.2,0.6,5.5-0.9c2-2.3,5.9-0.7,7.3-3.9c0.1-0.2,1.1,0.1,1.6,0.1c0.6,0,1.5,0,1.3-0.6c-0.5-2.3,1.1-3.3,2.2-4.9
			c0.7-1,1.2-1.5,2.3-1.6c2.7-0.1,3.6-1.3,3-3.9C163.9,72.5,163.5,71.8,163.1,71.3z"/>
	</g>
	<g>
		<g>
			<polygon class="st3" points="180.8,120.5 178.4,120.5 178.4,120.2 180.4,120.2 180.4,118.1 180.8,118.1 			"/>
		</g>
		<g>
			<path class="st3" d="M174.2,120.5h-4.3v-0.4h4.3V120.5z M165.7,120.5h-4.3v-0.4h4.3V120.5z M157.1,120.5h-4.3v-0.4h4.3V120.5z
				 M148.6,120.5h-4.3v-0.4h4.3V120.5z M140.1,120.5h-4.3v-0.4h4.3V120.5z M131.6,120.5h-4.3v-0.4h4.3V120.5z M123.1,120.5h-4.3
				v-0.4h4.3V120.5z M114.6,120.5h-4.3v-0.4h4.3V120.5z M106,120.5h-4.3v-0.4h4.3V120.5z M97.5,120.5h-4.3v-0.4h4.3V120.5z
				 M89,120.5h-4.3v-0.4H89V120.5z M80.5,120.5h-4.3v-0.4h4.3V120.5z M72,120.5h-4.3v-0.4H72V120.5z"/>
		</g>
		<g>
			<polygon class="st3" points="63.5,120.5 61.1,120.5 61.1,118.1 61.4,118.1 61.4,120.2 63.5,120.2 			"/>
		</g>
		<g>
			<path class="st3" d="M61.4,113.8H61v-4.3h0.4V113.8z M61.4,105.1H61v-4.3h0.4V105.1z M61.4,96.4H61V92h0.4V96.4z M61.4,87.7H61
				v-4.3h0.4V87.7z M61.4,79H61v-4.3h0.4V79z M61.4,70.3H61V66h0.4V70.3z M61.4,61.6H61v-4.3h0.4V61.6z M61.4,52.8H61v-4.3h0.4V52.8
				z M61.4,44.1H61v-4.3h0.4V44.1z"/>
		</g>
		<g>
			<polygon class="st3" points="61.4,35.4 61.1,35.4 61.1,33.1 63.5,33.1 63.5,33.4 61.4,33.4 			"/>
		</g>
		<g>
			<path class="st3" d="M174.2,33.4h-4.3V33h4.3V33.4z M165.7,33.4h-4.3V33h4.3V33.4z M157.1,33.4h-4.3V33h4.3V33.4z M148.6,33.4
				h-4.3V33h4.3V33.4z M140.1,33.4h-4.3V33h4.3V33.4z M131.6,33.4h-4.3V33h4.3V33.4z M123.1,33.4h-4.3V33h4.3V33.4z M114.6,33.4
				h-4.3V33h4.3V33.4z M106,33.4h-4.3V33h4.3V33.4z M97.5,33.4h-4.3V33h4.3V33.4z M89,33.4h-4.3V33H89V33.4z M80.5,33.4h-4.3V33h4.3
				V33.4z M72,33.4h-4.3V33H72V33.4z"/>
		</g>
		<g>
			<polygon class="st3" points="180.8,35.4 180.4,35.4 180.4,33.4 178.4,33.4 178.4,33.1 180.8,33.1 			"/>
		</g>
		<g>
			<path class="st3" d="M180.8,113.8h-0.4v-4.3h0.4V113.8z M180.8,105.1h-0.4v-4.3h0.4V105.1z M180.8,96.4h-0.4V92h0.4V96.4z
				 M180.8,87.7h-0.4v-4.3h0.4V87.7z M180.8,79h-0.4v-4.3h0.4V79z M180.8,70.3h-0.4V66h0.4V70.3z M180.8,61.6h-0.4v-4.3h0.4V61.6z
				 M180.8,52.8h-0.4v-4.3h0.4V52.8z M180.8,44.1h-0.4v-4.3h0.4V44.1z"/>
		</g>
	</g>
</g>
<path class="st4" d="M168.7,85.1"/>
<g>
	<g>
		<path class="st5" d="M195.3,81.6c-2.8-3.8-6.2-7.5-10.9-8.4c-7.2-1.3-13.3,4.7-19.3,8.7c-2.3,1.5-5,2.9-7.7,2.7
			c-2.3-0.1-4.5-1.3-6.6-2.4c-7-3.5-15.1-5.7-22.8-4c-7.7,1.8-14.5,8.4-14.5,16.3c0.1,4.7,2.4,9.4,1.6,14c-0.7,4-3.5,7.2-5.1,10.9
			c-2.4,5.6-1.7,12.2,1.1,17.6c2.8,5.4,7.6,9.6,13,12.4c4,2.1,8.4,3.5,12.4,5.7c3.9,2.1,7.4,4.9,10.3,8.2
			c4.5,5.3,7.6,11.8,11.6,17.5c4,5.7,9.6,11,16.6,11.9c7.4,0.9,14.4-3.3,19.9-8.4c5.5-5,10.2-11,16.5-14.9
			c4.8-2.9,10.3-4.6,15.4-7.1c5.1-2.5,10-6.3,11.7-11.6c1.9-5.5-0.1-11.7-3.8-16.1c-3.9-4.3-9.3-7-15-8.3c-3.4-0.8-7.1-1.3-10.3-3
			c-4.9-2.6-8.1-8-8.1-13.5C201.2,99.8,201.7,90.2,195.3,81.6z"/>
	</g>
	<g class="st6">
		<path class="st3" d="M124.5,86.4c7.7-1.8,15.7,0.5,22.8,4c2.1,1,4.2,2.2,6.6,2.4c2.7,0.2,5.5-1.2,7.7-2.7c6-4,12.2-9.9,19.3-8.7
			c4.6,0.8,8.2,4.5,10.9,8.4c6.5,8.7,5.9,18.2,5.9,28.5c0,5.5,3.2,11,8.1,13.5c3.2,1.6,6.8,2.2,10.3,3c5.6,1.5,11.1,4,15,8.3
			c3.1,3.6,5.1,8.5,4.5,13.2c1.2-1.5,2.3-3.1,2.9-5c1.9-5.5-0.1-11.7-3.8-16.1c-3.9-4.3-9.3-7-15-8.3c-3.4-0.8-7.1-1.3-10.3-3
			c-4.9-2.6-8.1-8-8.1-13.5c0-10.1,0.5-19.7-5.9-28.5c-2.8-3.8-6.2-7.5-10.9-8.4c-7.2-1.3-13.3,4.6-19.3,8.7c-2.3,1.5-5,2.9-7.7,2.7
			c-2.3-0.1-4.5-1.3-6.6-2.4c-7-3.5-15.1-5.7-22.8-4c-7.1,1.6-13.6,7.6-14.5,14.7C116.3,89.8,120.2,87.3,124.5,86.4z"/>
	</g>
	<g class="st7">
		<g>
			<path d="M226.6,162.6c5.1-2.5,10-6.3,11.7-11.6c0.7-1.9,0.9-4.1,0.6-6.1c-2.4,3-5.8,5.4-9.4,7.2c-5.1,2.5-10.5,4.1-15.4,7.1
				c-6.3,3.8-11,9.9-16.5,14.9c-5.5,5-12.6,9.2-19.9,8.4c-7-0.8-12.6-6.1-16.6-11.9c-4-5.7-7-12.3-11.6-17.5
				c-3-3.4-6.5-6.1-10.3-8.2c-4.1-2.1-8.3-3.5-12.4-5.7c-5.4-2.9-10.1-7.1-13-12.4c-1.6-3.1-2.6-6.6-2.6-10.1c-0.6,1-1.1,2-1.6,3.1
				c-2.4,5.6-1.7,12.2,1.1,17.6c2.8,5.4,7.6,9.6,13.1,12.5c4,2.1,8.4,3.5,12.4,5.7c3.9,2.1,7.4,4.9,10.4,8.3
				c4.5,5.3,7.6,11.8,11.6,17.5c4,5.7,9.6,11,16.6,11.9c7.4,0.9,14.4-3.3,19.9-8.4c5.5-5,10.2-11,16.5-14.9
				C216,166.8,221.5,165.1,226.6,162.6z"/>
		</g>
	</g>
	<g class="st8">
		<g>
			<circle cx="134.4" cy="104.4" r="8.6"/>
		</g>
	</g>
	<g class="st8">
		<g>
			<circle cx="176" cy="100.6" r="8.6"/>
		</g>
	</g>
	<g class="st8">
		<g>
			<circle cx="170.7" cy="139" r="8.6"/>
		</g>
	</g>
	<g class="st8">
		<g>
			<circle cx="215.6" cy="146.7" r="11.1"/>
		</g>
	</g>
	<g class="st8">
		<g>
			<circle cx="188.8" cy="168" r="8.6"/>
		</g>
	</g>
	<g class="st8">
		<g>
			<circle cx="144" cy="132.3" r="8.6"/>
		</g>
	</g>
	<g>
		<g>
			<circle class="st9" cx="216.1" cy="141" r="11.7"/>
		</g>
		<g class="st8">
			<g>
				<path d="M205.5,145.9c0.4,0.9,1,1.8,1.6,2.5c4.1,5,11.5,5.7,16.5,1.6c3.4-2.8,4.7-6.9,4-10.9c-0.6,2-1.9,3.8-3.7,5.4
					c-5,4.1-12.3,3.4-16.5-1.6c-1.4-1.6-2.2-3.6-2.5-5.6C204.2,140.1,204.2,143.1,205.5,145.9"/>
			</g>
		</g>
		<g class="st10">
			<g>
				
					<ellipse transform="matrix(0.9784 -0.2065 0.2065 0.9784 -23.1891 47.4428)" class="st3" cx="215.7" cy="134.8" rx="5.8" ry="4.1"/>
			</g>
		</g>
		<g class="st10">
			<g>
				
					<ellipse transform="matrix(0.9784 -0.2065 0.2065 0.9784 -23.1006 47.3691)" class="st3" cx="215.4" cy="134.4" rx="4.2" ry="3"/>
			</g>
		</g>
	</g>
	<g>
		<g>
			<circle class="st11" cx="143.7" cy="128.9" r="7.8"/>
		</g>
		<g class="st8">
			<g>
				<path d="M151.4,127.6c-0.5,1.3-1.2,2.6-2.4,3.5c-3.3,2.7-8.2,2.3-11-1c-0.9-1.1-1.5-2.3-1.7-3.7c-0.7,2.4-0.4,5.2,1.3,7.3
					c2.7,3.3,7.6,3.8,11,1C150.9,132.9,151.7,130.2,151.4,127.6z"/>
			</g>
		</g>
		<g class="st10">
			<g>
				
					<ellipse transform="matrix(0.9784 -0.2065 0.2065 0.9784 -22.6598 32.3165)" class="st3" cx="143.5" cy="124.7" rx="3.9" ry="2.7"/>
			</g>
		</g>
		<g class="st10">
			<g>
				
					<ellipse transform="matrix(0.9784 -0.2065 0.2065 0.9784 -22.6025 32.2813)" class="st3" cx="143.3" cy="124.4" rx="2.8" ry="2"/>
			</g>
		</g>
	</g>
	<g>
		<g>
			<circle class="st11" cx="187.9" cy="165.4" r="7.8"/>
		</g>
		<g class="st8">
			<g>
				<path d="M195.4,164.1c-0.5,1.3-1.2,2.6-2.4,3.5c-3.3,2.7-8.2,2.3-11-1c-0.9-1.1-1.5-2.3-1.7-3.7c-0.7,2.4-0.4,5.2,1.3,7.3
					c2.7,3.3,7.6,3.8,11,1C194.9,169.5,195.9,166.7,195.4,164.1z"/>
			</g>
		</g>
		<g class="st10">
			<g>
				
					<ellipse transform="matrix(0.9784 -0.2065 0.2065 0.9784 -29.2707 42.2146)" class="st3" cx="187.6" cy="161.3" rx="3.9" ry="2.7"/>
			</g>
		</g>
		<g class="st10">
			<g>
				<ellipse transform="matrix(0.9784 -0.2065 0.2065 0.9784 -29.2044 42.1369)" class="st3" cx="187.3" cy="161" rx="2.8" ry="2"/>
			</g>
		</g>
	</g>
	<g>
		<g>
			<circle class="st12" cx="170.3" cy="136.4" r="7.8"/>
		</g>
		<g class="st8">
			<g>
				<path d="M163.4,139.7c0.3,0.5,0.6,1.2,1.1,1.7c2.7,3.3,7.6,3.8,11,1c2.2-1.8,3.1-4.6,2.7-7.3c-0.5,1.3-1.2,2.6-2.4,3.5
					c-3.3,2.7-8.2,2.3-11-1c-0.9-1.1-1.5-2.3-1.7-3.7C162.4,135.9,162.5,137.8,163.4,139.7"/>
			</g>
		</g>
		<g class="st10">
			<g>
				
					<ellipse transform="matrix(0.9784 -0.2065 0.2065 0.9784 -23.6537 37.9976)" class="st3" cx="170.2" cy="132.3" rx="3.9" ry="2.7"/>
			</g>
		</g>
		<g class="st10">
			<g>
				<ellipse transform="matrix(0.9784 -0.2065 0.2065 0.9784 -23.5873 37.9199)" class="st3" cx="169.9" cy="132" rx="2.8" ry="2"/>
			</g>
		</g>
	</g>
	<g>
		<g>
			
				<ellipse transform="matrix(0.7704 -0.6376 0.6376 0.7704 -21.8006 134.5053)" class="st13" cx="175.8" cy="97.5" rx="7.8" ry="7.8"/>
		</g>
		<g class="st8">
			<g>
				<path d="M168.8,100.7c0.3,0.5,0.6,1.2,1.1,1.7c2.7,3.3,7.6,3.8,11,1c2.2-1.8,3.1-4.6,2.7-7.3c-0.5,1.3-1.2,2.6-2.4,3.5
					c-3.3,2.7-8.2,2.3-11-1c-0.9-1.1-1.5-2.3-1.7-3.7C167.8,96.9,168,99,168.8,100.7"/>
			</g>
		</g>
		<g class="st10">
			<g>
				
					<ellipse transform="matrix(0.9784 -0.2065 0.2065 0.9784 -15.5091 38.2828)" class="st3" cx="175.6" cy="93.4" rx="3.9" ry="2.7"/>
			</g>
		</g>
		<g class="st10">
			<g>
				<ellipse transform="matrix(0.9784 -0.2065 0.2065 0.9784 -15.4378 38.228)" class="st3" cx="175.4" cy="93.1" rx="2.8" ry="2"/>
			</g>
		</g>
	</g>
	<g>
		<g>
			<circle class="st9" cx="134" cy="102.5" r="7.8"/>
		</g>
		<g class="st8">
			<g>
				<path d="M126.9,105.7c0.3,0.5,0.6,1.2,1.1,1.7c2.7,3.3,7.6,3.8,11,1c2.2-1.8,3.1-4.6,2.7-7.3c-0.5,1.3-1.2,2.6-2.4,3.5
					c-3.3,2.7-8.2,2.3-11-1c-0.9-1.1-1.5-2.3-1.7-3.7C126.1,101.9,126.1,103.9,126.9,105.7"/>
			</g>
		</g>
		<g class="st10">
			<g>
				
					<ellipse transform="matrix(0.9784 -0.2065 0.2065 0.9784 -17.4317 29.7645)" class="st3" cx="133.9" cy="98.4" rx="3.9" ry="2.7"/>
			</g>
		</g>
		<g class="st10">
			<g>
				<ellipse transform="matrix(0.9784 -0.2065 0.2065 0.9784 -17.3654 29.6868)" class="st3" cx="133.5" cy="98" rx="2.8" ry="2"/>
			</g>
		</g>
	</g>
</g>
<g>
	<g>
		<g>
			<path class="st14" d="M266.7,69.9V33.8c0-1.6-1.3-2.8-2.8-2.8h-8.6c-1.8,0-3.2,1.5-3.2,3.2v35.7l0,0c-12.9,3-22.7,13.9-24.3,27.2
				c-2.4,20.1,14.5,37.5,34.6,35.6c16.2-1.5,29-15.1,29-31.8C291.2,85.9,280.7,73.3,266.7,69.9L266.7,69.9z"/>
		</g>
		<g class="st8">
			<g>
				<path d="M266.7,69.9C266.7,69.9,266.6,69.9,266.7,69.9V33.7c0-1.6-1.3-2.8-2.8-2.8h-8.5v2h6.1c1.6,0,2.8,1.3,2.8,2.8v36.1l0,0
					c14.1,3.3,24.6,16,24.6,31c0,9-3.7,17-9.6,22.8c7.3-5.9,11.9-14.8,11.9-24.9C291.2,85.9,280.7,73.2,266.7,69.9z"/>
			</g>
		</g>
		<g>
			<path class="st15" d="M235.5,88.6c-2,4-3.2,8.5-3,13.4c0.5,14.2,12.1,25.8,26.3,26.1c15.1,0.4,27.6-11.8,27.6-26.9
				c0-4.3-1-8.4-2.8-12c-0.7-1.4-2-2.2-3.6-2.2h-41.5C237.1,86.8,236,87.5,235.5,88.6z"/>
		</g>
		<g class="st6">
			<g>
				<path class="st3" d="M234.9,103.5c0-5.3,1.5-10.1,4.1-14.2h44.6c-0.1-0.2-0.2-0.3-0.2-0.5c-0.6-1.2-1.8-2-3.1-2h-41.5
					c-1.5,0-2.7,0.8-3.4,2c-1.9,3.7-2.9,7.8-2.9,12.2c0,8.3,3.7,15.6,9.6,20.6C237.5,116.9,234.9,110.5,234.9,103.5z"/>
			</g>
		</g>
		<g class="st8">
			<g>
				<path d="M283.6,89.4c0.7,2.4,1.1,5,1.1,7.6c0,14.9-12.1,26.9-26.9,26.9c-10.6,0-19.9-6.2-24.2-15.2
					c3.3,11.1,13.7,19.3,25.9,19.3c14.9,0,26.9-12.1,26.9-26.9C286.2,96.9,285.2,92.9,283.6,89.4z"/>
			</g>
		</g>
		<g class="st16">
			<path class="st3" d="M255.4,31L255.4,31c-1.9,0-3.3,1.5-3.3,3.2v35.7l0,0c-12.9,3-22.7,13.9-24.3,27.2
				c-1.8,14.3,6.4,27.4,18.6,33c-10.2-6.2-16.9-18.2-15.3-31.1c1.7-13.4,11.5-24.2,24.3-27.2l0,0v-8.4V36V31L255.4,31z"/>
		</g>
	</g>
	<g>
		<g>
			<g>
				<g>
					<defs>
						<path id="SVGID_2_" d="M266.7,69.9V33.8c0-1.6-1.3-2.8-2.8-2.8h-8.6c-1.8,0-3.2,1.5-3.2,3.2v35.7l0,0
							c-12.9,3-22.7,13.9-24.3,27.2c-2.4,20.1,14.5,37.5,34.6,35.6c16.2-1.5,29-15.1,29-31.8C291.2,85.9,280.7,73.3,266.7,69.9
							L266.7,69.9z"/>
					</defs>
					<clipPath id="SVGID_3_">
						<use xlink:href="#SVGID_2_"  style="overflow:visible;"/>
					</clipPath>
					<g class="st17">
						<g class="st16">
							
								<rect x="209.2" y="78.5" transform="matrix(0.9689 -0.2474 0.2474 0.9689 -13.1692 66.8119)" class="st3" width="100.1" height="14.6"/>
						</g>
						<g class="st16">
							
								<rect x="212.6" y="95.6" transform="matrix(0.9689 -0.2474 0.2474 0.9689 -16.3823 68.0734)" class="st3" width="100.1" height="7.3"/>
						</g>
					</g>
				</g>
			</g>
		</g>
	</g>
</g>
<g>
	
		<linearGradient id="SVGID_4_" gradientUnits="userSpaceOnUse" x1="8.8303" y1="405.7247" x2="110.0561" y2="405.7247" gradientTransform="matrix(1 0 0 -1 0 552.1064)">
		<stop  offset="4.166280e-03" style="stop-color:#FFFFFF;stop-opacity:0.2"/>
		<stop  offset="0.7648" style="stop-color:#FFFFFF"/>
	</linearGradient>
	<polygon class="st18" points="10.5,131.1 110.1,156.4 107,161.7 8.8,134.9 	"/>
	<path class="st14" d="M166.9,192.9H92.3c-1.7,0-2.6-1.8-1.9-3.2l37.3-63.2c0.8-1.4,2.8-1.4,3.7,0l37.3,63.2
		C169.6,191.1,168.5,192.9,166.9,192.9z"/>
	<path class="st19" d="M91.7,192.2L129,129c0.8-1.4,2.4-2.5,2.4-2.5c-0.8-1.4-2.8-1.4-3.7,0l-37.3,63.2c-0.7,1.2-0.1,2.5,1,3
		C91.5,192.5,91.6,192.4,91.7,192.2z"/>
	<g class="st8">
		<path d="M168.7,189.7l-37.3-63.2c-0.7-1.1-2-1.4-2.9-0.8l36.5,61.9c0.9,1.5-0.2,3.2-1.9,3.2h-73c0,1.1,0.9,2,2.1,2h74.6
			C168.5,192.9,169.6,191.1,168.7,189.7z"/>
	</g>
	<path class="st20" d="M156.3,186.6h-52.9c-1.2,0-2-1.4-1.3-2.4l26.4-48.3c0.6-1.1,2-1.1,2.6,0l26.4,48.3
		C158.2,185.3,157.5,186.6,156.3,186.6z"/>
	<path class="st21" d="M157.6,184.2l-26.4-48.3c-0.6-1.1-2-1.1-2.6,0l-26.4,48.3c-0.6,1.1,0.1,2.4,1.3,2.4h52.9
		C157.5,186.6,158.2,185.3,157.6,184.2z M152.5,182.9h-45.4c-1,0-1.7-1.2-1.2-2.1l22.7-41.5c0.5-0.9,1.8-0.9,2.2,0l22.7,41.5
		C154.2,181.8,153.5,182.9,152.5,182.9z"/>
	
		<linearGradient id="SVGID_5_" gradientUnits="userSpaceOnUse" x1="114.7024" y1="394.7435" x2="144.703" y2="394.7435" gradientTransform="matrix(1 0 0 -1 0 552.1064)">
		<stop  offset="4.166280e-03" style="stop-color:#FFFFFF;stop-opacity:0.2"/>
		<stop  offset="0.424" style="stop-color:#FFFFFF"/>
	</linearGradient>
	<polygon class="st22" points="140.6,153.3 144.7,160.7 114.7,161.5 117.7,155.6 	"/>
	
		<linearGradient id="SVGID_6_" gradientUnits="userSpaceOnUse" x1="150.6555" y1="413.7257" x2="260.1568" y2="413.7257" gradientTransform="matrix(1 0 0 -1 0 552.1064)">
		<stop  offset="7.260000e-02" style="stop-color:#E0A4BD"/>
		<stop  offset="0.8017" style="stop-color:#E0A4BD;stop-opacity:0"/>
	</linearGradient>
	<path class="st23" d="M151.5,160.6l108.1-37c0.3-2.5,0.4-5,0.5-7.4L150.7,159L151.5,160.6z"/>
	
		<linearGradient id="SVGID_7_" gradientUnits="userSpaceOnUse" x1="149.8747" y1="418.0686" x2="260.195" y2="418.0686" gradientTransform="matrix(1 0 0 -1 0 552.1064)">
		<stop  offset="7.260000e-02" style="stop-color:#0096A1"/>
		<stop  offset="0.8017" style="stop-color:#0096A1;stop-opacity:0"/>
	</linearGradient>
	<path class="st24" d="M150.7,159l109.5-42.8c0.1-2.3,0-4.7-0.2-7.1l-110.1,48.8L150.7,159z"/>
	
		<linearGradient id="SVGID_8_" gradientUnits="userSpaceOnUse" x1="149.2892" y1="423.9243" x2="260.0592" y2="423.9243" gradientTransform="matrix(1 0 0 -1 0 552.1064)">
		<stop  offset="7.260000e-02" style="stop-color:#87D6DD"/>
		<stop  offset="0.8017" style="stop-color:#87D6DD;stop-opacity:0"/>
	</linearGradient>
	<path class="st25" d="M150,157.8L260.1,109c-0.2-3.5-0.7-6.9-1.3-10.3l-109.5,58L150,157.8z"/>
	
		<linearGradient id="SVGID_9_" gradientUnits="userSpaceOnUse" x1="149.2892" y1="428.9504" x2="258.7904" y2="428.9504" gradientTransform="matrix(1 0 0 -1 0 552.1064)">
		<stop  offset="7.260000e-02" style="stop-color:#74AC66"/>
		<stop  offset="0.8017" style="stop-color:#74AC66;stop-opacity:0"/>
	</linearGradient>
	<path class="st26" d="M149.3,156.7l109.5-58c-0.6-3.1-1.4-6.1-2.3-9.1L149.3,156.7L149.3,156.7z"/>
	
		<linearGradient id="SVGID_10_" gradientUnits="userSpaceOnUse" x1="148.7036" y1="432.9518" x2="256.4482" y2="432.9518" gradientTransform="matrix(1 0 0 -1 0 552.1064)">
		<stop  offset="7.260000e-02" style="stop-color:#FFDE5F"/>
		<stop  offset="0.8017" style="stop-color:#FFDE5F;stop-opacity:0"/>
	</linearGradient>
	<path class="st27" d="M149.3,156.6l107.2-67c-0.9-2.6-1.9-5.3-2.9-7.8l-104.8,73.8L149.3,156.6z"/>
	
		<linearGradient id="SVGID_11_" gradientUnits="userSpaceOnUse" x1="147.9229" y1="436.6604" x2="253.5203" y2="436.6604" gradientTransform="matrix(1 0 0 -1 0 552.1064)">
		<stop  offset="7.260000e-02" style="stop-color:#F8BA00"/>
		<stop  offset="0.8101" style="stop-color:#F8BA00;stop-opacity:0"/>
	</linearGradient>
	<path class="st28" d="M148.6,155.6l104.9-73.8c-1-2.2-2-4.4-3.1-6.5l-102.5,79L148.6,155.6z"/>
	
		<linearGradient id="SVGID_12_" gradientUnits="userSpaceOnUse" x1="146.8493" y1="440.2714" x2="250.2997" y2="440.2714" gradientTransform="matrix(1 0 0 -1 0 552.1064)">
		<stop  offset="0" style="stop-color:#E06963"/>
		<stop  offset="0.4106" style="stop-color:#E2736C;stop-opacity:0"/>
	</linearGradient>
	<path class="st29" d="M147.8,154.2l102.5-79c-1.1-2-2.2-4-3.5-5.9l-99.9,83.2L147.8,154.2z"/>
</g>
<g>
	<g>
		<path class="st30" d="M174.1,188l1.4-3.9V166l-1.3-3.6c-0.3-0.8,0.3-1.4,0.9-1.4h105.2c7.8,0,14.1,6.3,14.1,14.1l0,0
			c0,7.8-6.3,14.1-14.1,14.1H174.7C174.2,189.1,173.8,188.5,174.1,188z"/>
	</g>
	<g>
		<path class="st3" d="M283.2,175.1L283.2,175.1c0,4.9-4,9-9,9h-98.9V166h98.9C279.2,166,283.3,170,283.2,175.1z"/>
	</g>
	<g class="st31">
		<g>
			<path d="M283.2,175.3L283.2,175.3c0,4.9-4,9-9,9h-98.9v-2.3h97.7c3.8,0,6.8-3,6.8-6.8l0,0c0-3.8-3-6.8-6.8-6.8h-97.7V166h98.9
				C279.3,166,283.3,170,283.2,175.3z"/>
		</g>
	</g>
	<g class="st31">
		<g>
			<path d="M275.4,185.3H175l0.4-1.2h98.9c5.1,0,9.1-4,9.1-9l0,0c0-4.9-4.2-9-9.1-9h-98.9L175,165h100.3c5.3,0,9.6,4.6,9.6,10.2l0,0
				C284.9,180.7,280.6,185.3,275.4,185.3z"/>
		</g>
	</g>
	<g class="st32">
		<path class="st3" d="M278,163H174.2l-0.1-0.5c-0.3-0.8,0.3-1.4,0.9-1.4h103.8L278,163z"/>
	</g>
	<g class="st33">
		<g>
			<path d="M284.4,158.8H180.6l-0.1,0.5c-0.3,0.8,0.3,1.4,0.9,1.4h103.8L284.4,158.8z"/>
		</g>
	</g>
	<g>
		<path class="st34" d="M179.9,160l1.4-3.9V138l-1.3-3.6c-0.3-0.8,0.3-1.4,0.9-1.4h105.2c7.8,0,14.1,6.3,14.1,14.1l0,0
			c0,7.8-6.3,14.1-14.1,14.1H180.7C180.2,161.1,179.8,160.5,179.9,160z"/>
	</g>
	<g>
		<path class="st3" d="M289.2,147.1L289.2,147.1c0,4.9-4,9-9,9h-98.9V138h98.9C285.3,138,289.3,142,289.2,147.1z"/>
	</g>
	<g class="st31">
		<g>
			<path d="M289.2,147.3L289.2,147.3c0,4.9-4,9-9,9h-98.9v-2.3H279c3.8,0,6.8-3,6.8-6.8l0,0c0-3.8-3-6.8-6.8-6.8h-97.7V138h98.9
				C285.3,138,289.3,142,289.2,147.3z"/>
		</g>
	</g>
	<g class="st31">
		<g>
			<path d="M281.4,157.2H181.1l0.4-1.2h98.9c5.1,0,9.1-4,9.1-9l0,0c0-4.9-4.2-9-9.1-9h-98.9l-0.4-1.2h100.3c5.3,0,9.6,4.6,9.6,10.2
				l0,0C291,152.6,286.7,157.2,281.4,157.2z"/>
		</g>
	</g>
	<g class="st32">
		<path class="st3" d="M284,135H180.2l-0.1-0.5c-0.3-0.8,0.3-1.4,0.9-1.4h103.8L284,135z"/>
	</g>
	<path class="st35" d="M260.2,150.1c-3.3,0-6.6,0-9.9,0c-22.9,0-45.8,0-68.8,0v-1.4c3.3,0,6.5,0,9.8,0c23.1,0,46,0,68.9,0
		C261.1,148.7,261.1,150.1,260.2,150.1z"/>
	<path class="st36" d="M271,147.1c-3.6,0-7.4,0-11.1,0c-16,0-32,0-48.2,0c-10,0-20.2,0-30.2,0v-1.4c3.8,0,7.4,0,11.1,0
		c16,0,32.2,0,48.2,0c10,0,20.1,0,30.2,0C271.9,145.7,271.9,147.1,271,147.1z"/>
	<path class="st37" d="M274.9,144.1c-3.8,0-7.7,0-11.6,0c-16.8,0.1-33.6,0.1-50.4,0.3c-10.5,0-21,0.1-31.5,0.1v-1.4
		c3.9,0,7.7,0,11.6,0c16.8-0.1,33.6-0.1,50.4-0.3c10.4,0,21-0.1,31.5-0.1C275.9,142.7,275.9,144.1,274.9,144.1z"/>
	<g>
		<g>
			<path class="st38" d="M222.3,164.4v-19.3c0-0.4-0.3-0.7-0.7-0.7h-4.7c-0.4,0-0.7,0.3-0.7,0.7v19.3c0,0.5,0.7,0.9,1,0.7l1.7-0.9
				c0.3-0.1,0.4-0.1,0.7,0l1.7,0.9C221.9,165.4,222.4,165,222.3,164.4z"/>
		</g>
		<g class="st32">
			<path class="st3" d="M217.1,145v20.2c-0.4,0-0.8-0.3-0.8-0.7v-19.3c0-0.4,0.3-0.7,0.7-0.7h0.3C217.1,144.8,217.1,144.9,217.1,145
				L217.1,145z"/>
		</g>
		<g class="st31">
			<g>
				<path d="M222.4,145.2v19.3c0,0.5-0.5,0.9-0.9,0.7v-20.6h0.3C222.1,144.5,222.4,144.9,222.4,145.2z"/>
			</g>
		</g>
	</g>
	<g>
		<path class="st35" d="M254,178.8c-3.3,0-6.6,0-9.9,0c-22.9,0-45.8,0-68.8,0v-1.4c3.3,0,6.5,0,9.8,0c23.1,0,46,0,68.9,0
			C255,177.3,255,178.8,254,178.8z"/>
		<path class="st36" d="M265,175.8c-3.6,0-7.4,0-11.1,0c-16,0-32,0-48.2,0c-10,0-20.2,0-30.2,0v-1.4c3.8,0,7.4,0,11.1,0
			c16,0,32.2,0,48.2,0c10,0,20.1,0,30.2,0C265.9,174.3,265.9,175.8,265,175.8z"/>
		<path class="st37" d="M175.4,171.6v1.4c1.8,0,3.6,0,5.5,0c16.8-0.1,33.6-0.1,50.4-0.3c3.8,0,7.7,0,11.6,0c0.9,0,0.9-1.4,0-1.4
			c-10.4,0-21,0.1-31.5,0.1C199.3,171.5,187.4,171.6,175.4,171.6L175.4,171.6z"/>
	</g>
	<g>
		<g>
			<path class="st39" d="M216.3,192.4v-19.3c0-0.4-0.3-0.7-0.7-0.7h-4.7c-0.4,0-0.7,0.3-0.7,0.7v19.3c0,0.5,0.7,0.9,1,0.7l1.7-0.9
				c0.3-0.1,0.4-0.1,0.7,0l1.7,0.9C215.9,193.4,216.4,193,216.3,192.4z"/>
		</g>
		<g class="st32">
			<path class="st3" d="M211.1,173v20.2c-0.4,0-0.8-0.3-0.8-0.7v-19.3c0-0.4,0.3-0.7,0.7-0.7h0.3C211.1,172.8,211.1,172.9,211.1,173
				L211.1,173z"/>
		</g>
		<g class="st31">
			<g>
				<path d="M216.4,173.3v19.3c0,0.5-0.5,0.9-0.9,0.7v-20.6h0.3C216.1,172.7,216.4,172.9,216.4,173.3z"/>
			</g>
		</g>
	</g>
</g>
<g>
	<g>
		<g>
			<g>
				<circle class="st38" cx="211.7" cy="35" r="4.7"/>
			</g>
		</g>
		<g class="st32">
			<path class="st3" d="M204.2,30c3.5-3.9,9.5-4.3,13.4-0.8c2.6,2.3,3.7,5.8,3,9c1.2-3.5,0.3-7.6-2.7-10.2
				c-3.9-3.5-9.9-3.1-13.4,0.8c-1.1,1.3-1.8,2.8-2.2,4.3C202.8,32,203.4,30.9,204.2,30z"/>
		</g>
		<g class="st40">
			<path class="st3" d="M207.7,32.8c1.7-2,4.7-2.2,6.7-0.4c1.5,1.3,1.9,3.3,1.4,5c1.1-1.9,0.7-4.4-1-5.9c-2-1.7-5-1.5-6.7,0.4
				c-0.5,0.5-0.8,1.1-1,1.7C207.3,33.3,207.5,33.1,207.7,32.8z"/>
		</g>
		<g class="st41">
			<g>
				<path d="M215,38.4c-1.8,1.2-4.2,1.1-5.8-0.4c-2-1.7-2.2-4.7-0.4-6.7c0.1-0.1,0.2-0.2,0.2-0.2c-0.3,0.2-0.6,0.5-0.9,0.8
					c-1.7,2-1.5,5,0.4,6.7C210.4,40.3,213.2,40.2,215,38.4z"/>
			</g>
		</g>
		<g class="st41">
			<g>
				<path d="M218.5,41.5c-3.5,2.8-8.7,2.7-12.1-0.3c-3.9-3.5-4.3-9.5-0.8-13.4c0,0,0.1-0.1,0.2-0.2c-0.4,0.3-0.8,0.7-1.2,1.2
					c-3.5,3.9-3.1,9.9,0.8,13.4C209.2,45.6,215.1,45.3,218.5,41.5z"/>
			</g>
		</g>
	</g>
	<g>
		<path class="st42" d="M231.2,62.1l-52-10.5c-1-0.2-1.6-1.1-1.4-2.1l6.9-34.3c0.2-1,1.1-1.6,2.1-1.4l52,10.5c1,0.2,1.6,1.1,1.4,2.1
			l-6.9,34.3C233.1,61.7,232.2,62.3,231.2,62.1z"/>
	</g>
	<g class="st8">
		<g>
			<path d="M238.7,24.3L238.7,24.3c0,0.1,0,0.3-0.1,0.5l-0.4,1.8l0,0l-52-12.7c-1.5-0.3-1.7,2.7-1.9,3.7l23,21.4
				c0.8,0.7,1.9,1,3,0.6l27.5-10.1l-5.9,29.4c-0.2,1-1.2,1.7-2.2,1.5l-51.8-10.5c0.1,0.8,0.7,1.5,1.5,1.7l51.8,10.5
				c1,0.2,2-0.5,2.2-1.5l6.9-34.1C240.3,25.5,239.7,24.5,238.7,24.3z"/>
		</g>
	</g>
	<g>
		<path class="st43" d="M207.7,36.8l-22-20.5c-1-0.9-0.2-2.6,1.2-2.4l0,0l51.8,10.5l0,0c1.3,0.3,1.4,2.2,0.1,2.7l-28.2,10.4
			C209.7,37.7,208.5,37.5,207.7,36.8z"/>
	</g>
	<g>
		<path class="st44" d="M208.1,28.3c-0.8-0.2-1.7-0.4-2.5-0.2s-1.5,1-1.3,1.8c0.1,0.4,0.4,0.9,0.1,1.2c-0.2,0.2-0.5,0.2-0.8,0.2
			c-1.2-0.1-2.5,0.1-3.5,0.7c-1,0.6-1.7,1.8-1.6,3c0.2,1.4,1.4,2.7,1,4c-0.1,0.5-0.5,0.9-0.6,1.4c-0.3,0.9,0,2,0.6,2.8
			c0.6,0.8,1.6,1.2,2.5,1.5c0.5,0.1,1,0.2,1.5,0.4c0.8,0.3,1.4,0.8,2.1,1.3c1.8,1.1,4.2,1.2,6.1,0.3c0.8-0.4,1.5-0.9,2.3-0.9
			c0.7,0,1.3,0.3,2,0.3c1.5,0.1,2.9-1,3.4-2.4c0.6-1.4,0.5-3,0.2-4.5c-0.1-0.6-0.2-1.3,0.2-1.8c0.4-0.4,1.1-0.5,1.5-0.9
			c0.5-0.4,0.5-1.2,0.2-1.7c-0.3-0.6-0.7-1-1.2-1.4c-0.6-0.5-1.1-1.1-1.7-1.6c-0.3-0.3-0.6-0.5-1-0.6c-0.6-0.1-1.1,0.5-1.6,0.7
			c-0.9,0.3-1.9-0.3-2.6-0.9C212.1,29.8,210,28.8,208.1,28.3z"/>
	</g>
	<g class="st45">
		<path d="M221.6,35c-0.3-0.6-0.7-1-1.2-1.4c-0.1-0.1-0.2-0.1-0.2-0.2c0,0.1,0.1,0.1,0.1,0.2c0.3,0.6,0.2,1.3-0.2,1.7
			s-1.1,0.5-1.5,0.9c-0.4,0.5-0.3,1.2-0.2,1.8c0.3,1.5,0.4,3-0.2,4.5c-0.6,1.5-1.9,2.6-3.4,2.4c-0.7-0.1-1.3-0.4-2-0.3
			c-0.8,0-1.6,0.5-2.3,0.9c-1.9,0.9-4.3,0.8-6.1-0.3c-0.7-0.4-1.4-1-2.1-1.3c-0.5-0.2-1-0.3-1.5-0.4c-0.6-0.2-1.2-0.4-1.7-0.7
			c0.1,0.3,0.3,0.5,0.5,0.7c0.6,0.8,1.6,1.2,2.5,1.5c0.5,0.1,1,0.2,1.5,0.4c0.8,0.3,1.4,0.8,2.1,1.3c1.8,1.1,4.2,1.2,6.1,0.3
			c0.8-0.4,1.5-0.9,2.3-0.9c0.7,0,1.3,0.3,2,0.3c1.5,0.1,2.9-1,3.4-2.4c0.6-1.4,0.5-3,0.2-4.5c-0.1-0.6-0.2-1.3,0.2-1.8
			c0.4-0.4,1.1-0.5,1.5-0.9C221.8,36.3,221.8,35.6,221.6,35z"/>
	</g>
	<g>
		<g>
			<g>
				<circle class="st46" cx="210.1" cy="37.9" r="5.2"/>
			</g>
			<g>
				<circle class="st47" cx="210.1" cy="37.9" r="2.6"/>
			</g>
		</g>
		<g class="st32">
			<path class="st3" d="M206,35.1c1.9-2.1,5.2-2.3,7.3-0.5c1.4,1.3,2,3.2,1.6,4.9c0.7-1.9,0.2-4.2-1.5-5.6c-2.1-1.9-5.4-1.7-7.3,0.5
				c-0.6,0.7-1,1.5-1.2,2.4C205.2,36.2,205.5,35.6,206,35.1z"/>
		</g>
		<g class="st40">
			<path class="st3" d="M207.9,36.7c0.9-1.1,2.6-1.2,3.7-0.2c0.8,0.7,1,1.8,0.8,2.7c0.6-1,0.4-2.4-0.5-3.2c-1.1-0.9-2.7-0.8-3.7,0.2
				c-0.3,0.3-0.4,0.6-0.5,0.9C207.7,37,207.8,36.8,207.9,36.7z"/>
		</g>
		<g class="st41">
			<g>
				<path d="M211.9,39.7c-1,0.7-2.3,0.6-3.2-0.2c-1.1-0.9-1.2-2.6-0.2-3.7l0.1-0.1c-0.2,0.1-0.3,0.3-0.5,0.4
					c-0.9,1.1-0.8,2.7,0.2,3.7C209.4,40.7,210.9,40.7,211.9,39.7z"/>
			</g>
		</g>
		<g class="st41">
			<g>
				<path d="M213.8,41.4c-1.9,1.5-4.7,1.5-6.6-0.2c-2.1-1.9-2.3-5.2-0.5-7.3c0,0,0-0.1,0.1-0.1c-0.2,0.2-0.5,0.4-0.7,0.6
					c-1.9,2.1-1.7,5.4,0.5,7.3C208.7,43.6,211.9,43.5,213.8,41.4z"/>
			</g>
		</g>
	</g>
</g>
<g>
	<g>
		<path class="st48" d="M56.1,177.1L56.1,177.1c-1-0.4-1.4-1.5-1.1-2.4l1.6-3.7c0.4-0.9,1.5-1.4,2.4-1h0.1c0.9,0.4,1.4,1.5,1,2.4
			l-1.6,3.7C58.1,177.1,57,177.5,56.1,177.1z"/>
	</g>
	<g class="st41">
		<g>
			<path d="M58,169.8c0-0.1,0.1-0.1,0.1-0.1l-0.1-0.1c-0.3-0.1-0.7,0-0.9,0.4l-2.5,5.8c-0.1,0.3,0,0.7,0.4,0.9h0.1L58,169.8z"/>
		</g>
	</g>
	<g class="st32">
		<path class="st3" d="M59.9,170.6c0-0.1,0-0.1,0-0.2V170.6c0.4,0,0.6,0.4,0.5,0.8l-2.4,5.8c-0.1,0.3-0.5,0.5-0.9,0.4H57L59.9,170.6
			z"/>
	</g>
	<g>
		<polygon class="st39" points="77,134 72.4,132.1 55.8,171.5 60.3,173.4 		"/>
	</g>
	<g>
		<polygon class="st49" points="59.6,175 55,173 56.9,168.7 61.5,170.7 		"/>
	</g>
	<g class="st41">
		<g>
			<path d="M73.2,132.8c-0.2,0.1-0.5,0.1-0.7,0c-0.1-0.1-0.2-0.2-0.3-0.3L55,173l1.1,0.5L73.2,132.8z"/>
		</g>
	</g>
	<g class="st32">
		<path class="st3" d="M76.9,134.1c-0.2,0.1-0.5,0.1-0.7,0c-0.1-0.1-0.2-0.2-0.3-0.3l-17.5,40.9l1.1,0.4L76.9,134.1z"/>
	</g>
	<g>
		<polygon class="st50" points="72.4,132.1 77,134 78.2,124.8 		"/>
	</g>
	<g>
		<path class="st50" d="M77,134l0.1-0.7c0,0,0-0.1-0.1-0.1c-0.3-0.2-0.7-0.1-0.9,0.2c0.1-0.3-0.1-0.6-0.3-0.7
			c-0.3-0.2-0.8-0.1-1,0.2l0,0c0.1-0.3,0-0.6-0.3-0.8s-0.7-0.1-0.9,0.2c0-0.3-0.1-0.6-0.3-0.7c-0.1-0.1-0.3-0.1-0.4-0.1l-0.4,0.5
			l-0.2,0.4c0,0.1,0.1,0.3,0.3,0.3c0.3,0.2,0.7,0.1,0.9-0.2c0,0.3,0.1,0.6,0.3,0.7c0.3,0.2,0.8,0.1,1-0.2l0,0
			c-0.1,0.3,0,0.6,0.3,0.8s0.7,0.1,0.9-0.2c-0.1,0.3,0.1,0.6,0.3,0.7c0.1,0.1,0.3,0.1,0.5,0.1L77,134z"/>
	</g>
	<g class="st32">
		<path class="st3" d="M77,134L77,134l1.2-9.2l-0.4,0.5l-1.9,8.4c0,0.3,0.1,0.6,0.3,0.7c0.1,0.1,0.3,0.1,0.5,0.1L77,134z"/>
	</g>
	<g class="st41">
		<g>
			<path d="M73.2,132.8l4.9-7.1l0.1-1l-5.8,7.2l-0.2,0.4c0,0.1,0.1,0.3,0.3,0.3C72.7,132.9,73,132.9,73.2,132.8z"/>
		</g>
	</g>
	<g>
		<path class="st51" d="M78.8,123.3c-0.1,0.3-0.1,0.6-0.2,1c-0.1,0.3-0.2,0.6-0.3,1s-0.1,0.7-0.3,0.9c-0.2,0.3-0.4,0.6-0.7,0.8h-0.1
			c-0.1-0.4,0-0.7,0.1-1s0.3-0.6,0.4-0.9s0.3-0.6,0.5-0.9C78.4,123.8,78.5,123.5,78.8,123.3L78.8,123.3z"/>
	</g>
</g>
<g>
	<g>
		<g>
			
				<ellipse transform="matrix(0.6967 -0.7173 0.7173 0.6967 -133.241 62.4324)" class="st52" cx="7.2" cy="188.8" rx="4.1" ry="0.5"/>
		</g>
		<g>
			<g>
				<path class="st53" d="M10.5,189.5L41,158c1.1-1.1,1-2.9-0.1-3.9l0,0c-1.1-1.1-2.9-1-3.9,0.1L6.5,185.6c-1.1,1.1-1,2.9,0.1,3.9
					l0,0C7.7,190.6,9.4,190.6,10.5,189.5z"/>
			</g>
			<g>
				<path class="st54" d="M8,183.9l-1.5,1.6c-1.1,1.1-1.1,2.9-0.1,4c1.1,1.1,2.9,1.1,4,0l1.6-1.7c1.1-1.1,1-2.9-0.1-3.9l0,0
					C10.9,182.8,9.1,182.8,8,183.9z"/>
			</g>
			<g>
				<g class="st55">
					<path class="st3" d="M6,188.7c-0.4-1-0.3-2.2,0.5-3.1l30.4-31.5c0.8-0.8,2-1.1,3-0.6L6,188.7z"/>
				</g>
				<g class="st33">
					<g>
						<path d="M41.5,154.9c0.4,1,0.3,2.2-0.5,3.1l-30.4,31.5c-0.8,0.8-2,1.1-3,0.6L41.5,154.9z"/>
					</g>
				</g>
			</g>
		</g>
	</g>
	<g>
		<g>
			<path class="st56" d="M44.7,155.6l-10.4,10.7c-0.7,0.7-1.7,0.7-2.4,0l-3-2.9c-0.7-0.7-0.7-1.7,0-2.4l10.4-10.7
				c1.4-1.5,3.8-1.5,5.3-0.1v0.1C46.1,151.7,46.2,154.1,44.7,155.6z"/>
		</g>
		<g class="st33">
			<g>
				<path d="M31.7,166.1l0.1,0.1c0.7,0.7,1.8,0.6,2.4,0l10.4-10.7c1-1,1.3-2.4,0.9-3.7L31.7,166.1z"/>
			</g>
		</g>
		<g class="st55">
			<path class="st3" d="M43.1,149.3c-1.3-0.4-2.8-0.1-3.8,1L28.9,161c-0.7,0.7-0.6,1.8,0,2.4l0.3,0.3L43.1,149.3z"/>
		</g>
		<g>
			<path class="st56" d="M37,151.1L24.4,164c-0.3,0.3-0.8,0.3-1.1,0l0,0c-0.3-0.3-0.3-0.8,0-1.1L35.9,150c0.3-0.3,0.8-0.3,1.1,0l0,0
				C37.3,150.3,37.3,150.8,37,151.1z"/>
		</g>
		<g>
			<path class="st56" d="M38.3,151.3l-1,1l-1.9-1.9l0,0c0.5-0.6,1.5-0.6,2,0L38.3,151.3z"/>
		</g>
		<g class="st55">
			<path class="st3" d="M37,150c-0.3-0.3-0.8-0.3-1.1,0l0,0l-0.4,0.4l-12.1,12.4c-0.2,0.2-0.3,0.5-0.2,0.8c0-0.2,0.1-0.3,0.2-0.4
				l12.1-12.4l0.4-0.4l0,0c0.3-0.3,0.8-0.3,1.1,0l0,0l0,0l1.1,1.1l0.2-0.2L37,150L37,150L37,150z"/>
		</g>
		<g class="st33">
			<g>
				<path d="M37.6,152.1l-1-1l-12.7,13l-0.1,0.1c0.3,0.1,0.5,0,0.8-0.2l12.1-12.4l0.8,0.8L37.6,152.1z"/>
			</g>
		</g>
	</g>
</g>
<g>
	<g>
		<path class="st9" d="M97.9,193.2H83.4c-1,0-1.8-0.8-1.8-1.8V186c0-1,0.8-1.8,1.8-1.8h14.5c1,0,1.8,0.8,1.8,1.8v5.4
			C99.7,192.4,98.9,193.2,97.9,193.2z"/>
	</g>
	<g>
		<g class="st55">
			<path class="st3" d="M99.7,186.6v-0.4c0-1.1-0.7-2-1.6-2H83.2c-0.9,0-1.6,0.9-1.6,2v0.4H99.7z"/>
		</g>
		<g class="st33">
			<g>
				<path d="M81.6,190.9v0.4c0,1.1,0.7,2,1.6,2h14.9c0.9,0,1.6-0.9,1.6-2v-0.4H81.6z"/>
			</g>
		</g>
	</g>
</g>
<g>
	<g>
		<g>
			<polygon class="st38" points="53.7,152 57.6,152 58.1,117.5 54.2,117.4 			"/>
			<g class="st41">
				<path d="M56.8,151.7c0.1-0.1,0.3-0.2,0.5-0.2c0.1,0,0.2,0.1,0.3,0.2l0.6-35.5l-1,0L56.8,151.7z"/>
			</g>
			<polygon class="st57" points="57.6,152 53.7,152 55.5,159.2 			"/>
			<path class="st58" d="M55.5,159.2l0.1-0.5l-1.2-6.9c0,0,0,0,0-0.1l0.7-35.8l-0.9,0l-0.5,35.5c0,0,0,0,0,0l0,0.5l0,0L55.5,159.2z"
				/>
			<g class="st41">
				<path d="M56.8,151.7l-1.5,6.8l0.2,0.8l2.1-7.2l0-0.4c-0.1-0.1-0.2-0.1-0.3-0.2C57.1,151.4,56.9,151.5,56.8,151.7z"/>
			</g>
		</g>
		<g>
			<polygon class="st38" points="29.4,137.3 31.8,140.5 59.5,119.9 57.2,116.8 			"/>
			<g class="st41">
				<path d="M31.6,139.7c0.2,0,0.4,0.1,0.5,0.3c0.1,0.1,0.1,0.2,0.1,0.3l28.5-21.1l-0.6-0.8L31.6,139.7z"/>
			</g>
			<polygon class="st57" points="31.8,140.5 29.4,137.3 24.8,143.2 			"/>
			<path class="st58" d="M24.8,143.2l0.5-0.2l4.7-5.1c0,0,0,0,0-0.1l28.8-21.2l-0.6-0.7l-28.5,21.2c0,0,0,0,0,0l-0.4,0.3l0,0
				L24.8,143.2z"/>
			<g class="st41">
				<path d="M31.6,139.6l-6.3,2.9l-0.5,0.6l7-2.7l0.3-0.2c0-0.1,0-0.2-0.1-0.4C31.9,139.8,31.8,139.7,31.6,139.6z"/>
			</g>
		</g>
	</g>
	<g>
		<defs>
			
				<rect id="SVGID_13_" x="52.1" y="102.7" transform="matrix(0.8162 0.5778 -0.5778 0.8162 76.3904 -14.1942)" width="16.9" height="20.5"/>
		</defs>
		<clipPath id="SVGID_14_">
			<use xlink:href="#SVGID_13_"  style="overflow:visible;"/>
		</clipPath>
		<g class="st59">
			<polygon class="st38" points="48.4,127 52.3,129.8 72.3,101.7 68.4,98.9 			"/>
			<g class="st41">
				<path d="M51.7,129c0.2,0,0.4,0,0.6,0.2c0.1,0.1,0.2,0.2,0.2,0.3l20.6-28.9l-1-0.7L51.7,129z"/>
			</g>
			<polygon class="st57" points="52.3,129.8 48.4,127 46.2,134.3 			"/>
			<path class="st58" d="M46.2,134.3l0.4-0.3l2.7-6.5c0,0,0-0.1,0-0.1l20.9-29.1l-0.9-0.7l-20.6,28.9c0,0,0,0,0,0l-0.3,0.4l0,0
				L46.2,134.3z"/>
			<g class="st41">
				<path d="M51.7,129l-5.3,4.6l-0.2,0.8l6.1-4.5l0.2-0.3c0-0.1-0.1-0.3-0.2-0.4C52.2,129,51.9,128.9,51.7,129z"/>
			</g>
		</g>
	</g>
	<g>
		<path class="st57" d="M67.9,111.5l-7.6-5.3c-0.2-0.2-0.3-0.4-0.1-0.7l3.4-4.8c0.2-0.2,0.4-0.3,0.7-0.1l7.6,5.3
			c0.2,0.2,0.3,0.4,0.1,0.7l-3.4,4.8C68.4,111.6,68.1,111.6,67.9,111.5z"/>
		<g class="st41">
			<path d="M61.2,105l7.5,5.3c0.2,0.2,0.3,0.5,0.1,0.7l-0.3,0.4c-0.2,0.2-0.5,0.3-0.7,0.1l-7.5-5.3c-0.2-0.2-0.3-0.5-0.1-0.7
				l0.3-0.4C60.7,104.9,61,104.8,61.2,105z"/>
		</g>
		<path class="st58" d="M64.2,100.6l7.6,5.3c0.2,0.1,0.3,0.4,0.1,0.6l-0.3,0.5c-0.1,0.2-0.4,0.3-0.6,0.1l-7.6-5.3
			c-0.2-0.1-0.3-0.4-0.1-0.6l0.3-0.5C63.8,100.5,64,100.4,64.2,100.6z"/>
	</g>
	<g>
		<circle class="st57" cx="57.7" cy="118.1" r="8.3"/>
		<circle class="st38" cx="57.7" cy="118.1" r="4.1"/>
	</g>
	<path class="st58" d="M50.4,115c2.3-4,7.4-5.3,11.3-3c2.7,1.5,4.2,4.4,4.1,7.2c0.4-3.2-1.1-6.6-4.1-8.3c-4-2.3-9-0.9-11.3,3
		c-0.7,1.3-1.1,2.7-1.1,4.1C49.5,117,49.9,116,50.4,115z"/>
	<path class="st60" d="M53.9,116.9c1.1-2,3.7-2.7,5.7-1.5c1.5,0.8,2.2,2.5,2,4c0.6-1.8-0.1-3.9-1.9-4.9c-2-1.1-4.5-0.5-5.7,1.5
		c-0.3,0.5-0.5,1.1-0.5,1.6C53.7,117.4,53.8,117.1,53.9,116.9z"/>
	<g class="st41">
		<path d="M61.1,120.4c-1.3,1.3-3.4,1.7-5,0.7c-2-1.1-2.7-3.7-1.5-5.7c0-0.1,0.1-0.2,0.2-0.2c-0.2,0.2-0.4,0.5-0.6,0.8
			c-1.1,2-0.5,4.5,1.5,5.7C57.5,122.8,59.9,122.2,61.1,120.4z"/>
	</g>
	<g>
		<g>
			<path class="st38" d="M42.5,126.8c-0.9-3.2-0.6-6.7,1.2-9.7l1.5,0.9c-2.9,5.1-1.2,11.6,3.9,14.6c5.1,2.9,11.6,1.2,14.6-3.9
				l1.5,0.9c-3.4,5.9-11.1,8-17,4.5C45.3,132.4,43.4,129.8,42.5,126.8z"/>
		</g>
		<g class="st32">
			<path class="st61" d="M45,117.9c-3,5.1-1.2,11.7,3.9,14.7c5.1,3,11.9,1.3,14.9-3.9"/>
		</g>
		<g class="st41">
			<path class="st62" d="M65.1,129.5c-3.4,5.9-10.9,7.9-16.7,4.5c-2.8-1.7-4.8-4.3-5.6-7.3c-0.9-3.1-0.6-6.6,1.1-9.7"/>
		</g>
	</g>
	<g class="st41">
		<path d="M64.7,122.4c-2.5,3-6.9,3.9-10.5,1.8c-4-2.3-5.3-7.4-3-11.3c0-0.1,0.1-0.1,0.1-0.2c-0.3,0.4-0.6,0.8-0.9,1.2
			c-2.3,4-0.9,9,3,11.3C57.4,127.6,62.4,126.3,64.7,122.4z"/>
	</g>
</g>
<g>
	<ellipse class="st63" cx="117.2" cy="32.9" rx="2.4" ry="2.3"/>
	<g class="st64">
		<path d="M118.8,31.2c0.1,0.3,0.2,0.6,0.2,0.9c0,1.3-1.1,2.3-2.4,2.3c-0.6,0-1.2-0.2-1.6-0.6c0.3,0.9,1.2,1.5,2.2,1.5
			c1.3,0,2.4-1.1,2.4-2.3C119.6,32.2,119.3,31.6,118.8,31.2z"/>
	</g>
	<ellipse transform="matrix(0.6404 -0.7681 0.7681 0.6404 17.2619 100.9034)" class="st65" cx="116.4" cy="32" rx="1.1" ry="0.6"/>
</g>
<g>
	<path class="st48" d="M131.6,190.2l-0.6,2.2c-0.1,0.3-0.4,0.4-0.6,0.3l-5.5-1.6c-0.3-0.1-0.4-0.4-0.3-0.6l0.6-2.2
		c0.1-0.3,0.4-0.4,0.6-0.3l5.5,1.6C131.5,189.7,131.7,190,131.6,190.2z"/>
	<g class="st41">
		<path d="M124.7,190.4c-0.1,0-0.1,0-0.1-0.1l0,0.1c-0.1,0.3,0.1,0.6,0.4,0.7l5.3,1.5c0.3,0.1,0.6-0.1,0.7-0.4l0-0.1L124.7,190.4z"
			/>
	</g>
	<path class="st58" d="M125.3,188.6c-0.1,0-0.1,0-0.2,0l0-0.1c0.1-0.3,0.4-0.5,0.7-0.4l5.3,1.5c0.3,0.1,0.5,0.4,0.4,0.7l0,0.1
		L125.3,188.6z"/>
	<polygon class="st38" points="91.5,177.6 90.3,181.7 126.4,192.1 127.6,188 	"/>
	<polygon class="st49" points="129.1,188.4 127.8,192.6 123.9,191.4 125.2,187.2 	"/>
	<g class="st41">
		<path d="M90.9,181c0.1,0.2,0.1,0.4,0.1,0.6c-0.1,0.1-0.2,0.2-0.3,0.3l37.1,10.8l0.3-1.1L90.9,181z"/>
	</g>
	<path class="st58" d="M91.6,177.6c0.1,0.2,0.1,0.4,0.1,0.6c-0.1,0.1-0.2,0.2-0.3,0.3l37.4,11l0.3-1L91.6,177.6z"/>
	<polygon class="st50" points="90.3,181.7 91.5,177.6 83.4,177.5 	"/>
	<path class="st50" d="M91.5,177.6l-0.6,0c0,0,0,0.1,0,0.1c-0.1,0.3,0,0.7,0.3,0.8c-0.2,0-0.5,0.1-0.6,0.3c-0.1,0.3,0,0.7,0.3,0.8
		c0,0,0,0,0,0c-0.3,0-0.5,0.1-0.6,0.3c-0.1,0.3,0,0.6,0.2,0.8c-0.2,0-0.5,0.1-0.6,0.3c-0.1,0.1-0.1,0.3,0,0.4l0.5,0.3l0.4,0.1
		c0.1-0.1,0.2-0.2,0.3-0.3c0.1-0.3,0-0.6-0.2-0.8c0.2,0,0.5-0.1,0.6-0.3c0.1-0.3,0-0.7-0.3-0.8c0,0,0,0,0,0c0.3,0,0.5-0.1,0.6-0.3
		c0.1-0.3,0-0.7-0.3-0.8c0.2,0,0.5-0.1,0.6-0.3c0.1-0.1,0.1-0.3,0-0.4L91.5,177.6z"/>
	<path class="st58" d="M91.5,177.6L91.5,177.6l-8.1-0.1l0.5,0.3l7.5,0.7c0.2,0,0.5-0.1,0.6-0.3c0.1-0.1,0.1-0.3,0-0.4L91.5,177.6z"
		/>
	<g class="st41">
		<path d="M91,181l-6.7-3.5l-0.9,0l6.9,4.3l0.4,0.1c0.1-0.1,0.2-0.2,0.3-0.3C91.1,181.3,91.1,181.1,91,181z"/>
	</g>
	<path class="st51" d="M82.1,177.1c0.3,0,0.6,0.1,0.9,0.1c0.3,0,0.6,0.1,0.9,0.1c0.3,0,0.6,0,0.9,0.2c0.3,0.1,0.5,0.3,0.8,0.5l0,0.1
		c-0.3,0.1-0.6,0.1-0.9,0.1c-0.3,0-0.5-0.2-0.8-0.3c-0.3-0.1-0.5-0.2-0.8-0.3C82.6,177.4,82.3,177.3,82.1,177.1L82.1,177.1z"/>
</g>
<g>
	<g>
		<path class="st34" d="M50.7,193.2h18.7c2.7,0,4.9-2.6,5-5.9l1.5-41.3H45.3l0.4,41.1C45.7,190.5,47.9,193.2,50.7,193.2z"/>
	</g>
	<g class="st55">
		<path class="st3" d="M47.7,146.1l0.4,46.3c-1.4-1.1-2.4-3-2.4-5.2l-0.4-41.1H47.7L47.7,146.1z"/>
	</g>
	<g class="st33">
		<g>
			<path d="M48.7,191.5h18.7c2.7,0,4.9-2.6,5-5.9l1.4-39.6h2l-1.5,41.3c-0.1,3.3-2.3,5.9-5,5.9H50.7c-1.5,0-2.8-0.8-3.7-2.1
				C47.5,191.4,48.1,191.5,48.7,191.5z"/>
		</g>
	</g>
</g>
</svg>
