<?xml version="1.0" encoding="utf-8"?>
<!-- Generator: Adobe Illustrator 23.0.0, SVG Export Plug-In . SVG Version: 6.00 Build 0)  -->
<svg version="1.1" id="Слой_1" xmlns="http://www.w3.org/2000/svg" xmlns:xlink="http://www.w3.org/1999/xlink" x="0px" y="0px"
	 viewBox="0 0 100 100" style="enable-background:new 0 0 100 100;" xml:space="preserve">
<style type="text/css">
	.st0{fill:#FFBA13;}
	.st1{fill:#B69CA3;}
	.st2{fill:#FDD1C9;}
	.st3{fill:#FDDDD6;}
	.st4{fill:none;stroke:#AFCAD5;stroke-linecap:round;stroke-miterlimit:10;}
	.st5{fill:none;stroke:#AFCAD5;stroke-linecap:round;stroke-miterlimit:10;stroke-dasharray:2.1169,2.1169;}
	.st6{fill:#AFCAD5;}
	.st7{fill:#D4E8EF;}
	.st8{fill:none;stroke:#FFAB00;stroke-linecap:round;stroke-miterlimit:10;}
	.st9{fill:none;stroke:#FFAB00;stroke-linecap:round;stroke-miterlimit:10;stroke-dasharray:1.8694,1.8694;}
	.st10{fill:none;stroke:#DAC59E;stroke-linecap:round;stroke-miterlimit:10;}
	.st11{fill:none;stroke:#DAC59E;stroke-linecap:round;stroke-miterlimit:10;stroke-dasharray:1.8662,1.8662;}
	.st12{fill:none;stroke:#967179;stroke-linecap:round;stroke-miterlimit:10;}
	.st13{fill:none;stroke:#967179;stroke-linecap:round;stroke-miterlimit:10;stroke-dasharray:1.9312,1.9312;}
	.st14{fill:none;stroke:#89B8B2;stroke-linecap:round;stroke-miterlimit:10;}
	.st15{fill:none;stroke:#89B8B2;stroke-linecap:round;stroke-miterlimit:10;stroke-dasharray:1.9762,1.9762;}
	.st16{fill:#DAC59E;}
	.st17{fill:#FFE5C3;}
	.st18{fill:#967179;}
	.st19{fill:#FFF2BE;}
	.st20{fill:#89B8B2;}
	.st21{fill:#A4D1CB;}
	.st22{fill:#FFAB00;}
</style>
<path class="st0" d="M52.9,87.65h-0.98c-9.03,0-16.35-7.32-16.35-16.35v-12c0-9.03,7.32-16.35,16.35-16.35h0.98
	c9.03,0,16.35,7.32,16.35,16.35v12C69.25,80.33,61.93,87.65,52.9,87.65z"/>
<g>
	<path class="st1" d="M64.59,100H40.24c-4.88,0-8.85-3.96-8.85-8.85v-2.14c0-6.7,5.43-12.13,12.13-12.13H61.3
		c6.7,0,12.13,5.43,12.13,12.13v2.14C73.43,96.04,69.47,100,64.59,100z"/>
	<g>
		<path class="st2" d="M52.8,82.43h-0.77c-2.08,0-3.76-1.68-3.76-3.76v-6.63c0-2.08,1.68-3.76,3.76-3.76h0.77
			c2.08,0,3.76,1.68,3.76,3.76v6.63C56.56,80.75,54.87,82.43,52.8,82.43z"/>
		<g>
			<circle class="st0" cx="52.6" cy="58.34" r="14.41"/>
			<ellipse class="st3" cx="52.75" cy="61.91" rx="12.62" ry="14.28"/>
			
				<ellipse transform="matrix(0.2782 -0.9605 0.9605 0.2782 -15.1088 107.2138)" class="st3" cx="63.78" cy="63.66" rx="3.8" ry="3.23"/>
			
				<ellipse transform="matrix(0.9928 -0.1195 0.1195 0.9928 -7.3584 5.4132)" class="st3" cx="41.46" cy="64.06" rx="3.23" ry="3.8"/>
			<path class="st0" d="M40,60.41c0,0,9.14,0.14,12.88-6.24c2.63,5.44,12.43,5.95,12.43,5.95s-0.28-12.24-12.56-12.49
				C40.47,47.37,40,60.41,40,60.41z"/>
		</g>
	</g>
</g>
<g>
	<g>
		<line class="st4" x1="21.72" y1="73.75" x2="21.24" y2="72.88"/>
		<line class="st5" x1="20.2" y1="71.03" x2="6.25" y2="46.09"/>
		<line class="st4" x1="5.73" y1="45.17" x2="5.24" y2="44.29"/>
	</g>
</g>
<g>
	<circle class="st6" cx="21.57" cy="72.51" r="9.83"/>
	<circle class="st7" cx="21.57" cy="72.51" r="7.58"/>
</g>
<g>
	<g>
		<line class="st8" x1="34.68" y1="32.47" x2="33.75" y2="32.84"/>
		<line class="st9" x1="32.02" y1="33.53" x2="8.55" y2="42.82"/>
		<line class="st8" x1="7.68" y1="43.17" x2="6.75" y2="43.54"/>
	</g>
</g>
<g>
	<g>
		<line class="st10" x1="61.4" y1="11.4" x2="60.64" y2="12.05"/>
		<line class="st11" x1="59.23" y1="13.27" x2="40.08" y2="29.65"/>
		<line class="st10" x1="39.37" y1="30.25" x2="38.61" y2="30.9"/>
	</g>
</g>
<g>
	<g>
		<line class="st12" x1="62" y1="11.79" x2="62.44" y2="12.69"/>
		<line class="st13" x1="63.29" y1="14.42" x2="76.48" y2="41.29"/>
		<line class="st12" x1="76.9" y1="42.16" x2="77.34" y2="43.06"/>
	</g>
</g>
<g>
	<g>
		<line class="st14" x1="78.71" y1="45.32" x2="79.14" y2="46.23"/>
		<line class="st15" x1="79.99" y1="48.01" x2="93.17" y2="75.66"/>
		<line class="st14" x1="93.6" y1="76.55" x2="94.03" y2="77.46"/>
	</g>
</g>
<circle class="st16" cx="34.68" cy="32.47" r="8.93"/>
<circle class="st17" cx="34.68" cy="32.47" r="6.89"/>
<circle class="st18" cx="61.69" cy="10.38" r="10.31"/>
<circle class="st1" cx="61.69" cy="10.38" r="7.95"/>
<circle class="st0" cx="92.95" cy="77" r="7.05"/>
<circle class="st19" cx="92.95" cy="77" r="5.43"/>
<circle class="st20" cx="77.53" cy="42.16" r="10.79"/>
<circle class="st21" cx="77.53" cy="42.16" r="8.31"/>
<g>
	<circle class="st22" cx="6.43" cy="44.39" r="6.43"/>
	<circle class="st19" cx="6.43" cy="44.39" r="4.96"/>
</g>
</svg>
